<svg xmlns:xlink="http://www.w3.org/1999/xlink" version="1.1" class="highcharts-root" style="font-family:&quot;lucida grande&quot;, &quot;lucida sans unicode&quot;, arial, helvetica, sans-serif;font-size:12px;" xmlns="http://www.w3.org/2000/svg" width="600" height="400"><desc>Created with Highcharts 5.0.6</desc><defs><clipPath id="highcharts-9g19oj0-227"><rect x="0" y="0" width="534" height="298" fill="none"></rect></clipPath></defs><rect fill="#ffffff" class="highcharts-background" x="0" y="0" width="600" height="400" rx="0" ry="0"></rect><rect fill="none" class="highcharts-plot-background" x="56" y="47" width="534" height="298"></rect><g class="highcharts-plot-bands-0"><path fill="#e6c3c3" class="highcharts-plot-band " d="M 56 47.5 L 590 47.5 590 47.5 56 47.5 z"></path><path fill="#e6dcc3" class="highcharts-plot-band " d="M 56 97.5 L 590 97.5 590 47.5 56 47.5 z"></path><path fill="#c3e6c3" class="highcharts-plot-band " d="M 56 345.5 L 590 345.5 590 97.5 56 97.5 z"></path></g><g class="highcharts-grid highcharts-xaxis-grid "><path fill="none" class="highcharts-grid-line" d="M 172.5 47 L 172.5 345" opacity="1"></path><path fill="none" class="highcharts-grid-line" d="M 290.5 47 L 290.5 345" opacity="1"></path><path fill="none" class="highcharts-grid-line" d="M 407.5 47 L 407.5 345" opacity="1"></path><path fill="none" class="highcharts-grid-line" d="M 525.5 47 L 525.5 345" opacity="1"></path></g><g class="highcharts-grid highcharts-yaxis-grid "><path fill="none" stroke="#e6e6e6" stroke-width="1" class="highcharts-grid-line" d="M 56 345.5 L 590 345.5" opacity="1"></path><path fill="none" stroke="#e6e6e6" stroke-width="1" class="highcharts-grid-line" d="M 56 295.5 L 590 295.5" opacity="1"></path><path fill="none" stroke="#e6e6e6" stroke-width="1" class="highcharts-grid-line" d="M 56 246.5 L 590 246.5" opacity="1"></path><path fill="none" stroke="#e6e6e6" stroke-width="1" class="highcharts-grid-line" d="M 56 196.5 L 590 196.5" opacity="1"></path><path fill="none" stroke="#e6e6e6" stroke-width="1" class="highcharts-grid-line" d="M 56 146.5 L 590 146.5" opacity="1"></path><path fill="none" stroke="#e6e6e6" stroke-width="1" class="highcharts-grid-line" d="M 56 97.5 L 590 97.5" opacity="1"></path><path fill="none" stroke="#e6e6e6" stroke-width="1" class="highcharts-grid-line" d="M 56 46.5 L 590 46.5" opacity="1"></path></g><rect fill="none" class="highcharts-plot-border" x="56" y="47" width="534" height="298"></rect><g class="highcharts-axis highcharts-xaxis "><path fill="none" class="highcharts-tick" stroke="#ccd6eb" stroke-width="1" d="M 172.5 345 L 172.5 355" opacity="1"></path><path fill="none" class="highcharts-tick" stroke="#ccd6eb" stroke-width="1" d="M 290.5 345 L 290.5 355" opacity="1"></path><path fill="none" class="highcharts-tick" stroke="#ccd6eb" stroke-width="1" d="M 407.5 345 L 407.5 355" opacity="1"></path><path fill="none" class="highcharts-tick" stroke="#ccd6eb" stroke-width="1" d="M 525.5 345 L 525.5 355" opacity="1"></path><text x="323" text-anchor="middle" transform="translate(0,0)" class="highcharts-axis-title" style="color:#666666;fill:#666666;" y="383"><tspan>Position (bp)</tspan></text><path fill="none" class="highcharts-axis-line" stroke="#ccd6eb" stroke-width="1" d="M 56 345.5 L 590 345.5"></path></g><g class="highcharts-axis highcharts-yaxis "><text x="24.0390625" text-anchor="middle" transform="translate(0,0) rotate(270 24.0390625 196)" class="highcharts-axis-title" style="color:#666666;fill:#666666;" y="196"><tspan>% of Sequences</tspan></text><path fill="none" class="highcharts-axis-line" d="M 56 47 L 56 345"></path></g><g class="highcharts-series-group"><g class="highcharts-series highcharts-series-0 highcharts-line-series highcharts-color-undefined " transform="translate(56,47) scale(1 1)" width="298" height="534" clip-path="url(#highcharts-9g19oj0-227)"><path fill="none" d="M 5.2352941176471 297.99843662724254 L 11.117647058824 297.99730752469554 L 17 297.9931385306757 L 22.882352941176 297.968298274641 L 28.764705882353 297.9599602866013 L 34.647058823529 297.9442397049849 L 40.529411764706 297.9379862139552 L 46.411764705882 297.9246106914749 L 52.294117647059 297.9066319047645 L 58.176470588235 297.86841612624943 L 69.941176470588 297.8204292680005 L 81.705882352941 297.7643649838381 L 93.470588235294 297.69952844142574 L 105.23529411765 297.6322599858351 L 117 297.57150558340044 L 128.76470588235 297.51279225095465 L 140.52941176471 297.45846504763387 L 152.29411764706 297.4039207092079 L 164.05882352941 297.3480301331297 L 175.82352941176 297.2949623134191 L 187.58823529412 297.24371842859216 L 199.35294117647 297.1912585871761 L 211.11764705882 297.13680110279216 L 222.88235294118 297.0749610248315 L 234.64705882353 297.0070411639253 L 246.41176470588 296.9428560268285 L 258.17647058824 296.8814067920572 L 269.94117647059 296.81891530878096 L 281.70588235294 296.75060460468535 L 293.47058823529 296.666182475784 L 305.23529411765 296.5767662394631 L 317 296.4834415712486 L 328.76470588235 296.38243032031005 L 340.52941176471 296.259010726515 L 352.29411764706 296.093076079122 L 364.05882352941 295.8963951008328 L 375.82352941176 295.7009300791327 L 387.58823529412 295.4848372224387 L 399.35294117647 295.1978280403868 L 411.11764705882 294.79955883043095 L 422.88235294118 294.30284056377786 L 434.64705882353 293.74892891041543 L 446.41176470588 293.159059683632 L 458.17647058824 292.4180209966091 L 469.94117647059 291.40122072598353 L 481.70588235294 290.03526720619817 L 493.47058823529 288.2682217200893 L 505.23529411765 286.072855525465 L 517 283.3733016165688 L 528.76470588235 280.85648861220807" class="highcharts-graph" stroke="rgb(228, 26, 28)" stroke-width="2" stroke-linejoin="round" stroke-linecap="round"></path></g><g class="highcharts-markers highcharts-series-0 highcharts-line-series highcharts-color-undefined " transform="translate(56,47) scale(1 1)" width="298" height="534" clip-path="none"></g><g class="highcharts-series highcharts-series-1 highcharts-line-series highcharts-color-undefined " transform="translate(56,47) scale(1 1)" width="298" height="534" clip-path="url(#highcharts-9g19oj0-227)"><path fill="none" d="M 5.2352941176471 297.71407649347407 L 11.117647058824 297.6039455681172 L 17 297.5263849085401 L 22.882352941176 297.4264159061065 L 28.764705882353 297.3087286790887 L 34.647058823529 297.21023619537044 L 40.529411764706 297.0837767101026 L 46.411764705882 296.8257333510842 L 52.294117647059 296.51175598896657 L 58.176470588235 296.1479244066952 L 69.941176470588 295.8805876651743 L 81.705882352941 295.55853287714325 L 93.470588235294 295.2484639469192 L 105.23529411765 294.9485135125974 L 117 294.63332019389065 L 128.76470588235 294.36785081427445 L 140.52941176471 294.0998192404169 L 152.29411764706 293.84755167519677 L 164.05882352941 293.5746562749827 L 175.82352941176 293.28747338484663 L 187.58823529412 292.9978151545113 L 199.35294117647 292.7185359822044 L 211.11764705882 292.4290080329322 L 222.88235294118 292.12024191333927 L 234.64705882353 291.8512115179978 L 246.41176470588 291.5963383315153 L 258.17647058824 291.33060838977286 L 269.94117647059 291.07703801392154 L 281.70588235294 290.8048374460442 L 293.47058823529 290.5354596345344 L 305.23529411765 290.25214174927083 L 317 289.9687370099652 L 328.76470588235 289.70092257121286 L 340.52941176471 289.4123500164035 L 352.29411764706 289.1325931468652 L 364.05882352941 288.86286791918707 L 375.82352941176 288.5759455911772 L 387.58823529412 288.2984034997119 L 399.35294117647 288.00687790747185 L 411.11764705882 287.6972432474582 L 422.88235294118 287.41092889774285 L 434.64705882353 287.14385271834817 L 446.41176470588 286.8694373723978 L 458.17647058824 286.56497052788785 L 469.94117647059 286.2654543637764 L 481.70588235294 285.96563421051775 L 493.47058823529 285.67645367741386 L 505.23529411765 285.3927449489609 L 517 285.1099916149709 L 528.76470588235 284.89242223956154" class="highcharts-graph" stroke="rgb(228, 26, 28)" stroke-width="2" stroke-linejoin="round" stroke-linecap="round"></path></g><g class="highcharts-markers highcharts-series-1 highcharts-line-series highcharts-color-undefined " transform="translate(56,47) scale(1 1)" width="298" height="534" clip-path="none"></g><g class="highcharts-series highcharts-series-2 highcharts-line-series highcharts-color-undefined " transform="translate(56,47) scale(1 1)" width="298" height="534" clip-path="url(#highcharts-9g19oj0-227)"><path fill="none" d="M 5.2352941176471 298 L 11.117647058824 298 L 17 297.96699546400976 L 22.882352941176 297.9482349909206 L 28.764705882353 297.9295613718735 L 34.647058823529 297.9081084234798 L 40.529411764706 297.88335502148715 L 46.411764705882 297.8474843021083 L 52.294117647059 297.7922451313457 L 58.176470588235 297.7304919074271 L 69.941176470588 297.66383143013104 L 81.705882352941 297.5981697743189 L 93.470588235294 297.5354177289164 L 105.23529411765 297.48091681751146 L 117 297.4284135490743 L 128.76470588235 297.3746508970271 L 140.52941176471 297.3193682992434 L 152.29411764706 297.261045809987 L 164.05882352941 297.18087952914755 L 175.82352941176 297.1036662857388 L 187.58823529412 297.0254976478672 L 199.35294117647 296.94398512937556 L 211.11764705882 296.8578259196326 L 222.88235294118 296.7707981694689 L 234.64705882353 296.67777749040164 L 246.41176470588 296.5829763034718 L 258.17647058824 296.48596033846894 L 269.94117647059 296.38230003924696 L 281.70588235294 296.2695634926277 L 293.47058823529 296.1209562266295 L 305.23529411765 295.9641412536549 L 317 295.7891303588645 L 328.76470588235 295.6702706022786 L 340.52941176471 295.539728977033 L 352.29411764706 295.4023258824632 L 364.05882352941 295.27330420295397 L 375.82352941176 295.1352062760474 L 387.58823529412 294.9795204056198 L 399.35294117647 294.7070592756162 L 411.11764705882 293.6024929954692 L 422.88235294118 293.0174007410002 L 434.64705882353 292.7742962772195 L 446.41176470588 292.5766164774464 L 458.17647058824 292.3973931616152 L 469.94117647059 292.2252050231925 L 481.70588235294 292.0377305733637 L 493.47058823529 291.853600004155 L 505.23529411765 291.66655982453665 L 517 291.4725713215519 L 528.76470588235 291.33047810870977" class="highcharts-graph" stroke="rgb(228, 26, 28)" stroke-width="2" stroke-linejoin="round" stroke-linecap="round"></path></g><g class="highcharts-markers highcharts-series-2 highcharts-line-series highcharts-color-undefined " transform="translate(56,47) scale(1 1)" width="298" height="534" clip-path="none"></g><g class="highcharts-series highcharts-series-3 highcharts-line-series highcharts-color-undefined " transform="translate(56,47) scale(1 1)" width="298" height="534" clip-path="url(#highcharts-9g19oj0-227)"><path fill="none" d="M 5.2352941176471 297.99843662724254 L 11.117647058824 297.9980023570322 L 17 297.99487561151733 L 22.882352941176 297.972727830787 L 28.764705882353 297.96491096699987 L 34.647058823529 297.95049319601463 L 40.529411764706 297.94502139136364 L 46.411764705882 297.93329609568286 L 52.294117647059 297.91662011960364 L 58.176470588235 297.881053389372 L 69.941176470588 297.8357155794065 L 81.705882352941 297.7800855654545 L 93.470588235294 297.71572672027355 L 105.23529411765 297.6494136591458 L 117 297.58822498650073 L 128.76470588235 297.52946822703393 L 140.52941176471 297.473925067124 L 152.29411764706 297.4182950531721 L 164.05882352941 297.3605805422102 L 175.82352941176 297.3051242363424 L 187.58823529412 297.25218669769487 L 199.35294117647 297.1976423592689 L 211.11764705882 297.139884421286 L 222.88235294118 297.07470046270527 L 234.64705882353 297.00278531586343 L 246.41176470588 296.93434433070473 L 258.17647058824 296.86924722616607 L 269.94117647059 296.8021524786596 L 281.70588235294 296.72698030523975 L 293.47058823529 296.63604412318244 L 305.23529411765 296.5392018662637 L 317 296.4378866261779 L 328.76470588235 296.3307087382517 L 340.52941176471 296.2006882372586 L 352.29411764706 296.02624189374177 L 364.05882352941 295.8240456837805 L 375.82352941176 295.6200255389356 L 387.58823529412 295.39607239143345 L 399.35294117647 295.10228859409926 L 411.11764705882 294.69607223929313 L 422.88235294118 294.19179767097916 L 434.64705882353 293.63458556401764 L 446.41176470588 293.0355098087738 L 458.17647058824 292.28409206372237 L 469.94117647059 291.25726015123666 L 481.70588235294 289.88474915127426 L 493.47058823529 288.1167482707025 L 505.23529411765 285.92238089756216 L 517 283.22443378844446 L 528.76470588235 280.71326629681886" class="highcharts-graph" stroke="rgb(228, 26, 28)" stroke-width="2" stroke-linejoin="round" stroke-linecap="round"></path></g><g class="highcharts-markers highcharts-series-3 highcharts-line-series highcharts-color-undefined " transform="translate(56,47) scale(1 1)" width="298" height="534" clip-path="none"></g><g class="highcharts-series highcharts-series-4 highcharts-line-series highcharts-color-undefined " transform="translate(56,47) scale(1 1)" width="298" height="534" clip-path="url(#highcharts-9g19oj0-227)"><path fill="none" d="M 5.2352941176471 297.70634648372896 L 11.117647058824 297.5723306968002 L 17 297.4430050281437 L 22.882352941176 297.23212341397453 L 28.764705882353 296.9681739800947 L 34.647058823529 296.74817269150714 L 40.529411764706 296.4701529028104 L 46.411764705882 296.0041809670535 L 52.294117647059 295.42182461491 L 58.176470588235 294.68773425125346 L 69.941176470588 293.89949039236035 L 81.705882352941 292.970238996151 L 93.470588235294 292.031477082334 L 105.23529411765 291.0835520670775 L 117 290.14344391560826 L 128.76470588235 289.261223983185 L 140.52941176471 288.31894448066373 L 152.29411764706 287.3949043269792 L 164.05882352941 286.4059842038612 L 175.82352941176 285.27662109470054 L 187.58823529412 284.1780911704781 L 199.35294117647 283.101709026986 L 211.11764705882 282.0280627858194 L 222.88235294118 281.01312987709855 L 234.64705882353 280.07514964966026 L 246.41176470588 279.1788593624201 L 258.17647058824 278.28000688093863 L 269.94117647059 277.3986120619151 L 281.70588235294 276.5762345644847 L 293.47058823529 275.6358658508892 L 305.23529411765 274.68720257627507 L 317 273.63205624607144 L 328.76470588235 272.52996530612376 L 340.52941176471 271.59506839717926 L 352.29411764706 270.65973721802436 L 364.05882352941 269.79110994318654 L 375.82352941176 268.9244803113166 L 387.58823529412 268.1438361811054 L 399.35294117647 267.3997576026097 L 411.11764705882 266.65654756453483 L 422.88235294118 265.947210602871 L 434.64705882353 265.25307309857106 L 446.41176470588 264.4842411180827 L 458.17647058824 263.7100241869854 L 469.94117647059 262.81681721823907 L 481.70588235294 262.0083363675414 L 493.47058823529 261.28853349380694 L 505.23529411765 260.58197586148964 L 517 259.9299625675983 L 528.76470588235 259.4785821109108" class="highcharts-graph" stroke="rgb(228, 26, 28)" stroke-width="2" stroke-linejoin="round" stroke-linecap="round"></path></g><g class="highcharts-markers highcharts-series-4 highcharts-line-series highcharts-color-undefined " transform="translate(56,47) scale(1 1)" width="298" height="534" clip-path="none"></g><g class="highcharts-series highcharts-series-5 highcharts-line-series highcharts-color-undefined " transform="translate(56,47) scale(1 1)" width="298" height="534" clip-path="url(#highcharts-9g19oj0-227)"><path fill="none" d="M 5.2352941176471 265.29128887708606 L 11.117647058824 264.6985968939351 L 17 264.679923274888 L 22.882352941176 264.66463696348194 L 28.764705882353 264.6445736797616 L 34.647058823529 264.62051511010554 L 40.529411764706 264.58863967666235 L 46.411764705882 264.5390460186349 L 52.294117647059 264.4719946981495 L 58.176470588235 264.3698543446639 L 69.941176470588 264.2447410970483 L 81.705882352941 264.15172041798104 L 93.470588235294 264.092703096388 L 105.23529411765 264.04180662772933 L 117 263.9939934775646 L 128.76470588235 263.94765684611514 L 140.52941176471 263.8964563883092 L 152.29411764706 263.8442136819983 L 164.05882352941 263.78493579827904 L 175.82352941176 263.730304605811 L 187.58823529412 263.66794340359786 L 199.35294117647 263.6008052290703 L 211.11764705882 263.5519064033795 L 222.88235294118 263.4962763894276 L 234.64705882353 263.434523165509 L 246.41176470588 263.37845888134666 L 258.17647058824 263.32334999164715 L 269.94117647059 263.265374918559 L 281.70588235294 263.2079209697234 L 293.47058823529 263.1462545998469 L 305.23529411765 263.0849356461387 L 317 263.01927399032655 L 328.76470588235 262.955349415356 L 340.52941176471 262.8885152299758 L 352.29411764706 262.81924913141734 L 364.05882352941 262.74972247073265 L 375.82352941176 262.6786758643115 L 387.58823529412 262.61201538701545 L 399.35294117647 262.54882907140257 L 411.11764705882 262.48273314538005 L 422.88235294118 262.4147264304317 L 434.64705882353 262.3412913378534 L 446.41176470588 262.2636003972133 L 458.17647058824 262.1809587761746 L 469.94117647059 262.077732747163 L 481.70588235294 261.96847036222687 L 493.47058823529 261.8626387119529 L 505.23529411765 261.74264985282 L 517 261.6177537403096 L 528.76470588235 261.5171333325604" class="highcharts-graph" stroke="rgb(228, 26, 28)" stroke-width="2" stroke-linejoin="round" stroke-linecap="round"></path></g><g class="highcharts-markers highcharts-series-5 highcharts-line-series highcharts-color-undefined " transform="translate(56,47) scale(1 1)" width="298" height="534" clip-path="none"></g><g class="highcharts-series highcharts-series-6 highcharts-line-series highcharts-color-undefined " transform="translate(56,47) scale(1 1)" width="298" height="534" clip-path="url(#highcharts-9g19oj0-227)"><path fill="none" d="M 5.2352941176471 297.99664203721846 L 11.117647058824 297.994505151812 L 17 297.98694973555354 L 22.882352941176 297.94604364348737 L 28.764705882353 297.9326117923611 L 34.647058823529 297.9103271302654 L 40.529411764706 297.9002532419207 L 46.411764705882 297.8836160626849 L 52.294117647059 297.86323933398774 L 58.176470588235 297.8110001175338 L 69.941176470588 297.7568911263493 L 81.705882352941 297.6917161214528 L 93.470588235294 297.611926346723 L 105.23529411765 297.52874045054364 L 117 297.4521560039235 L 128.76470588235 297.3751518119556 L 140.52941176471 297.30551224290645 L 152.29411764706 297.2362924192049 L 164.05882352941 297.16821735554254 L 175.82352941176 297.0967080117627 L 187.58823529412 297.025007874643 L 199.35294117647 296.94998793340966 L 211.11764705882 296.874090342813 L 222.88235294118 296.78716489717243 L 234.64705882353 296.69756834477374 L 246.41176470588 296.61919044075887 L 258.17647058824 296.53726378062265 L 269.94117647059 296.4623201567253 L 281.70588235294 296.37405915770563 L 293.47058823529 296.2716412928683 L 305.23529411765 296.1604469343974 L 317 296.04974863861014 L 328.76470588235 295.9359594907171 L 340.52941176471 295.79351318317697 L 352.29411764706 295.60081190991747 L 364.05882352941 295.3833075024761 L 375.82352941176 295.16698601374185 L 387.58823529412 294.93853006859246 L 399.35294117647 294.6445556905348 L 411.11764705882 294.24118041140093 L 422.88235294118 293.7312279726208 L 434.64705882353 293.17987337909085 L 446.41176470588 292.59085618027234 L 458.17647058824 291.8424883840021 L 469.94117647059 290.833267933474 L 481.70588235294 289.47409433897315 L 493.47058823529 287.7064322038301 L 505.23529411765 285.56618883460675 L 517 282.90446910887573 L 528.76470588235 280.44434162604165" class="highcharts-graph" stroke="rgb(228, 26, 28)" stroke-width="2" stroke-linejoin="round" stroke-linecap="round"></path></g><g class="highcharts-markers highcharts-series-6 highcharts-line-series highcharts-color-undefined " transform="translate(56,47) scale(1 1)" width="298" height="534" clip-path="none"></g><g class="highcharts-series highcharts-series-7 highcharts-line-series highcharts-color-undefined " transform="translate(56,47) scale(1 1)" width="298" height="534" clip-path="url(#highcharts-9g19oj0-227)"><path fill="none" d="M 5.2352941176471 297.72632603330356 L 11.117647058824 297.6327609794358 L 17 297.5723939667038 L 22.882352941176 297.4934055240014 L 28.764705882353 297.39709304603963 L 34.647058823529 297.3169598432981 L 40.529411764706 297.20950503428844 L 46.411764705882 296.96933437807155 L 52.294117647059 296.6959656807189 L 58.176470588235 296.3719222722992 L 69.941176470588 296.14804536730645 L 81.705882352941 295.8705555338128 L 93.470588235294 295.6004303232378 L 105.23529411765 295.3406842703512 L 117 295.07155118514345 L 128.76470588235 294.8369135357825 L 140.52941176471 294.6000245250113 L 152.29411764706 294.3819477375503 L 164.05882352941 294.13777042119636 L 175.82352941176 293.8809625857436 L 187.58823529412 293.61995729681394 L 199.35294117647 293.3795576885892 L 211.11764705882 293.12870260534015 L 222.88235294118 292.8694907738052 L 234.64705882353 292.6367610578429 L 246.41176470588 292.40944987273264 L 258.17647058824 292.1720266406098 L 269.94117647059 291.93288626842815 L 281.70588235294 291.688937904082 L 293.47058823529 291.4486909305292 L 305.23529411765 291.1971108325887 L 317 290.9446149266168 L 328.76470588235 290.7206998629561 L 340.52941176471 290.46496047020656 L 352.29411764706 290.2154409403365 L 364.05882352941 289.97668215483463 L 375.82352941176 289.71453210586577 L 387.58823529412 289.4608151225188 L 399.35294117647 289.21102848197296 L 411.11764705882 288.93060043104543 L 422.88235294118 288.67535710097957 L 434.64705882353 288.42988238991455 L 446.41176470588 288.1874603722873 L 458.17647058824 287.91493116563004 L 469.94117647059 287.64347040167604 L 481.70588235294 287.3818164153908 L 493.47058823529 287.1228716945316 L 505.23529411765 286.8754508914001 L 517 286.63295255643686 L 528.76470588235 286.43838150844675" class="highcharts-graph" stroke="rgb(228, 26, 28)" stroke-width="2" stroke-linejoin="round" stroke-linecap="round"></path></g><g class="highcharts-markers highcharts-series-7 highcharts-line-series highcharts-color-undefined " transform="translate(56,47) scale(1 1)" width="298" height="534" clip-path="none"></g><g class="highcharts-series highcharts-series-8 highcharts-line-series highcharts-color-undefined " transform="translate(56,47) scale(1 1)" width="298" height="534" clip-path="url(#highcharts-9g19oj0-227)"><path fill="none" d="M 5.2352941176471 298 L 11.117647058824 298 L 17 297.99015506366317 L 22.882352941176 297.9825996474047 L 28.764705882353 297.9717625857006 L 34.647058823529 297.95443855044124 L 40.529411764706 297.9347486777676 L 46.411764705882 297.89956638589723 L 52.294117647059 297.83950464250904 L 58.176470588235 297.7785652497575 L 69.941176470588 297.7077427620011 L 81.705882352941 297.6416519490733 L 93.470588235294 297.5824296963805 L 105.23529411765 297.52709962782086 L 117 297.47756967679294 L 128.76470588235 297.4263989030423 L 140.52941176471 297.3725951812015 L 152.29411764706 297.3131821351688 L 164.05882352941 297.23694111656044 L 175.82352941176 297.1687515768941 L 187.58823529412 297.0936553183249 L 199.35294117647 297.0151247796382 L 211.11764705882 296.9360218609319 L 222.88235294118 296.8424568070641 L 234.64705882353 296.74587721842653 L 246.41176470588 296.6552122233246 L 258.17647058824 296.5634787855195 L 269.94117647059 296.46770052890935 L 281.70588235294 296.37062487758817 L 293.47058823529 296.26389508327 L 305.23529411765 296.1581574143191 L 317 296.05001574928593 L 328.76470588235 295.9358068560452 L 340.52941176471 295.8231243095234 L 352.29411764706 295.70139815869214 L 364.05882352941 295.57700090110285 L 375.82352941176 295.4408126151102 L 387.58823529412 295.26623670913744 L 399.35294117647 295.0181290499824 L 411.11764705882 294.1650920274644 L 422.88235294118 293.92988199808394 L 434.64705882353 293.73057927526526 L 446.41176470588 293.5468452889792 L 458.17647058824 293.37890899123374 L 469.94117647059 293.18578797262654 L 481.70588235294 292.99720783550805 L 493.47058823529 292.80168282081866 L 505.23529411765 292.60005241925364 L 517 292.39590354560255 L 528.76470588235 292.2452149657804" class="highcharts-graph" stroke="rgb(228, 26, 28)" stroke-width="2" stroke-linejoin="round" stroke-linecap="round"></path></g><g class="highcharts-markers highcharts-series-8 highcharts-line-series highcharts-color-undefined " transform="translate(56,47) scale(1 1)" width="298" height="534" clip-path="none"></g><g class="highcharts-series highcharts-series-9 highcharts-line-series highcharts-color-undefined " transform="translate(56,47) scale(1 1)" width="298" height="534" clip-path="url(#highcharts-9g19oj0-227)"><path fill="none" d="M 5.2352941176471 297.9969473065622 L 11.117647058824 297.99557359451524 L 17 297.9895445249756 L 22.882352941176 297.9521490303629 L 28.764705882353 297.939632987268 L 34.647058823529 297.9203247012741 L 40.529411764706 297.9119297943202 L 46.411764705882 297.8969715964751 L 52.294117647059 297.87773962781716 L 58.176470588235 297.8281333594533 L 69.941176470588 297.77558887365564 L 81.705882352941 297.71125335945453 L 93.470588235294 297.63184517140445 L 105.23529411765 297.5486974338931 L 117 297.4718840352651 L 128.76470588235 297.3948416846293 L 140.52941176471 297.32234021548214 L 152.29411764706 297.24953347699125 L 164.05882352941 297.1795123212623 L 175.82352941176 297.1038055240055 L 187.58823529412 297.02943428012776 L 199.35294117647 296.9513234867887 L 211.11764705882 296.8732890107856 L 222.88235294118 296.78243322234385 L 234.64705882353 296.6870747110814 L 246.41176470588 296.60320195887857 L 258.17647058824 296.5165436239137 L 269.94117647059 296.4357235651487 L 281.70588235294 296.3402887365503 L 293.47058823529 296.23241418219294 L 305.23529411765 296.11427494615106 L 317 295.9952199020779 L 328.76470588235 295.873035847231 L 340.52941176471 295.72173672872134 L 352.29411764706 295.52106029385567 L 364.05882352941 295.29466491677675 L 375.82352941176 295.0688037610494 L 387.58823529412 294.82951075419595 L 399.35294117647 294.5256532811335 L 411.11764705882 294.1124712243308 L 422.88235294118 293.59351333990924 L 434.64705882353 293.0307874633236 L 446.41176470588 292.429521332086 L 458.17647058824 291.6687519687248 L 469.94117647059 290.64655757108613 L 481.70588235294 289.27067048001345 L 493.47058823529 287.4878593536855 L 505.23529411765 285.33265778661706 L 517 282.6562851323847 L 528.76470588235 280.18623639587787" class="highcharts-graph" stroke="rgb(228, 26, 28)" stroke-width="2" stroke-linejoin="round" stroke-linecap="round"></path></g><g class="highcharts-markers highcharts-series-9 highcharts-line-series highcharts-color-undefined " transform="translate(56,47) scale(1 1)" width="298" height="534" clip-path="none"></g><g class="highcharts-series highcharts-series-10 highcharts-line-series highcharts-color-undefined " transform="translate(56,47) scale(1 1)" width="298" height="534" clip-path="url(#highcharts-9g19oj0-227)"><path fill="none" d="M 5.2352941176471 297.7044229578875 L 11.117647058824 297.5910153966742 L 17 297.4846290303678 L 22.882352941176 297.3073438589691 L 28.764705882353 297.1015160039272 L 34.647058823529 296.9230097551533 L 40.529411764706 296.6873418217572 L 46.411764705882 296.28972850148716 L 52.294117647059 295.79038417240326 L 58.176470588235 295.1677110284333 L 69.941176470588 294.5165715181561 L 81.705882352941 293.7279463271752 L 93.470588235294 292.9305064838927 L 105.23529411765 292.1332192752821 L 117 291.32211862886555 L 128.76470588235 290.56260850154734 L 140.52941176471 289.7675344956791 L 152.29411764706 288.97635267394406 L 164.05882352941 288.1291157689579 L 175.82352941176 287.1488959060887 L 187.58823529412 286.2135887954227 L 199.35294117647 285.2791593341201 L 211.11764705882 284.33202303638274 L 222.88235294118 283.4520841529444 L 234.64705882353 282.64800470143473 L 246.41176470588 281.87086526951344 L 258.17647058824 281.0945653282875 L 269.94117647059 280.321775984515 L 281.70588235294 279.5962270716921 L 293.47058823529 278.77096955945785 L 305.23529411765 277.95929653302176 L 317 277.05299001001464 L 328.76470588235 276.11279858984824 L 340.52941176471 275.31829696399956 L 352.29411764706 274.5313507544094 L 364.05882352941 273.80984666039154 L 375.82352941176 273.0575103626521 L 387.58823529412 272.3946561413075 L 399.35294117647 271.76015381026616 L 411.11764705882 271.1292002353463 L 422.88235294118 270.523431381288 L 434.64705882353 269.92479819814054 L 446.41176470588 269.27823772802003 L 458.17647058824 268.61526903067147 L 469.94117647059 267.85675102872057 L 481.70588235294 267.17592407476104 L 493.47058823529 266.5813357104186 L 505.23529411765 265.98781578877936 L 517 265.4488627623404 L 528.76470588235 265.0602167290438" class="highcharts-graph" stroke="rgb(228, 26, 28)" stroke-width="2" stroke-linejoin="round" stroke-linecap="round"></path></g><g class="highcharts-markers highcharts-series-10 highcharts-line-series highcharts-color-undefined " transform="translate(56,47) scale(1 1)" width="298" height="534" clip-path="none"></g><g class="highcharts-series highcharts-series-11 highcharts-line-series highcharts-color-undefined " transform="translate(56,47) scale(1 1)" width="298" height="534" clip-path="url(#highcharts-9g19oj0-227)"><path fill="none" d="M 5.2352941176471 272.39393112661605 L 11.117647058824 271.9459483646227 L 17 271.9330507348481 L 22.882352941176 271.9204583744173 L 28.764705882353 271.90252380047036 L 34.647058823529 271.88443659185157 L 40.529411764706 271.8584886976305 L 46.411764705882 271.81849841359565 L 52.294117647059 271.75652873680883 L 58.176470588235 271.6754034087 L 69.941176470588 271.57241316384307 L 81.705882352941 271.49621030390267 L 93.470588235294 271.44007890331557 L 105.23529411765 271.3931437417098 L 117 271.35082577892865 L 128.76470588235 271.3074775321123 L 140.52941176471 271.2610765918581 L 152.29411764706 271.2116992755021 L 164.05882352941 271.1551862882353 L 175.82352941176 271.10844191996944 L 187.58823529412 271.052768423398 L 199.35294117647 270.9918671893144 L 211.11764705882 270.94603862907985 L 222.88235294118 270.9006679728609 L 234.64705882353 270.8450326349575 L 246.41176470588 270.7956934772695 L 258.17647058824 270.74234765944436 L 269.94117647059 270.689383428299 L 281.70588235294 270.639967953275 L 293.47058823529 270.58543921674277 L 305.23529411765 270.52766699343294 L 317 270.4716500688498 L 328.76470588235 270.41231334015305 L 340.52941176471 270.3504581393701 L 352.29411764706 270.2887937319271 L 364.05882352941 270.22621351645273 L 375.82352941176 270.16538859970507 L 387.58823529412 270.1091808817821 L 399.35294117647 270.0520191971598 L 411.11764705882 269.98932450568145 L 422.88235294118 269.92243236072625 L 434.64705882353 269.85630338913046 L 446.41176470588 269.78803753212827 L 458.17647058824 269.7032108132261 L 469.94117647059 269.59003220402064 L 481.70588235294 269.4860116751285 L 493.47058823529 269.375618648685 L 505.23529411765 269.2471002549547 L 517 269.1199937319394 L 528.76470588235 269.0221549072587" class="highcharts-graph" stroke="rgb(228, 26, 28)" stroke-width="2" stroke-linejoin="round" stroke-linecap="round"></path></g><g class="highcharts-markers highcharts-series-11 highcharts-line-series highcharts-color-undefined " transform="translate(56,47) scale(1 1)" width="298" height="534" clip-path="none"></g><g class="highcharts-series highcharts-series-12 highcharts-line-series highcharts-color-undefined " transform="translate(56,47) scale(1 1)" width="298" height="534" clip-path="url(#highcharts-9g19oj0-227)"><path fill="none" d="M 5.2352941176471 297.99875870244205 L 11.117647058824 297.99813805366307 L 17 297.99476881743425 L 22.882352941176 297.9750853847293 L 28.764705882353 297.9668396223799 L 34.647058823529 297.95070275412627 L 40.529411764706 297.94556023567185 L 46.411764705882 297.93447722176137 L 52.294117647059 297.92312821551707 L 58.176470588235 297.8896131814518 L 69.941176470588 297.85383721254885 L 81.705882352941 297.8103031339086 L 93.470588235294 297.7557303734135 L 105.23529411765 297.69965032302656 L 117 297.6484911308159 L 128.76470588235 297.59737627066085 L 140.52941176471 297.5499409711241 L 152.29411764706 297.4993137635811 L 164.05882352941 297.4501495138743 L 175.82352941176 297.39544375721226 L 187.58823529412 297.3407823326059 L 199.35294117647 297.28412596549566 L 211.11764705882 297.2213961067624 L 222.88235294118 297.1565826414141 L 234.64705882353 297.08494203949687 L 246.41176470588 297.018709948368 L 258.17647058824 296.9497736018449 L 269.94117647059 296.8813249079339 L 281.70588235294 296.8068027224 L 293.47058823529 296.7251874079634 L 305.23529411765 296.6308044615019 L 317 296.5357122021502 L 328.76470588235 296.4358320807891 L 340.52941176471 296.3145839086087 L 352.29411764706 296.1713027047743 L 364.05882352941 296.00053562644194 L 375.82352941176 295.8309211815563 L 387.58823529412 295.6486721008127 L 399.35294117647 295.4194310410888 L 411.11764705882 295.12750445468726 L 422.88235294118 294.759681389027 L 434.64705882353 294.3661457310944 L 446.41176470588 293.9226921785091 L 458.17647058824 293.3804668059538 L 469.94117647059 292.6693806334588 L 481.70588235294 291.7118525636508 L 493.47058823529 290.5030947345205 L 505.23529411765 288.98210623750475 L 517 287.09121106821357 L 528.76470588235 285.3177515143176" class="highcharts-graph" stroke="rgb(198, 77, 255)" stroke-width="2" stroke-linejoin="round" stroke-linecap="round"></path></g><g class="highcharts-markers highcharts-series-12 highcharts-line-series highcharts-color-undefined " transform="translate(56,47) scale(1 1)" width="298" height="534" clip-path="none"></g><g class="highcharts-series highcharts-series-13 highcharts-line-series highcharts-color-undefined " transform="translate(56,47) scale(1 1)" width="298" height="534" clip-path="url(#highcharts-9g19oj0-227)"><path fill="none" d="M 5.2352941176471 297.7116643101055 L 11.117647058824 297.5966669577706 L 17 297.5285729203047 L 22.882352941176 297.43458896234404 L 28.764705882353 297.335817142374 L 34.647058823529 297.24183318441334 L 40.529411764706 297.1301164041959 L 46.411764705882 296.8805269309324 L 52.294117647059 296.58305883757566 L 58.176470588235 296.2222845687624 L 69.941176470588 295.96249872270124 L 81.705882352941 295.6462338377524 L 93.470588235294 295.3354661277031 L 105.23529411765 295.0398599806834 L 117 294.7383576702632 L 128.76470588235 294.4611049942792 L 140.52941176471 294.1928960576461 L 152.29411764706 293.9364794478137 L 164.05882352941 293.6638816376721 L 175.82352941176 293.37519129133244 L 187.58823529412 293.0874319181613 L 199.35294117647 292.8200652905854 L 211.11764705882 292.53891139370484 L 222.88235294118 292.23621211778243 L 234.64705882353 291.95731915573964 L 246.41176470588 291.6864059637124 L 258.17647058824 291.4080893183929 L 269.94117647059 291.1379297713116 L 281.70588235294 290.86621860228274 L 293.47058823529 290.5907392085244 L 305.23529411765 290.31623511999015 L 317 290.0393814325069 L 328.76470588235 289.7545923070637 L 340.52941176471 289.4630203771074 L 352.29411764706 289.1827531213397 L 364.05882352941 288.9207950045521 L 375.82352941176 288.6393307832821 L 387.58823529412 288.3717868274836 L 399.35294117647 288.09453415149954 L 411.11764705882 287.7904162497966 L 422.88235294118 287.50757773480166 L 434.64705882353 287.2307240473184 L 446.41176470588 286.96300276329737 L 458.17647058824 286.67205148211997 L 469.94117647059 286.3722781218699 L 481.70588235294 286.07574100168165 L 493.47058823529 285.78740531178715 L 505.23529411765 285.49499107277364 L 517 285.20669971493476 L 528.76470588235 284.99155624890494" class="highcharts-graph" stroke="rgb(198, 77, 255)" stroke-width="2" stroke-linejoin="round" stroke-linecap="round"></path></g><g class="highcharts-markers highcharts-series-13 highcharts-line-series highcharts-color-undefined " transform="translate(56,47) scale(1 1)" width="298" height="534" clip-path="none"></g><g class="highcharts-series highcharts-series-14 highcharts-line-series highcharts-color-undefined " transform="translate(56,47) scale(1 1)" width="298" height="534" clip-path="url(#highcharts-9g19oj0-227)"><path fill="none" d="M 5.2352941176471 298 L 11.117647058824 298 L 17 297.97127282794406 L 22.882352941176 297.95522462380177 L 28.764705882353 297.9346545499839 L 34.647058823529 297.91080390404863 L 40.529411764706 297.876845549427 L 46.411764705882 297.8213418157634 L 52.294117647059 297.73852953582445 L 58.176470588235 297.6485354628715 L 69.941176470588 297.5550834895785 L 81.705882352941 297.4676606758528 L 93.470588235294 297.3836514304116 L 105.23529411765 297.3064693215391 L 117 297.2363803415694 L 128.76470588235 297.16704500654555 L 140.52941176471 297.09522707640576 L 152.29411764706 297.01498605569407 L 164.05882352941 296.91222435071626 L 175.82352941176 296.8100832945175 L 187.58823529412 296.7077205780405 L 199.35294117647 296.5932995424289 L 211.11764705882 296.4865479524434 L 222.88235294118 296.36569876876376 L 234.64705882353 296.2410370282989 L 246.41176470588 296.1134937042173 L 258.17647058824 295.98940828047586 L 269.94117647059 295.85982568183476 L 281.70588235294 295.7223076452338 L 293.47058823529 295.5811987121258 L 305.23529411765 295.4392918020163 L 317 295.2951682891247 L 328.76470588235 295.15636462291013 L 340.52941176471 294.9966362264326 L 352.29411764706 294.83690782995507 L 364.05882352941 294.6799280209273 L 375.82352941176 294.5181160178346 L 387.58823529412 294.34433435971863 L 399.35294117647 293.8152312756333 L 411.11764705882 290.5088135696983 L 422.88235294118 289.93050190385054 L 434.64705882353 289.684503327094 L 446.41176470588 289.4798665582513 L 458.17647058824 289.290524348605 L 469.94117647059 289.08681855293077 L 481.70588235294 288.8855066882612 L 493.47058823529 288.67648104590995 L 505.23529411765 288.4749031889065 L 517 288.2808617813622 L 528.76470588235 288.13186174235" class="highcharts-graph" stroke="rgb(198, 77, 255)" stroke-width="2" stroke-linejoin="round" stroke-linecap="round"></path></g><g class="highcharts-markers highcharts-series-14 highcharts-line-series highcharts-color-undefined " transform="translate(56,47) scale(1 1)" width="298" height="534" clip-path="none"></g><g class="highcharts-series highcharts-series-15 highcharts-line-series highcharts-color-undefined " transform="translate(56,47) scale(1 1)" width="298" height="534" clip-path="url(#highcharts-9g19oj0-227)"><path fill="none" d="M 5.2352941176471 297.9989360306646 L 11.117647058824 297.99849271010817 L 17 297.9957441226584 L 22.882352941176 297.97801130040165 L 28.764705882353 297.9705635150538 L 34.647058823529 297.95619992902584 L 40.529411764706 297.95185538757295 L 46.411764705882 297.94183634299793 L 52.294117647059 297.9317286343116 L 58.176470588235 297.9001198786389 L 69.941176470588 297.8657625355165 L 81.705882352941 297.82386874293496 L 93.470588235294 297.7701826235527 L 105.23529411765 297.714324233444 L 117 297.66267738862126 L 128.76470588235 297.6093459256841 L 140.52941176471 297.56004867981045 L 152.29411764706 297.5062738963169 L 164.05882352941 297.4549817079393 L 175.82352941176 297.39602007393563 L 187.58823529412 297.33630479498606 L 199.35294117647 297.27552554670115 L 211.11764705882 297.20880580296017 L 222.88235294118 297.13929313971374 L 234.64705882353 297.0646379580129 L 246.41176470588 296.9927756958175 L 258.17647058824 296.9169235486143 L 269.94117647059 296.8431550080263 L 281.70588235294 296.7629583193702 L 293.47058823529 296.67291991436167 L 305.23529411765 296.57064586199596 L 317 296.4671748441279 L 328.76470588235 296.3562117088564 L 340.52941176471 296.2283137283297 L 352.29411764706 296.0744371631969 L 364.05882352941 295.8930303915105 L 375.82352941176 295.71091430693383 L 387.58823529412 295.51758221227976 L 399.35294117647 295.2790314208711 L 411.11764705882 294.9767311334494 L 422.88235294118 294.59671675248757 L 434.64705882353 294.1892608290835 L 446.41176470588 293.7342809420313 L 458.17647058824 293.1803519067866 L 469.94117647059 292.4564094381554 L 481.70588235294 291.4861580683782 L 493.47058823529 290.2646769392787 L 505.23529411765 288.7297238447358 L 517 286.82490840997303 L 528.76470588235 285.0389915484417" class="highcharts-graph" stroke="rgb(198, 77, 255)" stroke-width="2" stroke-linejoin="round" stroke-linecap="round"></path></g><g class="highcharts-markers highcharts-series-15 highcharts-line-series highcharts-color-undefined " transform="translate(56,47) scale(1 1)" width="298" height="534" clip-path="none"></g><g class="highcharts-series highcharts-series-16 highcharts-line-series highcharts-color-undefined " transform="translate(56,47) scale(1 1)" width="298" height="534" clip-path="url(#highcharts-9g19oj0-227)"><path fill="none" d="M 5.2352941176471 297.6901189310636 L 11.117647058824 297.55933936692014 L 17 297.43973148079846 L 22.882352941176 297.25956600667007 L 28.764705882353 297.0247834399909 L 34.647058823529 296.8283037693863 L 40.529411764706 296.56878391565897 L 46.411764705882 296.1522399208483 L 52.294117647059 295.6335548698388 L 58.176470588235 294.9707019738821 L 69.941176470588 294.28439742049085 L 81.705882352941 293.456318953157 L 93.470588235294 292.6146305447411 L 105.23529411765 291.77076986559877 L 117 290.925978213288 L 128.76470588235 290.1200214417194 L 140.52941176471 289.2838302082031 L 152.29411764706 288.4663471021676 L 164.05882352941 287.59637484225226 L 175.82352941176 286.59371673980087 L 187.58823529412 285.64071053966836 L 199.35294117647 284.73842021119003 L 211.11764705882 283.84047442416465 L 222.88235294118 282.99111657012276 L 234.64705882353 282.2037792619238 L 246.41176470588 281.4447701372799 L 258.17647058824 280.6911251913687 L 269.94117647059 279.93167274616843 L 281.70588235294 279.2328665530862 L 293.47058823529 278.4686262458766 L 305.23529411765 277.70132702682764 L 317 276.8691256783191 L 328.76470588235 275.990331339331 L 340.52941176471 275.2552171926781 L 352.29411764706 274.502059899379 L 364.05882352941 273.78654052131975 L 375.82352941176 272.9336361028265 L 387.58823529412 272.07798309688343 L 399.35294117647 271.28670023573227 L 411.11764705882 270.55482232914125 L 422.88235294118 269.9624130695994 L 434.64705882353 269.39802166922317 L 446.41176470588 268.79949458600277 L 458.17647058824 268.1952486676045 L 469.94117647059 267.5363413245999 L 481.70588235294 266.9302777919204 L 493.47058823529 266.39221963259547 L 505.23529411765 265.8538954809366 L 517 265.33946630726876 L 528.76470588235 264.9711112569408" class="highcharts-graph" stroke="rgb(198, 77, 255)" stroke-width="2" stroke-linejoin="round" stroke-linecap="round"></path></g><g class="highcharts-markers highcharts-series-16 highcharts-line-series highcharts-color-undefined " transform="translate(56,47) scale(1 1)" width="298" height="534" clip-path="none"></g><g class="highcharts-series highcharts-series-17 highcharts-line-series highcharts-color-undefined " transform="translate(56,47) scale(1 1)" width="298" height="534" clip-path="url(#highcharts-9g19oj0-227)"><path fill="none" d="M 5.2352941176471 278.40345812408304 L 11.117647058824 278.06813045520823 L 17 278.0504862970628 L 22.882352941176 278.03816198559434 L 28.764705882353 278.02220244556327 L 34.647058823529 278.00012508185364 L 40.529411764706 277.97148657390903 L 46.411764705882 277.92343062559326 L 52.294117647059 277.8514353672309 L 58.176470588235 277.7511562573691 L 69.941176470588 277.626893505405 L 81.705882352941 277.53893870701165 L 93.470588235294 277.4667661204267 L 105.23529411765 277.404967234862 L 117 277.3495521653097 L 128.76470588235 277.2932947867002 L 140.52941176471 277.2378797171479 L 152.29411764706 277.17563751102676 L 164.05882352941 277.1098930725099 L 175.82352941176 277.0516407513966 L 187.58823529412 276.9875809309941 L 199.35294117647 276.916915634301 L 211.11764705882 276.86012627102383 L 222.88235294118 276.8026275948564 L 234.64705882353 276.73803578978624 L 246.41176470588 276.68062577773003 L 258.17647058824 276.6279149635719 L 269.94117647059 276.5685986731231 L 281.70588235294 276.5125186227362 L 293.47058823529 276.44837013822246 L 305.23529411765 276.3807637533687 L 317 276.3143543340172 L 328.76470588235 276.24457567843695 L 340.52941176471 276.17568366396955 L 352.29411764706 276.10342241327334 L 364.05882352941 276.0305405137982 L 375.82352941176 275.9581905989907 L 387.58823529412 275.8950617517567 L 399.35294117647 275.8303812825753 L 411.11764705882 275.76343987855614 L 422.88235294118 275.69543450520155 L 434.64705882353 275.62179896078044 L 446.41176470588 275.54585814946597 L 458.17647058824 275.4658387890325 L 469.94117647059 275.3600181722154 L 481.70588235294 275.2514933000042 L 493.47058823529 275.15094819780853 L 505.23529411765 275.0347538799713 L 517 274.91523465796087 L 528.76470588235 274.82781184423516" class="highcharts-graph" stroke="rgb(198, 77, 255)" stroke-width="2" stroke-linejoin="round" stroke-linecap="round"></path></g><g class="highcharts-markers highcharts-series-17 highcharts-line-series highcharts-color-undefined " transform="translate(56,47) scale(1 1)" width="298" height="534" clip-path="none"></g><g class="highcharts-series highcharts-series-18 highcharts-line-series highcharts-color-undefined " transform="translate(56,47) scale(1 1)" width="298" height="534" clip-path="url(#highcharts-9g19oj0-227)"><path fill="none" d="M 5.2352941176471 297.9967711395875 L 11.117647058824 297.9934131247585 L 17 297.9859867458097 L 22.882352941176 297.93929742424484 L 28.764705882353 297.92211988685034 L 34.647058823529 297.8911874040985 L 40.529411764706 297.87911146615573 L 46.411764705882 297.85805929626616 L 52.294117647059 297.8322929901744 L 58.176470588235 297.76542329103137 L 69.941176470588 297.68609019069606 L 81.705882352941 297.5887723378631 L 93.470588235294 297.4773443650275 L 105.23529411765 297.3581348385977 L 117 297.25077522988187 L 128.76470588235 297.1504868254694 L 140.52941176471 297.0557520609664 L 152.29411764706 296.96637720474826 L 164.05882352941 296.88165190752403 L 175.82352941176 296.79150212480687 L 187.58823529412 296.70319279252476 L 199.35294117647 296.61543236651283 L 211.11764705882 296.529254082103 L 222.88235294118 296.4334860822681 L 234.64705882353 296.33439235620824 L 246.41176470588 296.243984264658 L 258.17647058824 296.1537699047326 L 269.94117647059 296.07104650096414 L 281.70588235294 295.9688530689083 L 293.47058823529 295.8525172282457 L 305.23529411765 295.73049859325704 L 317 295.6036689562537 L 328.76470588235 295.4705430414461 L 340.52941176471 295.3116508205466 L 352.29411764706 295.11301132796916 L 364.05882352941 294.8702333135528 L 375.82352941176 294.6343004832109 L 387.58823529412 294.39003719300473 L 399.35294117647 294.066892842921 L 411.11764705882 293.6367440587668 L 422.88235294118 293.10407895651554 L 434.64705882353 292.5252411503654 L 446.41176470588 291.8997785998586 L 458.17647058824 291.12717688035394 L 469.94117647059 290.1168664572805 L 481.70588235294 288.7609711042564 L 493.47058823529 286.9941063979284 L 505.23529411765 284.86925793766574 L 517 282.24077183026026 L 528.76470588235 279.8194494069212" class="highcharts-graph" stroke="rgb(198, 77, 255)" stroke-width="2" stroke-linejoin="round" stroke-linecap="round"></path></g><g class="highcharts-markers highcharts-series-18 highcharts-line-series highcharts-color-undefined " transform="translate(56,47) scale(1 1)" width="298" height="534" clip-path="none"></g><g class="highcharts-series highcharts-series-19 highcharts-line-series highcharts-color-undefined " transform="translate(56,47) scale(1 1)" width="298" height="534" clip-path="url(#highcharts-9g19oj0-227)"><path fill="none" d="M 5.2352941176471 297.67879296616377 L 11.117647058824 297.5717885320933 L 17 297.5000432537274 L 22.882352941176 297.4074395370967 L 28.764705882353 297.30418058110473 L 34.647058823529 297.2111248240163 L 40.529411764706 297.100568643492 L 46.411764705882 296.84238896490797 L 52.294117647059 296.525896067274 L 58.176470588235 296.15819344349774 L 69.941176470588 295.89730152216714 L 81.705882352941 295.57212299002356 L 93.470588235294 295.2505930701461 L 105.23529411765 294.9594790153545 L 117 294.6451494541969 L 128.76470588235 294.36339909460156 L 140.52941176471 294.09075412136946 L 152.29411764706 293.83451175903286 L 164.05882352941 293.56186678580076 L 175.82352941176 293.2734003965474 L 187.58823529412 292.98151141525676 L 199.35294117647 292.70718743461015 L 211.11764705882 292.41420064077926 L 222.88235294118 292.10619964603023 L 234.64705882353 291.8268709317442 L 246.41176470588 291.5699182201169 L 258.17647058824 291.30708898253886 L 269.94117647059 291.0413537705895 L 281.70588235294 290.7714210401039 L 293.47058823529 290.50177890705544 L 305.23529411765 290.2151529682372 L 317 289.9268157334003 L 328.76470588235 289.6532021020445 L 340.52941176471 289.36586581393544 L 352.29411764706 289.0753652426222 L 364.05882352941 288.7994914089776 L 375.82352941176 288.51606204196776 L 387.58823529412 288.2393164160118 L 399.35294117647 287.9506562951336 L 411.11764705882 287.6411377359907 L 422.88235294118 287.3547055287972 L 434.64705882353 287.0893900687015 L 446.41176470588 286.8202322647149 L 458.17647058824 286.51481435829584 L 469.94117647059 286.2135293932048 L 481.70588235294 285.9153441341098 L 493.47058823529 285.62497271721304 L 505.23529411765 285.34577315734356 L 517 285.05197914840954 L 528.76470588235 284.8261849397629" class="highcharts-graph" stroke="rgb(198, 77, 255)" stroke-width="2" stroke-linejoin="round" stroke-linecap="round"></path></g><g class="highcharts-markers highcharts-series-19 highcharts-line-series highcharts-color-undefined " transform="translate(56,47) scale(1 1)" width="298" height="534" clip-path="none"></g><g class="highcharts-series highcharts-series-20 highcharts-line-series highcharts-color-undefined " transform="translate(56,47) scale(1 1)" width="298" height="534" clip-path="url(#highcharts-9g19oj0-227)"><path fill="none" d="M 5.2352941176471 298 L 11.117647058824 298 L 17 297.96732393262545 L 22.882352941176 297.9506630128969 L 28.764705882353 297.9310315415888 L 34.647058823529 297.91275619165407 L 40.529411764706 297.8877648120613 L 46.411764705882 297.85166615264944 L 52.294117647059 297.7960651763461 L 58.176470588235 297.7370093194013 L 69.941176470588 297.6713020100068 L 81.705882352941 297.60998595077325 L 93.470588235294 297.549251086414 L 105.23529411765 297.4938438417354 L 117 297.4436027737168 L 128.76470588235 297.39100463759706 L 140.52941176471 297.3388262533309 L 152.29411764706 297.2806421886975 L 164.05882352941 297.19988838978077 L 175.82352941176 297.13033873649533 L 187.58823529412 297.05226489172094 L 199.35294117647 296.97322238882276 L 211.11764705882 296.89108017992857 L 222.88235294118 296.80322288810424 L 234.64705882353 296.70906931847554 L 246.41176470588 296.618047743447 L 258.17647058824 296.5227640726739 L 269.94117647059 296.4234766149893 L 281.70588235294 296.32228412966134 L 293.47058823529 296.21582860186095 L 305.23529411765 296.105336998545 L 317 295.99752534937136 L 328.76470588235 295.88722747768014 L 340.52941176471 295.76579003756575 L 352.29411764706 295.6405102535605 L 364.05882352941 295.5069968755033 L 375.82352941176 295.3634094529591 L 387.58823529412 295.1843691430856 L 399.35294117647 294.9274487200624 L 411.11764705882 294.1366685164353 L 422.88235294118 293.85407865313266 L 434.64705882353 293.63655032714206 L 446.41176470588 293.4333904299871 L 458.17647058824 293.2417252759007 L 469.94117647059 293.0258759573246 L 481.70588235294 292.80030776890686 L 493.47058823529 292.5615012527978 L 505.23529411765 292.3203376685877 L 517 292.0716831282205 L 528.76470588235 291.88718604424986" class="highcharts-graph" stroke="rgb(198, 77, 255)" stroke-width="2" stroke-linejoin="round" stroke-linecap="round"></path></g><g class="highcharts-markers highcharts-series-20 highcharts-line-series highcharts-color-undefined " transform="translate(56,47) scale(1 1)" width="298" height="534" clip-path="none"></g><g class="highcharts-series highcharts-series-21 highcharts-line-series highcharts-color-undefined " transform="translate(56,47) scale(1 1)" width="298" height="534" clip-path="url(#highcharts-9g19oj0-227)"><path fill="none" d="M 5.2352941176471 297.99735233446177 L 11.117647058824 297.99502755496474 L 17 297.9894739150552 L 22.882352941176 297.9474341524844 L 28.764705882353 297.93180646808787 L 34.647058823529 297.9053298127053 L 40.529411764706 297.8943516873028 L 46.411764705882 297.87543056528546 L 52.294117647059 297.85218277031544 L 58.176470588235 297.7886065087932 L 69.941176470588 297.71276057770336 L 81.705882352941 297.61779979297154 L 93.470588235294 297.50637182013594 L 105.23529411765 297.3870008506855 L 117 297.27970581917793 L 128.76470588235 297.17851333384993 L 140.52941176471 297.0802914001015 L 152.29411764706 296.9860409646604 L 164.05882352941 296.8964723768175 L 175.82352941176 296.80280313625065 L 187.58823529412 296.70958593614154 L 199.35294117647 296.6156583867417 L 211.11764705882 296.52324840173577 L 222.88235294118 296.42124870130465 L 234.64705882353 296.3139859584012 L 246.41176470588 296.21699099160946 L 258.17647058824 296.1181555743826 L 269.94117647059 296.0264236500633 L 281.70588235294 295.9143499051452 L 293.47058823529 295.78832748324504 L 305.23529411765 295.6555890316869 L 317 295.52023520319455 L 328.76470588235 295.37609887438026 L 340.52941176471 295.20735862922265 L 352.29411764706 294.99641717847356 L 364.05882352941 294.742757904467 L 375.82352941176 294.49613754615973 L 387.58823529412 294.2428334467985 L 399.35294117647 293.90867868270817 L 411.11764705882 293.46965053241956 L 422.88235294118 292.92516780105854 L 434.64705882353 292.3344154999862 L 446.41176470588 291.6958437762047 L 458.17647058824 290.9127805489635 L 469.94117647059 289.893687625568 L 481.70588235294 288.52894519501365 L 493.47058823529 286.75642998296377 L 505.23529411765 284.62806206485146 L 517 281.9951201300767 L 528.76470588235 279.5756704457769" class="highcharts-graph" stroke="rgb(198, 77, 255)" stroke-width="2" stroke-linejoin="round" stroke-linecap="round"></path></g><g class="highcharts-markers highcharts-series-21 highcharts-line-series highcharts-color-undefined " transform="translate(56,47) scale(1 1)" width="298" height="534" clip-path="none"></g><g class="highcharts-series highcharts-series-22 highcharts-line-series highcharts-color-undefined " transform="translate(56,47) scale(1 1)" width="298" height="534" clip-path="url(#highcharts-9g19oj0-227)"><path fill="none" d="M 5.2352941176471 297.65644925210927 L 11.117647058824 297.5318798173947 L 17 297.42991240556773 L 22.882352941176 297.26543425615466 L 28.764705882353 297.0660844142865 L 34.647058823529 296.89359869105033 L 40.529411764706 296.6708718997956 L 46.411764705882 296.27236594768397 L 52.294117647059 295.7856475291027 L 58.176470588235 295.1861773049166 L 69.941176470588 294.6049824306653 L 81.705882352941 293.89682876499427 L 93.470588235294 293.1773417992753 L 105.23529411765 292.4859459191452 L 117 291.78347504780015 L 128.76470588235 291.11884642048966 L 140.52941176471 290.42657874804814 L 152.29411764706 289.7314373898395 L 164.05882352941 288.99822776736744 L 175.82352941176 288.17389970405435 L 187.58823529412 287.3788251160786 L 199.35294117647 286.6011540857263 L 211.11764705882 285.83197495825885 L 222.88235294118 285.1020587734075 L 234.64705882353 284.4457606059613 L 246.41176470588 283.8044766394333 L 258.17647058824 283.1698118367509 L 269.94117647059 282.5406683853739 L 281.70588235294 281.92547361097894 L 293.47058823529 281.23953450494594 L 305.23529411765 280.5509800219788 L 317 279.81195845076417 L 328.76470588235 279.0300899018756 L 340.52941176471 278.34347273515596 L 352.29411764706 277.6788763964496 L 364.05882352941 277.0587091770194 L 375.82352941176 276.4151327195985 L 387.58823529412 275.8448836821456 L 399.35294117647 275.28793754959224 L 411.11764705882 274.7269876301274 L 422.88235294118 274.2023623903033 L 434.64705882353 273.6811920311205 L 446.41176470588 273.1254405769198 L 458.17647058824 272.5436322191901 L 469.94117647059 271.8883027098677 L 481.70588235294 271.283504866001 L 493.47058823529 270.753745738121 L 505.23529411765 270.2293788071298 L 517 269.74017416603084 L 528.76470588235 269.38551613832107" class="highcharts-graph" stroke="rgb(198, 77, 255)" stroke-width="2" stroke-linejoin="round" stroke-linecap="round"></path></g><g class="highcharts-markers highcharts-series-22 highcharts-line-series highcharts-color-undefined " transform="translate(56,47) scale(1 1)" width="298" height="534" clip-path="none"></g><g class="highcharts-series highcharts-series-23 highcharts-line-series highcharts-color-undefined " transform="translate(56,47) scale(1 1)" width="298" height="534" clip-path="url(#highcharts-9g19oj0-227)"><path fill="none" d="M 5.2352941176471 279.2650540740937 L 11.117647058824 278.9327397604385 L 17 278.9162725723347 L 22.882352941176 278.90348628510117 L 28.764705882353 278.88656705653966 L 34.647058823529 278.8639650336521 L 40.529411764706 278.8395548489335 L 46.411764705882 278.79732135473796 L 52.294117647059 278.7405579886861 L 58.176470588235 278.6635173792437 L 69.941176470588 278.56309982041466 L 81.705882352941 278.4884808562816 L 93.470588235294 278.4289083816709 L 105.23529411765 278.3793453743389 L 117 278.3352714297082 L 128.76470588235 278.29029340416196 L 140.52941176471 278.2454768216364 L 152.29411764706 278.1930078399331 L 164.05882352941 278.13262815021926 L 175.82352941176 278.083517183345 L 187.58823529412 278.0246227694209 L 199.35294117647 277.957268741216 L 211.11764705882 277.90560697461586 L 222.88235294118 277.8534608789539 L 234.64705882353 277.7932426322606 L 246.41176470588 277.74074136195327 L 258.17647058824 277.686464218419 L 269.94117647059 277.6316704572188 L 281.70588235294 277.5771027162474 L 293.47058823529 277.518660342781 L 305.23529411765 277.46134807045905 L 317 277.4013558439946 L 328.76470588235 277.3364880383074 L 340.52941176471 277.2697152049767 L 352.29411764706 277.20071445796145 L 364.05882352941 277.1309064958431 L 375.82352941176 277.06058191605865 L 387.58823529412 276.99739311778586 L 399.35294117647 276.93568959530285 L 411.11764705882 276.8687876075557 L 422.88235294118 276.79888277962493 L 434.64705882353 276.72807387077864 L 446.41176470588 276.648127286965 L 458.17647058824 276.55003450763303 L 469.94117647059 276.4224299441307 L 481.70588235294 276.2993780738101 L 493.47058823529 276.1748732163038 L 505.23529411765 276.02573215385013 L 517 275.8639339585794 L 528.76470588235 275.739913430135" class="highcharts-graph" stroke="rgb(198, 77, 255)" stroke-width="2" stroke-linejoin="round" stroke-linecap="round"></path></g><g class="highcharts-markers highcharts-series-23 highcharts-line-series highcharts-color-undefined " transform="translate(56,47) scale(1 1)" width="298" height="534" clip-path="none"></g><g class="highcharts-series highcharts-series-24 highcharts-line-series highcharts-color-undefined " transform="translate(56,47) scale(1 1)" width="298" height="534" clip-path="url(#highcharts-9g19oj0-227)"><path fill="none" d="M 5.2352941176471 297.99674067298207 L 11.117647058824 297.99404818544554 L 17 297.98738782153936 L 22.882352941176 297.9419698080939 L 28.764705882353 297.92666514209674 L 34.647058823529 297.8986065877685 L 40.529411764706 297.88656124878923 L 46.411764705882 297.86700528668166 L 52.294117647059 297.84574880613 L 58.176470588235 297.7837861653219 L 69.941176470588 297.71006160527514 L 81.705882352941 297.6257088049526 L 93.470588235294 297.5301254974052 L 105.23529411765 297.4324519692703 L 117 297.3401634162084 L 128.76470588235 297.25216158672447 L 140.52941176471 297.17025328166534 L 152.29411764706 297.09319853966554 L 164.05882352941 297.0189071401374 L 175.82352941176 296.93756567455966 L 187.58823529412 296.8536380038481 L 199.35294117647 296.7684703717711 L 211.11764705882 296.6778823371534 L 222.88235294118 296.58548750168876 L 234.64705882353 296.48717627913726 L 246.41176470588 296.3924432308119 L 258.17647058824 296.29799360222734 L 269.94117647059 296.20212687493927 L 281.70588235294 296.0951359228292 L 293.47058823529 295.9804926377205 L 305.23529411765 295.85773646253455 L 317 295.73267750195555 L 328.76470588235 295.5973445757765 L 340.52941176471 295.4375666969631 L 352.29411764706 295.24012942010563 L 364.05882352941 295.01743235885925 L 375.82352941176 294.79987228041284 L 387.58823529412 294.56449218577063 L 399.35294117647 294.2747309283837 L 411.11764705882 293.87982094720115 L 422.88235294118 293.4014438523857 L 434.64705882353 292.88668274835925 L 446.41176470588 292.31856787814814 L 458.17647058824 291.61437610493874 L 469.94117647059 290.6587555942706 L 481.70588235294 289.4142949403727 L 493.47058823529 287.81446135911847 L 505.23529411765 285.82021378122784 L 517 283.3550643041824 L 528.76470588235 281.07984148086626" class="highcharts-graph" stroke="rgb(102, 115, 143)" stroke-width="2" stroke-linejoin="round" stroke-linecap="round"></path></g><g class="highcharts-markers highcharts-series-24 highcharts-line-series highcharts-color-undefined " transform="translate(56,47) scale(1 1)" width="298" height="534" clip-path="none"></g><g class="highcharts-series highcharts-series-25 highcharts-line-series highcharts-color-undefined " transform="translate(56,47) scale(1 1)" width="298" height="534" clip-path="url(#highcharts-9g19oj0-227)"><path fill="none" d="M 5.2352941176471 297.6851206680945 L 11.117647058824 297.5692728490879 L 17 297.4906947259818 L 22.882352941176 297.37775195931727 L 28.764705882353 297.2563774553672 L 34.647058823529 297.1517247161178 L 40.529411764706 297.01214049382844 L 46.411764705882 296.7344600028884 L 52.294117647059 296.38776680509056 L 58.176470588235 295.9939196479356 L 69.941176470588 295.72077387284656 L 81.705882352941 295.38842879942115 L 93.470588235294 295.04481779130333 L 105.23529411765 294.725297461144 L 117 294.4099929996275 L 128.76470588235 294.1216842684116 L 140.52941176471 293.8369891388895 L 152.29411764706 293.5694054762115 L 164.05882352941 293.276526601677 L 175.82352941176 292.9730903418018 L 187.58823529412 292.66256858840944 L 199.35294117647 292.3729844683604 L 211.11764705882 292.08456945474177 L 222.88235294118 291.766466223286 L 234.64705882353 291.4726308071266 L 246.41176470588 291.18403865617006 L 258.17647058824 290.89810356528244 L 269.94117647059 290.6101136812748 L 281.70588235294 290.33101609163134 L 293.47058823529 290.0429553526885 L 305.23529411765 289.7463565940575 L 317 289.45737474095745 L 328.76470588235 289.1781354414436 L 340.52941176471 288.88748849736703 L 352.29411764706 288.58298941346425 L 364.05882352941 288.2964166281601 L 375.82352941176 287.9835212344394 L 387.58823529412 287.68348601145254 L 399.35294117647 287.3851867343774 L 411.11764705882 287.0638241759036 L 422.88235294118 286.7659500284395 L 434.64705882353 286.4805817770332 L 446.41176470588 286.1987562723856 L 458.17647058824 285.901519819338 L 469.94117647059 285.5917420427649 L 481.70588235294 285.2777129700815 L 493.47058823529 284.9818936157373 L 505.23529411765 284.69021927510073 L 517 284.3931953868587 L 528.76470588235 284.1594095282578" class="highcharts-graph" stroke="rgb(102, 115, 143)" stroke-width="2" stroke-linejoin="round" stroke-linecap="round"></path></g><g class="highcharts-markers highcharts-series-25 highcharts-line-series highcharts-color-undefined " transform="translate(56,47) scale(1 1)" width="298" height="534" clip-path="none"></g><g class="highcharts-series highcharts-series-26 highcharts-line-series highcharts-color-undefined " transform="translate(56,47) scale(1 1)" width="298" height="534" clip-path="url(#highcharts-9g19oj0-227)"><path fill="none" d="M 5.2352941176471 298 L 11.117647058824 298 L 17 297.98405763958624 L 22.882352941176 297.9720831555421 L 28.764705882353 297.95578652045253 L 34.647058823529 297.9380019317243 L 40.529411764706 297.9124941550623 L 46.411764705882 297.8726028265603 L 52.294117647059 297.80869167503494 L 58.176470588235 297.7377304574599 L 69.941176470588 297.6561409996091 L 81.705882352941 297.58337298118715 L 93.470588235294 297.5090815816591 L 105.23529411765 297.44711894085094 L 117 297.3903995652455 L 128.76470588235 297.33031458021946 L 140.52941176471 297.27054844240166 L 152.29411764706 297.2030591166501 L 164.05882352941 297.1196274304848 L 175.82352941176 297.0379316902312 L 187.58823529412 296.95265777575133 L 199.35294117647 296.8634868398371 L 211.11764705882 296.77190683612696 L 222.88235294118 296.6673603792803 L 234.64705882353 296.55530329930536 L 246.41176470588 296.4441319060201 L 258.17647058824 296.3346964586466 L 269.94117647059 296.2246233168565 L 281.70588235294 296.1088109253174 L 293.47058823529 295.98587761279356 L 305.23529411765 295.86025181273317 L 317 295.7365036684548 L 328.76470588235 295.6101338915751 L 340.52941176471 295.47607635422924 L 352.29411764706 295.34113313019367 L 364.05882352941 295.1996003971871 L 375.82352941176 295.0493170796867 L 387.58823529412 294.8569105032265 L 399.35294117647 294.4621068044467 L 411.11764705882 292.7490116093196 L 422.88235294118 292.42690507402654 L 434.64705882353 292.194890588805 L 446.41176470588 291.9985161359751 L 458.17647058824 291.81128196978244 L 469.94117647059 291.5907814115264 L 481.70588235294 291.3603611623462 L 493.47058823529 291.129090653944 L 505.23529411765 290.89572992495414 L 517 290.66516796590366 L 528.76470588235 290.48803062797305" class="highcharts-graph" stroke="rgb(102, 115, 143)" stroke-width="2" stroke-linejoin="round" stroke-linecap="round"></path></g><g class="highcharts-markers highcharts-series-26 highcharts-line-series highcharts-color-undefined " transform="translate(56,47) scale(1 1)" width="298" height="534" clip-path="none"></g><g class="highcharts-series highcharts-series-27 highcharts-line-series highcharts-color-undefined " transform="translate(56,47) scale(1 1)" width="298" height="534" clip-path="url(#highcharts-9g19oj0-227)"><path fill="none" d="M 5.2352941176471 297.99730751246346 L 11.117647058824 297.99574870388966 L 17 297.9906471485573 L 22.882352941176 297.9499055608332 L 28.764705882353 297.93587628366913 L 34.647058823529 297.9106519267478 L 40.529411764706 297.900448816083 L 46.411764705882 297.8830185020306 L 52.294117647059 297.8631791201824 L 58.176470588235 297.8051843557439 L 69.941176470588 297.7346836952475 L 81.705882352941 297.6514291464201 L 93.470588235294 297.55683780796517 L 105.23529411765 297.4594122721033 L 117 297.3654586280649 L 128.76470588235 297.2754728603961 L 140.52941176471 297.19023437338393 L 152.29411764706 297.1084323507275 L 164.05882352941 297.0281182817098 L 175.82352941176 296.9416398333321 L 187.58823529412 296.8518666304688 L 199.35294117647 296.76085346624006 L 211.11764705882 296.66356964024857 L 222.88235294118 296.56511670782675 L 234.64705882353 296.45805490078146 L 246.41176470588 296.3532958791293 L 258.17647058824 296.24874942228263 L 269.94117647059 296.14239616458906 L 281.70588235294 296.02470611726795 L 293.47058823529 295.8984780502586 L 305.23529411765 295.7648810699913 L 317 295.6275996330951 L 328.76470588235 295.480717352483 L 340.52941176471 295.30963811150957 L 352.29411764706 295.0995532287239 L 364.05882352941 294.8640668516789 L 375.82352941176 294.63378831236906 L 387.58823529412 294.3857606117986 L 399.35294117647 294.0824306343262 L 411.11764705882 293.67345594851196 L 422.88235294118 293.1800221799724 L 434.64705882353 292.65328659190186 L 446.41176470588 292.0697607732908 L 458.17647058824 291.35037061648694 L 469.94117647059 290.38064997371947 L 481.70588235294 289.1214869207734 L 493.47058823529 287.50369161345293 L 505.23529411765 285.4923325687182 L 517 283.01024876216667 L 528.76470588235 280.7300306659208" class="highcharts-graph" stroke="rgb(102, 115, 143)" stroke-width="2" stroke-linejoin="round" stroke-linecap="round"></path></g><g class="highcharts-markers highcharts-series-27 highcharts-line-series highcharts-color-undefined " transform="translate(56,47) scale(1 1)" width="298" height="534" clip-path="none"></g><g class="highcharts-series highcharts-series-28 highcharts-line-series highcharts-color-undefined " transform="translate(56,47) scale(1 1)" width="298" height="534" clip-path="url(#highcharts-9g19oj0-227)"><path fill="none" d="M 5.2352941176471 297.66124255494145 L 11.117647058824 297.51294317562594 L 17 297.3542989757753 L 22.882352941176 297.07605164535386 L 28.764705882353 296.7521028817463 L 34.647058823529 296.47796513756487 L 40.529411764706 296.11256623688155 L 46.411764705882 295.5401292156249 L 52.294117647059 294.8364688544293 L 58.176470588235 293.9430589768424 L 69.941176470588 292.952188135926 L 81.705882352941 291.75158668689977 L 93.470588235294 290.53536172466806 L 105.23529411765 289.3093587813826 L 117 288.10808421047227 L 128.76470588235 286.9336636599922 L 140.52941176471 285.7098926471646 L 152.29411764706 284.4826143150461 L 164.05882352941 283.18536673444487 L 175.82352941176 281.6995033164152 L 187.58823529412 280.2788972936791 L 199.35294117647 278.88309049825335 L 211.11764705882 277.50620197051853 L 222.88235294118 276.2323365185242 L 234.64705882353 275.0495905131614 L 246.41176470588 273.9009965865516 L 258.17647058824 272.7777687267335 L 269.94117647059 271.6695266857043 L 281.70588235294 270.6526875110473 L 293.47058823529 269.4861672858389 L 305.23529411765 268.31791111471887 L 317 267.02760731776453 L 328.76470588235 265.6539072621125 L 340.52941176471 264.5251172898834 L 352.29411764706 263.40238541461144 L 364.05882352941 262.37077298597103 L 375.82352941176 261.3129442313169 L 387.58823529412 260.3664285798184 L 399.35294117647 259.4484320397267 L 411.11764705882 258.57121251482664 L 422.88235294118 257.74819701533335 L 434.64705882353 256.9305664909131 L 446.41176470588 256.0206474134311 L 458.17647058824 255.12801694013106 L 469.94117647059 254.08722879738585 L 481.70588235294 253.1555218273383 L 493.47058823529 252.3412569123388 L 505.23529411765 251.5287987981862 L 517 250.7828380406927 L 528.76470588235 250.25263056079874" class="highcharts-graph" stroke="rgb(102, 115, 143)" stroke-width="2" stroke-linejoin="round" stroke-linecap="round"></path></g><g class="highcharts-markers highcharts-series-28 highcharts-line-series highcharts-color-undefined " transform="translate(56,47) scale(1 1)" width="298" height="534" clip-path="none"></g><g class="highcharts-series highcharts-series-29 highcharts-line-series highcharts-color-undefined " transform="translate(56,47) scale(1 1)" width="298" height="534" clip-path="url(#highcharts-9g19oj0-227)"><path fill="none" d="M 5.2352941176471 259.2254869862072 L 11.117647058824 258.5668903637811 L 17 258.5474761115439 L 22.882352941176 258.53252572022257 L 28.764705882353 258.5066636688847 L 34.647058823529 258.48264384586133 L 40.529411764706 258.4507591250338 L 46.411764705882 258.4013732352187 L 52.294117647059 258.32867607173205 L 58.176470588235 258.2222519591033 L 69.941176470588 258.0779913110926 L 81.705882352941 257.98102633230934 L 93.470588235294 257.9190991189688 L 105.23529411765 257.86631219226547 L 117 257.81809540888077 L 128.76470588235 257.76920550361194 L 140.52941176471 257.71769396574166 L 152.29411764706 257.66214369656666 L 164.05882352941 257.6057785956371 L 175.82352941176 257.55260196679035 L 187.58823529412 257.492198134556 L 199.35294117647 257.4213786268513 L 211.11764705882 257.3694419593701 L 222.88235294118 257.3119786069454 L 234.64705882353 257.24930741678554 L 246.41176470588 257.18978927124084 L 258.17647058824 257.13282190336236 L 269.94117647059 257.07185123164663 L 281.70588235294 257.01396274961087 L 293.47058823529 256.9478196676276 L 305.23529411765 256.8808263264222 L 317 256.8109633603424 L 328.76470588235 256.74102953932737 L 340.52941176471 256.67240653461306 L 352.29411764706 256.5994968063208 L 364.05882352941 256.5220877896451 L 375.82352941176 256.44559988712666 L 387.58823529412 256.37750829442615 L 399.35294117647 256.30807045795734 L 411.11764705882 256.2344876077809 L 422.88235294118 256.16033791812316 L 434.64705882353 256.08409800787786 L 446.41176470588 256.00240226762423 L 458.17647058824 255.90834234118307 L 469.94117647059 255.77765041325785 L 481.70588235294 255.65188290332708 L 493.47058823529 255.52487543203083 L 505.23529411765 255.37785144154842 L 517 255.22604474294187 L 528.76470588235 255.10413882697802" class="highcharts-graph" stroke="rgb(102, 115, 143)" stroke-width="2" stroke-linejoin="round" stroke-linecap="round"></path></g><g class="highcharts-markers highcharts-series-29 highcharts-line-series highcharts-color-undefined " transform="translate(56,47) scale(1 1)" width="298" height="534" clip-path="none"></g><g class="highcharts-series highcharts-series-30 highcharts-line-series highcharts-color-undefined " transform="translate(56,47) scale(1 1)" width="298" height="534" clip-path="url(#highcharts-9g19oj0-227)"><path fill="none" d="M 5.2352941176471 297.9966287315074 L 11.117647058824 297.9940843779282 L 17 297.9882959735353 L 22.882352941176 297.9521025438699 L 28.764705882353 297.93728168427054 L 34.647058823529 297.91247423687247 L 40.529411764706 297.9028693021107 L 46.411764705882 297.883659432587 L 52.294117647059 297.860442206176 L 58.176470588235 297.8020492915314 L 69.941176470588 297.7369138399016 L 81.705882352941 297.6552082855867 L 93.470588235294 297.56227577110315 L 105.23529411765 297.4688661903235 L 117 297.3838847807753 L 128.76470588235 297.29756758559796 L 140.52941176471 297.21433541913547 L 152.29411764706 297.1385772913122 L 164.05882352941 297.06329622978495 L 175.82352941176 296.9821313506057 L 187.58823529412 296.9040515001413 L 199.35294117647 296.8253037568623 L 211.11764705882 296.7447113572383 L 222.88235294118 296.6576626604069 L 234.64705882353 296.5645711238247 L 246.41176470588 296.4736422877849 L 258.17647058824 296.3813140572765 L 269.94117647059 296.2951558841978 L 281.70588235294 296.195258201791 L 293.47058823529 296.0806986818835 L 305.23529411765 295.95573911672074 L 317 295.8332921007175 L 328.76470588235 295.69840955659544 L 340.52941176471 295.5358889717184 L 352.29411764706 295.32400792740316 L 364.05882352941 295.07879585119923 L 375.82352941176 294.841121422474 L 387.58823529412 294.57517286459887 L 399.35294117647 294.236837447393 L 411.11764705882 293.7865186682787 L 422.88235294118 293.2327719161663 L 434.64705882353 292.63058703278824 L 446.41176470588 291.9745890712082 L 458.17647058824 291.1675519202777 L 469.94117647059 290.08620164908007 L 481.70588235294 288.64161310001936 L 493.47058823529 286.78751084237217 L 505.23529411765 284.5184881247825 L 517 281.71686859420834 L 528.76470588235 279.1106554185235" class="highcharts-graph" stroke="rgb(102, 115, 143)" stroke-width="2" stroke-linejoin="round" stroke-linecap="round"></path></g><g class="highcharts-markers highcharts-series-30 highcharts-line-series highcharts-color-undefined " transform="translate(56,47) scale(1 1)" width="298" height="534" clip-path="none"></g><g class="highcharts-series highcharts-series-31 highcharts-line-series highcharts-color-undefined " transform="translate(56,47) scale(1 1)" width="298" height="534" clip-path="url(#highcharts-9g19oj0-227)"><path fill="none" d="M 5.2352941176471 297.70631798811064 L 11.117647058824 297.6049891068155 L 17 297.5383270430381 L 22.882352941176 297.4524551097371 L 28.764705882353 297.3473733069125 L 34.647058823529 297.2594658907481 L 40.529411764706 297.1486592923701 L 46.411764705882 296.9027475189319 L 52.294117647059 296.5940538209247 L 58.176470588235 296.2422969385881 L 69.941176470588 295.9958444900143 L 81.705882352941 295.6924621301039 L 93.470588235294 295.39168773261224 L 105.23529411765 295.11129996817465 L 117 294.81615495297723 L 128.76470588235 294.5523372912247 L 140.52941176471 294.30283161835575 L 152.29411764706 294.06566606034636 L 164.05882352941 293.8057285378023 L 175.82352941176 293.5273444518084 L 187.58823529412 293.24329917910063 L 199.35294117647 292.98084910739703 L 211.11764705882 292.71226078268336 L 222.88235294118 292.4236038691131 L 234.64705882353 292.1618534946438 L 246.41176470588 291.91069399194834 L 258.17647058824 291.6555271323654 L 269.94117647059 291.39911990041264 L 281.70588235294 291.13892794251063 L 293.47058823529 290.8829341680145 L 305.23529411765 290.61364614606657 L 317 290.3427042942921 L 328.76470588235 290.09065426784383 L 340.52941176471 289.81640475641626 L 352.29411764706 289.5470213212091 L 364.05882352941 289.2923315279224 L 375.82352941176 289.0047241602035 L 387.58823529412 288.73196945650386 L 399.35294117647 288.4611230179886 L 411.11764705882 288.16384710666847 L 422.88235294118 287.8980257664723 L 434.64705882353 287.64025094447067 L 446.41176470588 287.3775146329894 L 458.17647058824 287.09785837020587 L 469.94117647059 286.8175978234473 L 481.70588235294 286.53571525128183 L 493.47058823529 286.2682082768394 L 505.23529411765 285.9974572515834 L 517 285.72607013793254 L 528.76470588235 285.5164472074189" class="highcharts-graph" stroke="rgb(102, 115, 143)" stroke-width="2" stroke-linejoin="round" stroke-linecap="round"></path></g><g class="highcharts-markers highcharts-series-31 highcharts-line-series highcharts-color-undefined " transform="translate(56,47) scale(1 1)" width="298" height="534" clip-path="none"></g><g class="highcharts-series highcharts-series-32 highcharts-line-series highcharts-color-undefined " transform="translate(56,47) scale(1 1)" width="298" height="534" clip-path="url(#highcharts-9g19oj0-227)"><path fill="none" d="M 5.2352941176471 298 L 11.117647058824 298 L 17 297.97042188964076 L 22.882352941176 297.95490133280714 L 28.764705882353 297.9367728135547 L 34.647058823529 297.91794459706796 L 40.529411764706 297.89116527564596 L 46.411764705882 297.85153696864853 L 52.294117647059 297.7875464761294 L 58.176470588235 297.7217113272653 L 69.941176470588 297.64999236074914 L 81.705882352941 297.58221714228085 L 93.470588235294 297.51606394921936 L 105.23529411765 297.4534410467491 L 117 297.39565241607954 L 128.76470588235 297.3392949842983 L 140.52941176471 297.27877117353097 L 152.29411764706 297.21424000587626 L 164.05882352941 297.13406106370894 L 175.82352941176 297.05747602097233 L 187.58823529412 296.97497535616395 L 199.35294117647 296.8892624449617 L 211.11764705882 296.8038675779568 L 222.88235294118 296.7107124325351 L 234.64705882353 296.61132362084413 L 246.41176470588 296.5092314334752 L 258.17647058824 296.40783894334055 L 269.94117647059 296.3032024023923 L 281.70588235294 296.193413545446 L 293.47058823529 296.0750374951696 L 305.23529411765 295.95545287694307 L 317 295.8389214830117 L 328.76470588235 295.7219766316236 L 340.52941176471 295.5962219559673 L 352.29411764706 295.46318406819023 L 364.05882352941 295.32467582021775 L 375.82352941176 295.1741455015831 L 387.58823529412 294.99289211347855 L 399.35294117647 294.6957116154176 L 411.11764705882 293.62845070216537 L 422.88235294118 293.363519885722 L 434.64705882353 293.156886570664 L 446.41176470588 292.96138480251545 L 458.17647058824 292.77685555917753 L 469.94117647059 292.5601084386419 L 481.70588235294 292.34447447279723 L 493.47058823529 292.1141468650322 L 505.23529411765 291.87898498546645 L 517 291.651774210836 L 528.76470588235 291.4809844768262" class="highcharts-graph" stroke="rgb(102, 115, 143)" stroke-width="2" stroke-linejoin="round" stroke-linecap="round"></path></g><g class="highcharts-markers highcharts-series-32 highcharts-line-series highcharts-color-undefined " transform="translate(56,47) scale(1 1)" width="298" height="534" clip-path="none"></g><g class="highcharts-series highcharts-series-33 highcharts-line-series highcharts-color-undefined " transform="translate(56,47) scale(1 1)" width="298" height="534" clip-path="url(#highcharts-9g19oj0-227)"><path fill="none" d="M 5.2352941176471 297.9971376022233 L 11.117647058824 297.99510211935984 L 17 297.9907131094356 L 22.882352941176 297.9581453836207 L 28.764705882353 297.9442150477741 L 34.647058823529 297.92163390975793 L 40.529411764706 297.9134919783042 L 46.411764705882 297.8952362413728 L 52.294117647059 297.8734820182699 L 58.176470588235 297.81865119863625 L 69.941176470588 297.7561237094252 L 81.705882352941 297.67600837609734 L 93.470588235294 297.5839663853666 L 105.23529411765 297.49046139132776 L 117 297.40449404476755 L 128.76470588235 297.3174771523559 L 140.52941176471 297.23138258811673 L 152.29411764706 297.1519351476034 L 164.05882352941 297.07356905736134 L 175.82352941176 296.9895735848251 L 187.58823529412 296.9089493807814 L 199.35294117647 296.8268303690099 L 211.11764705882 296.7418807638814 L 222.88235294118 296.6491072714966 L 234.64705882353 296.551022441015 L 246.41176470588 296.45354189450853 L 258.17647058824 296.3552662375085 L 269.94117647059 296.2637649219133 L 281.70588235294 296.1579198130149 L 293.47058823529 296.0361088854065 L 305.23529411765 295.9016716031609 L 317 295.7689199551615 L 328.76470588235 295.6251003690922 L 340.52941176471 295.45653694446435 L 352.29411764706 295.23708644825075 L 364.05882352941 294.9825556770627 L 375.82352941176 294.73632585942704 L 387.58823529412 294.4626488275548 L 399.35294117647 294.1151219330438 L 411.11764705882 293.6547529572913 L 422.88235294118 293.09493156100837 L 434.64705882353 292.4834279826461 L 446.41176470588 291.8208783105994 L 458.17647058824 291.0046496823637 L 469.94117647059 289.91242229961466 L 481.70588235294 288.46249060803746 L 493.47058823529 286.6080385017731 L 505.23529411765 284.3359625598883 L 517 281.5350427265484 L 528.76470588235 278.9396112491558" class="highcharts-graph" stroke="rgb(102, 115, 143)" stroke-width="2" stroke-linejoin="round" stroke-linecap="round"></path></g><g class="highcharts-markers highcharts-series-33 highcharts-line-series highcharts-color-undefined " transform="translate(56,47) scale(1 1)" width="298" height="534" clip-path="none"></g><g class="highcharts-series highcharts-series-34 highcharts-line-series highcharts-color-undefined " transform="translate(56,47) scale(1 1)" width="298" height="534" clip-path="url(#highcharts-9g19oj0-227)"><path fill="none" d="M 5.2352941176471 297.6796022755281 L 11.117647058824 297.5613534429307 L 17 297.4686117549656 L 22.882352941176 297.31429671038177 L 28.764705882353 297.12499680408274 L 34.647058823529 296.9658474876982 L 40.529411764706 296.75053156605094 L 46.411764705882 296.3814094705357 L 52.294117647059 295.9271787477932 L 58.176470588235 295.3474477847524 L 69.941176470588 294.76727155983514 L 81.705882352941 294.0768612160952 L 93.470588235294 293.3671455895725 L 105.23529411765 292.6664624182562 L 117 291.96069053978135 L 128.76470588235 291.28516466448025 L 140.52941176471 290.5868668246446 L 152.29411764706 289.88917326878396 L 164.05882352941 289.1582758987136 L 175.82352941176 288.33387353460444 L 187.58823529412 287.53971717366903 L 199.35294117647 286.7556746182113 L 211.11764705882 285.9859440516371 L 222.88235294118 285.2270269877748 L 234.64705882353 284.53957445507086 L 246.41176470588 283.8866615222057 L 258.17647058824 283.22497056949203 L 269.94117647059 282.5661738189748 L 281.70588235294 281.94640109147986 L 293.47058823529 281.24708551021246 L 305.23529411765 280.56348131229714 L 317 279.80784010366824 L 328.76470588235 279.03677375146486 L 340.52941176471 278.35943502423856 L 352.29411764706 277.6805696848647 L 364.05882352941 277.0589523010248 L 375.82352941176 276.41516723662534 L 387.58823529412 275.8326056802275 L 399.35294117647 275.2671230972307 L 411.11764705882 274.69028633638624 L 422.88235294118 274.1494839831085 L 434.64705882353 273.62576060323175 L 446.41176470588 273.06988295499673 L 458.17647058824 272.49333243392994 L 469.94117647059 271.85110578609783 L 481.70588235294 271.2708023435016 L 493.47058823529 270.74663370174846 L 505.23529411765 270.2289531616225 L 517 269.7531590422956 L 528.76470588235 269.40540951684636" class="highcharts-graph" stroke="rgb(102, 115, 143)" stroke-width="2" stroke-linejoin="round" stroke-linecap="round"></path></g><g class="highcharts-markers highcharts-series-34 highcharts-line-series highcharts-color-undefined " transform="translate(56,47) scale(1 1)" width="298" height="534" clip-path="none"></g><g class="highcharts-series highcharts-series-35 highcharts-line-series highcharts-color-undefined " transform="translate(56,47) scale(1 1)" width="298" height="534" clip-path="url(#highcharts-9g19oj0-227)"><path fill="none" d="M 5.2352941176471 278.8287410419383 L 11.117647058824 278.4837266965868 L 17 278.46750644251887 L 22.882352941176 278.4566929398069 L 28.764705882353 278.4369105907279 L 34.647058823529 278.41267562288516 L 40.529411764706 278.3858326926237 L 46.411764705882 278.3428331171337 L 52.294117647059 278.2743900058509 L 58.176470588235 278.1962147421272 L 69.941176470588 278.0974620188311 L 81.705882352941 278.0210996070327 L 93.470588235294 277.96048038300614 L 105.23529411765 277.9104520307534 L 117 277.8637949469932 L 128.76470588235 277.8155158378262 L 140.52941176471 277.7618935861427 L 152.29411764706 277.7066175046327 L 164.05882352941 277.64596647618635 L 175.82352941176 277.59387083665047 L 187.58823529412 277.53671829437565 L 199.35294117647 277.46817976983357 L 211.11764705882 277.4140168430145 L 222.88235294118 277.3572141493569 L 234.64705882353 277.29376433197336 L 246.41176470588 277.2370888559947 L 258.17647058824 277.1762788054497 L 269.94117647059 277.1169635626326 L 281.70588235294 277.06086056620927 L 293.47058823529 277.0016089322316 L 305.23529411765 276.93580558778723 L 317 276.8714970510707 L 328.76470588235 276.8083652778846 L 340.52941176471 276.74198945388497 L 352.29411764706 276.6732282984047 L 364.05882352941 276.6021136158636 L 375.82352941176 276.530935324483 L 387.58823529412 276.46376438998976 L 399.35294117647 276.39703871737294 L 411.11764705882 276.3253515552765 L 422.88235294118 276.2560497246606 L 434.64705882353 276.18487143328 L 446.41176470588 276.10593286348256 L 458.17647058824 276.0163398130719 L 469.94117647059 275.8962781285492 L 481.70588235294 275.7818776307405 L 493.47058823529 275.6618795550573 L 505.23529411765 275.5212404109621 L 517 275.3726819663514 L 528.76470588235 275.2532245658038" class="highcharts-graph" stroke="rgb(102, 115, 143)" stroke-width="2" stroke-linejoin="round" stroke-linecap="round"></path></g><g class="highcharts-markers highcharts-series-35 highcharts-line-series highcharts-color-undefined " transform="translate(56,47) scale(1 1)" width="298" height="534" clip-path="none"></g></g><text x="330" text-anchor="middle" class="highcharts-title" style="color:#333333;font-size:18px;fill:#333333;width:536px;" y="24"><tspan>FastQC: Adapter Content</tspan></text><g class="highcharts-axis-labels highcharts-xaxis-labels "><text x="173" style="color:#666666;cursor:default;font-size:11px;fill:#666666;width:168px;text-overflow:clip;" text-anchor="middle" transform="translate(0,0)" y="364" opacity="1"><tspan>20</tspan></text><text x="290.6470588235294" style="color:#666666;cursor:default;font-size:11px;fill:#666666;width:168px;text-overflow:clip;" text-anchor="middle" transform="translate(0,0)" y="364" opacity="1"><tspan>40</tspan></text><text x="408.2941176470588" style="color:#666666;cursor:default;font-size:11px;fill:#666666;width:168px;text-overflow:clip;" text-anchor="middle" transform="translate(0,0)" y="364" opacity="1"><tspan>60</tspan></text><text x="525.9411764705882" style="color:#666666;cursor:default;font-size:11px;fill:#666666;width:168px;text-overflow:clip;" text-anchor="middle" transform="translate(0,0)" y="364" opacity="1"><tspan>80</tspan></text></g><g class="highcharts-axis-labels highcharts-yaxis-labels "><text x="41" style="color:#666666;cursor:default;font-size:11px;fill:#666666;width:188px;text-overflow:clip;" text-anchor="end" transform="translate(0,0)" y="350" opacity="1"><tspan>0</tspan></text><text x="41" style="color:#666666;cursor:default;font-size:11px;fill:#666666;width:188px;text-overflow:clip;" text-anchor="end" transform="translate(0,0)" y="300" opacity="1"><tspan>1</tspan></text><text x="41" style="color:#666666;cursor:default;font-size:11px;fill:#666666;width:188px;text-overflow:clip;" text-anchor="end" transform="translate(0,0)" y="250" opacity="1"><tspan>2</tspan></text><text x="41" style="color:#666666;cursor:default;font-size:11px;fill:#666666;width:188px;text-overflow:clip;" text-anchor="end" transform="translate(0,0)" y="201" opacity="1"><tspan>3</tspan></text><text x="41" style="color:#666666;cursor:default;font-size:11px;fill:#666666;width:188px;text-overflow:clip;" text-anchor="end" transform="translate(0,0)" y="151" opacity="1"><tspan>4</tspan></text><text x="41" style="color:#666666;cursor:default;font-size:11px;fill:#666666;width:188px;text-overflow:clip;" text-anchor="end" transform="translate(0,0)" y="101" opacity="1"><tspan>5</tspan></text><text x="41" style="color:#666666;cursor:default;font-size:11px;fill:#666666;width:188px;text-overflow:clip;" text-anchor="end" transform="translate(0,0)" y="52" opacity="1"><tspan>6</tspan></text></g><text x="590" class="highcharts-credits" text-anchor="end" style="cursor:pointer;color:#999999;font-size:9px;fill:#999999;" y="395"><tspan>Created with MultiQC</tspan></text></svg>