<svg xmlns:xlink="http://www.w3.org/1999/xlink" version="1.1" class="highcharts-root" style="font-family:&quot;lucida grande&quot;, &quot;lucida sans unicode&quot;, arial, helvetica, sans-serif;font-size:12px;" xmlns="http://www.w3.org/2000/svg" width="600" height="400"><desc>Created with Highcharts 5.0.6</desc><defs><clipPath id="highcharts-9g19oj0-163"><rect x="0" y="0" width="485" height="298" fill="none"></rect></clipPath></defs><rect fill="#ffffff" class="highcharts-background" x="0" y="0" width="600" height="400" rx="0" ry="0"></rect><rect fill="none" class="highcharts-plot-background" x="105" y="47" width="485" height="298"></rect><g class="highcharts-plot-bands-0"><path fill="#c3e6c3" class="highcharts-plot-band " d="M 467.5 47 L 467.5 345 589.5 345 589.5 47 z"></path><path fill="#e6dcc3" class="highcharts-plot-band " d="M 364.5 47 L 364.5 345 467.5 345 467.5 47 z"></path><path fill="#e6c3c3" class="highcharts-plot-band " d="M 104.5 47 L 104.5 345 364.5 345 364.5 47 z"></path></g><g class="highcharts-grid highcharts-xaxis-grid "><path fill="none" class="highcharts-grid-line" d="M 104.5 47 L 104.5 345" opacity="1"></path><path fill="none" class="highcharts-grid-line" d="M 234.5 47 L 234.5 345" opacity="1"></path><path fill="none" class="highcharts-grid-line" d="M 364.5 47 L 364.5 345" opacity="1"></path><path fill="none" class="highcharts-grid-line" d="M 493.5 47 L 493.5 345" opacity="1"></path></g><g class="highcharts-grid highcharts-yaxis-grid "><path fill="none" stroke="#e6e6e6" stroke-width="1" class="highcharts-grid-line" d="M 105 345.5 L 590 345.5" opacity="1"></path><path fill="none" stroke="#e6e6e6" stroke-width="1" class="highcharts-grid-line" d="M 105 285.5 L 590 285.5" opacity="1"></path><path fill="none" stroke="#e6e6e6" stroke-width="1" class="highcharts-grid-line" d="M 105 226.5 L 590 226.5" opacity="1"></path><path fill="none" stroke="#e6e6e6" stroke-width="1" class="highcharts-grid-line" d="M 105 166.5 L 590 166.5" opacity="1"></path><path fill="none" stroke="#e6e6e6" stroke-width="1" class="highcharts-grid-line" d="M 105 107.5 L 590 107.5" opacity="1"></path><path fill="none" stroke="#e6e6e6" stroke-width="1" class="highcharts-grid-line" d="M 105 46.5 L 590 46.5" opacity="1"></path></g><rect fill="none" class="highcharts-plot-border" x="105" y="47" width="485" height="298"></rect><g class="highcharts-axis highcharts-xaxis "><path fill="none" class="highcharts-tick" stroke="#ccd6eb" stroke-width="1" d="M 104.5 345 L 104.5 355" opacity="1"></path><path fill="none" class="highcharts-tick" stroke="#ccd6eb" stroke-width="1" d="M 234.5 345 L 234.5 355" opacity="1"></path><path fill="none" class="highcharts-tick" stroke="#ccd6eb" stroke-width="1" d="M 364.5 345 L 364.5 355" opacity="1"></path><path fill="none" class="highcharts-tick" stroke="#ccd6eb" stroke-width="1" d="M 493.5 345 L 493.5 355" opacity="1"></path><text x="347.5" text-anchor="middle" transform="translate(0,0)" class="highcharts-axis-title" style="color:#666666;fill:#666666;" y="383"><tspan>Mean Sequence Quality (Phred Score)</tspan></text><path fill="none" class="highcharts-axis-line" stroke="#ccd6eb" stroke-width="1" d="M 105 345.5 L 590 345.5"></path></g><g class="highcharts-axis highcharts-yaxis "><text x="24.3515625" text-anchor="middle" transform="translate(0,0) rotate(270 24.3515625 196)" class="highcharts-axis-title" style="color:#666666;fill:#666666;" y="196">Count</text><path fill="none" class="highcharts-axis-line" d="M 105 47 L 105 345"></path></g><g class="highcharts-series-group"><g class="highcharts-series highcharts-series-0 highcharts-line-series highcharts-color-undefined " transform="translate(105,47) scale(1 1)" width="298" height="485" clip-path="url(#highcharts-9g19oj0-163)"><path fill="none" d="M 181.69654803318 297.99979736 L 194.67487289269 297.99816432 L 207.65319775221 297.99348572 L 220.63152261172 297.98301996 L 233.60984747123 297.9692464 L 246.58817233075 297.9558364 L 259.56649719026 297.94523356 L 272.54482204977 297.92771116 L 285.52314690929 297.90226792 L 298.5014717688 297.84436652 L 311.47979662831 297.74230748 L 324.45812148782 297.53568024 L 337.43644634734 297.21058608 L 350.41477120685 296.66121712 L 363.39309606636 295.93187404 L 376.37142092588 294.87613156 L 389.34974578539 293.69683232 L 402.3280706449 292.24536968 L 415.30639550442 290.79378188 L 428.28472036393 288.33599112 L 441.26304522344 284.39608544 L 454.24137008295 271.05542408 L 467.21969494247 113.94142048 L 480.19801980198 217.24117752" class="highcharts-graph" stroke="rgb(228, 26, 28)" stroke-width="2" stroke-linejoin="round" stroke-linecap="round"></path></g><g class="highcharts-markers highcharts-series-0 highcharts-line-series highcharts-color-undefined " transform="translate(105,47) scale(1 1)" width="298" height="485" clip-path="none"></g><g class="highcharts-series highcharts-series-1 highcharts-line-series highcharts-color-undefined " transform="translate(105,47) scale(1 1)" width="298" height="485" clip-path="url(#highcharts-9g19oj0-163)"><path fill="none" d="M 116.80492373562 297.99998808 L 129.78324859513 297.99998808 L 142.76157345464 297.9997914 L 155.73989831416 297.99170964 L 168.71822317367 297.91954596 L 181.69654803318 297.75773196 L 194.67487289269 297.62062216 L 207.65319775221 297.58340196 L 220.63152261172 297.60227132 L 233.60984747123 297.6573894 L 246.58817233075 297.67069808 L 259.56649719026 297.638526 L 272.54482204977 297.52619192 L 285.52314690929 297.3830804 L 298.5014717688 297.18752088 L 311.47979662831 297.02199976 L 324.45812148782 296.79454232 L 337.43644634734 296.56570812 L 350.41477120685 296.19640268 L 363.39309606636 295.76511324 L 376.37142092588 295.08263364 L 389.34974578539 294.35092444 L 402.3280706449 293.12261612 L 415.30639550442 291.52713604 L 428.28472036393 288.29906296 L 441.26304522344 281.69012624 L 454.24137008295 257.04410776 L 467.21969494247 109.85267572000001 L 480.19801980198 242.33150208" class="highcharts-graph" stroke="rgb(228, 26, 28)" stroke-width="2" stroke-linejoin="round" stroke-linecap="round"></path></g><g class="highcharts-markers highcharts-series-1 highcharts-line-series highcharts-color-undefined " transform="translate(105,47) scale(1 1)" width="298" height="485" clip-path="none"></g><g class="highcharts-series highcharts-series-2 highcharts-line-series highcharts-color-undefined " transform="translate(105,47) scale(1 1)" width="298" height="485" clip-path="url(#highcharts-9g19oj0-163)"><path fill="none" d="M 168.71822317367 297.99999404 L 181.69654803318 297.99971392 L 194.67487289269 297.99774116 L 207.65319775221 297.99219836 L 220.63152261172 297.97995652 L 233.60984747123 297.96455588 L 246.58817233075 297.94839236 L 259.56649719026 297.93486316 L 272.54482204977 297.9153382 L 285.52314690929 297.88889368 L 298.5014717688 297.83449676 L 311.47979662831 297.73891624 L 324.45812148782 297.5499306 L 337.43644634734 297.24386672 L 350.41477120685 296.70014784 L 363.39309606636 295.92649812 L 376.37142092588 294.78626668 L 389.34974578539 293.53336144 L 402.3280706449 291.79890012 L 415.30639550442 289.97112904 L 428.28472036393 287.03879116 L 441.26304522344 282.35691316 L 454.24137008295 266.50566736 L 467.21969494247 86.36280784000002 L 480.19801980198 207.15897928" class="highcharts-graph" stroke="rgb(228, 26, 28)" stroke-width="2" stroke-linejoin="round" stroke-linecap="round"></path></g><g class="highcharts-markers highcharts-series-2 highcharts-line-series highcharts-color-undefined " transform="translate(105,47) scale(1 1)" width="298" height="485" clip-path="none"></g><g class="highcharts-series highcharts-series-3 highcharts-line-series highcharts-color-undefined " transform="translate(105,47) scale(1 1)" width="298" height="485" clip-path="url(#highcharts-9g19oj0-163)"><path fill="none" d="M 103.8265988761 297.99999404 L 116.80492373562 298 L 129.78324859513 297.99996424 L 142.76157345464 297.99980928 L 155.73989831416 297.9933248 L 168.71822317367 297.93473204 L 181.69654803318 297.7956614 L 194.67487289269 297.67928644 L 207.65319775221 297.63704196 L 220.63152261172 297.64697132 L 233.60984747123 297.68994888 L 246.58817233075 297.69751808 L 259.56649719026 297.67164572 L 272.54482204977 297.57495068 L 285.52314690929 297.44955824 L 298.5014717688 297.28635556 L 311.47979662831 297.13692644 L 324.45812148782 296.91660908 L 337.43644634734 296.6818864 L 350.41477120685 296.2743714 L 363.39309606636 295.794353 L 376.37142092588 295.051588 L 389.34974578539 294.212271 L 402.3280706449 292.86065624 L 415.30639550442 291.09354604 L 428.28472036393 287.5103106 L 441.26304522344 280.27390508 L 454.24137008295 252.72961012000002 L 467.21969494247 79.53347628 L 480.19801980198 232.00204728" class="highcharts-graph" stroke="rgb(228, 26, 28)" stroke-width="2" stroke-linejoin="round" stroke-linecap="round"></path></g><g class="highcharts-markers highcharts-series-3 highcharts-line-series highcharts-color-undefined " transform="translate(105,47) scale(1 1)" width="298" height="485" clip-path="none"></g><g class="highcharts-series highcharts-series-4 highcharts-line-series highcharts-color-undefined " transform="translate(105,47) scale(1 1)" width="298" height="485" clip-path="url(#highcharts-9g19oj0-163)"><path fill="none" d="M 181.69654803318 297.99969008 L 194.67487289269 297.9970796 L 207.65319775221 297.98934352 L 220.63152261172 297.97254228 L 233.60984747123 297.95359544 L 246.58817233075 297.93317052 L 259.56649719026 297.91847316 L 272.54482204977 297.89840584 L 285.52314690929 297.87681276 L 298.5014717688 297.83253592 L 311.47979662831 297.76146888 L 324.45812148782 297.62356044 L 337.43644634734 297.4083508 L 350.41477120685 297.01574772 L 363.39309606636 296.43334248 L 376.37142092588 295.5458508 L 389.34974578539 294.50630164 L 402.3280706449 293.01904324 L 415.30639550442 291.3992702 L 428.28472036393 288.83004532 L 441.26304522344 284.76646964 L 454.24137008295 271.1124732 L 467.21969494247 115.86599388000002 L 480.19801980198 217.48118672" class="highcharts-graph" stroke="rgb(198, 77, 255)" stroke-width="2" stroke-linejoin="round" stroke-linecap="round"></path></g><g class="highcharts-markers highcharts-series-4 highcharts-line-series highcharts-color-undefined " transform="translate(105,47) scale(1 1)" width="298" height="485" clip-path="none"></g><g class="highcharts-series highcharts-series-5 highcharts-line-series highcharts-color-undefined " transform="translate(105,47) scale(1 1)" width="298" height="485" clip-path="url(#highcharts-9g19oj0-163)"><path fill="none" d="M 129.78324859513 297.99997616 L 142.76157345464 297.99988676 L 155.73989831416 297.99732992 L 168.71822317367 297.97269724 L 181.69654803318 297.90214872 L 194.67487289269 297.81675384 L 207.65319775221 297.75923388 L 220.63152261172 297.7378494 L 233.60984747123 297.74171148 L 246.58817233075 297.73262844 L 259.56649719026 297.71160752 L 272.54482204977 297.640314 L 285.52314690929 297.55281524 L 298.5014717688 297.4278102 L 311.47979662831 297.30430708 L 324.45812148782 297.125668 L 337.43644634734 296.91181128 L 350.41477120685 296.55462252 L 363.39309606636 296.11342756 L 376.37142092588 295.460146 L 389.34974578539 294.70589608 L 402.3280706449 293.49254736 L 415.30639550442 291.94614788 L 428.28472036393 288.90443804 L 441.26304522344 282.99199288 L 454.24137008295 261.04858408 L 467.21969494247 110.15390604000001 L 480.19801980198 238.43449648" class="highcharts-graph" stroke="rgb(198, 77, 255)" stroke-width="2" stroke-linejoin="round" stroke-linecap="round"></path></g><g class="highcharts-markers highcharts-series-5 highcharts-line-series highcharts-color-undefined " transform="translate(105,47) scale(1 1)" width="298" height="485" clip-path="none"></g><g class="highcharts-series highcharts-series-6 highcharts-line-series highcharts-color-undefined " transform="translate(105,47) scale(1 1)" width="298" height="485" clip-path="url(#highcharts-9g19oj0-163)"><path fill="none" d="M 168.71822317367 297.99998808 L 181.69654803318 297.99980928 L 194.67487289269 297.99800936 L 207.65319775221 297.9921626 L 220.63152261172 297.97966448 L 233.60984747123 297.964091 L 246.58817233075 297.9480586 L 259.56649719026 297.9321752 L 272.54482204977 297.9102722 L 285.52314690929 297.88140792 L 298.5014717688 297.82086028 L 311.47979662831 297.7161848 L 324.45812148782 297.50777552 L 337.43644634734 297.17338376 L 350.41477120685 296.59897088 L 363.39309606636 295.76165644 L 376.37142092588 294.49026328 L 389.34974578539 293.01878696 L 402.3280706449 290.9647862 L 415.30639550442 288.92045852 L 428.28472036393 285.54517344 L 441.26304522344 280.0933588 L 454.24137008295 261.78889952 L 467.21969494247 46.822373880000015 L 480.19801980198 187.7847298" class="highcharts-graph" stroke="rgb(198, 77, 255)" stroke-width="2" stroke-linejoin="round" stroke-linecap="round"></path></g><g class="highcharts-markers highcharts-series-6 highcharts-line-series highcharts-color-undefined " transform="translate(105,47) scale(1 1)" width="298" height="485" clip-path="none"></g><g class="highcharts-series highcharts-series-7 highcharts-line-series highcharts-color-undefined " transform="translate(105,47) scale(1 1)" width="298" height="485" clip-path="url(#highcharts-9g19oj0-163)"><path fill="none" d="M 116.80492373562 297.99998808 L 129.78324859513 297.99998212 L 142.76157345464 297.99975564 L 155.73989831416 297.99350956 L 168.71822317367 297.93895172 L 181.69654803318 297.82007356 L 194.67487289269 297.71318692 L 207.65319775221 297.67987052 L 220.63152261172 297.68407828 L 233.60984747123 297.71675696 L 246.58817233075 297.71349684 L 259.56649719026 297.67774876 L 272.54482204977 297.562238 L 285.52314690929 297.40456024 L 298.5014717688 297.162024 L 311.47979662831 296.8964762 L 324.45812148782 296.516705 L 337.43644634734 296.12406616 L 350.41477120685 295.51400652 L 363.39309606636 294.80808624 L 376.37142092588 293.77865716 L 389.34974578539 292.63166112 L 402.3280706449 290.76705128 L 415.30639550442 288.36036156 L 428.28472036393 283.3563694 L 441.26304522344 273.11552192 L 454.24137008295 236.08029052 L 467.21969494247 47.97535376000002 L 480.19801980198 231.62247276" class="highcharts-graph" stroke="rgb(198, 77, 255)" stroke-width="2" stroke-linejoin="round" stroke-linecap="round"></path></g><g class="highcharts-markers highcharts-series-7 highcharts-line-series highcharts-color-undefined " transform="translate(105,47) scale(1 1)" width="298" height="485" clip-path="none"></g><g class="highcharts-series highcharts-series-8 highcharts-line-series highcharts-color-undefined " transform="translate(105,47) scale(1 1)" width="298" height="485" clip-path="url(#highcharts-9g19oj0-163)"><path fill="none" d="M 168.71822317367 297.99999404 L 181.69654803318 297.99966028 L 194.67487289269 297.99731204 L 207.65319775221 297.98975476 L 220.63152261172 297.97536732 L 233.60984747123 297.9565218 L 246.58817233075 297.9361088 L 259.56649719026 297.91949828 L 272.54482204977 297.89594436 L 285.52314690929 297.86242532 L 298.5014717688 297.79884404 L 311.47979662831 297.68692716 L 324.45812148782 297.47717092 L 337.43644634734 297.14929344 L 350.41477120685 296.58523904 L 363.39309606636 295.80378172 L 376.37142092588 294.64312536 L 389.34974578539 293.35253504 L 402.3280706449 291.59357812 L 415.30639550442 289.72896828 L 428.28472036393 286.64704036 L 441.26304522344 281.88874324 L 454.24137008295 265.9813602 L 467.21969494247 72.094097 L 480.19801980198 194.26293988" class="highcharts-graph" stroke="rgb(102, 115, 143)" stroke-width="2" stroke-linejoin="round" stroke-linecap="round"></path></g><g class="highcharts-markers highcharts-series-8 highcharts-line-series highcharts-color-undefined " transform="translate(105,47) scale(1 1)" width="298" height="485" clip-path="none"></g><g class="highcharts-series highcharts-series-9 highcharts-line-series highcharts-color-undefined " transform="translate(105,47) scale(1 1)" width="298" height="485" clip-path="url(#highcharts-9g19oj0-163)"><path fill="none" d="M 103.8265988761 297.99999404 L 116.80492373562 297.99999404 L 129.78324859513 297.99999404 L 142.76157345464 297.99969604 L 155.73989831416 297.98892632 L 168.71822317367 297.89427556 L 181.69654803318 297.676223 L 194.67487289269 297.48162304 L 207.65319775221 297.4206582 L 220.63152261172 297.43716144 L 233.60984747123 297.50794836 L 246.58817233075 297.52347416 L 259.56649719026 297.4845494 L 272.54482204977 297.3403174 L 285.52314690929 297.16995676 L 298.5014717688 296.97325888 L 311.47979662831 296.844207 L 324.45812148782 296.65008384 L 337.43644634734 296.43891508 L 350.41477120685 296.0354946 L 363.39309606636 295.54819308 L 376.37142092588 294.79323988 L 389.34974578539 293.91987936 L 402.3280706449 292.50529124 L 415.30639550442 290.66306716 L 428.28472036393 286.94453376 L 441.26304522344 279.33682024 L 454.24137008295 250.420277 L 467.21969494247 64.08186636000002 L 480.19801980198 226.14631151999998" class="highcharts-graph" stroke="rgb(102, 115, 143)" stroke-width="2" stroke-linejoin="round" stroke-linecap="round"></path></g><g class="highcharts-markers highcharts-series-9 highcharts-line-series highcharts-color-undefined " transform="translate(105,47) scale(1 1)" width="298" height="485" clip-path="none"></g><g class="highcharts-series highcharts-series-10 highcharts-line-series highcharts-color-undefined " transform="translate(105,47) scale(1 1)" width="298" height="485" clip-path="url(#highcharts-9g19oj0-163)"><path fill="none" d="M 168.71822317367 297.99999404 L 181.69654803318 297.99960068 L 194.67487289269 297.99733588 L 207.65319775221 297.98952828 L 220.63152261172 297.97505144 L 233.60984747123 297.95611056 L 246.58817233075 297.93678824 L 259.56649719026 297.9206128 L 272.54482204977 297.89871576 L 285.52314690929 297.8698634 L 298.5014717688 297.81129448 L 311.47979662831 297.709748 L 324.45812148782 297.51362824 L 337.43644634734 297.20127656 L 350.41477120685 296.64129284 L 363.39309606636 295.82961236 L 376.37142092588 294.59074888 L 389.34974578539 293.15625436 L 402.3280706449 291.13302508 L 415.30639550442 288.93845176 L 428.28472036393 285.39801508 L 441.26304522344 279.8587136 L 454.24137008295 261.39691628 L 467.21969494247 44.42302092000003 L 480.19801980198 183.48931012" class="highcharts-graph" stroke="rgb(102, 115, 143)" stroke-width="2" stroke-linejoin="round" stroke-linecap="round"></path></g><g class="highcharts-markers highcharts-series-10 highcharts-line-series highcharts-color-undefined " transform="translate(105,47) scale(1 1)" width="298" height="485" clip-path="none"></g><g class="highcharts-series highcharts-series-11 highcharts-line-series highcharts-color-undefined " transform="translate(105,47) scale(1 1)" width="298" height="485" clip-path="url(#highcharts-9g19oj0-163)"><path fill="none" d="M 129.78324859513 297.99999404 L 142.76157345464 297.99983908 L 155.73989831416 297.99595316 L 168.71822317367 297.95513908 L 181.69654803318 297.84270964 L 194.67487289269 297.72822996 L 207.65319775221 297.67251588 L 220.63152261172 297.667134 L 233.60984747123 297.69224348 L 246.58817233075 297.68961512 L 259.56649719026 297.65355116 L 272.54482204977 297.54878628 L 285.52314690929 297.40894084 L 298.5014717688 297.21475212 L 311.47979662831 297.01431136 L 324.45812148782 296.719345 L 337.43644634734 296.39992476 L 350.41477120685 295.86644516 L 363.39309606636 295.24486484 L 376.37142092588 294.28866032 L 389.34974578539 293.22108724 L 402.3280706449 291.50295632 L 415.30639550442 289.24432492 L 428.28472036393 284.68089596 L 441.26304522344 275.33966876 L 454.24137008295 240.112457 L 467.21969494247 35.15796252000001 L 480.19801980198 225.77260164" class="highcharts-graph" stroke="rgb(102, 115, 143)" stroke-width="2" stroke-linejoin="round" stroke-linecap="round"></path></g><g class="highcharts-markers highcharts-series-11 highcharts-line-series highcharts-color-undefined " transform="translate(105,47) scale(1 1)" width="298" height="485" clip-path="none"></g></g><text x="330" text-anchor="middle" class="highcharts-title" style="color:#333333;font-size:18px;fill:#333333;width:536px;" y="24"><tspan>FastQC: Per Sequence Quality Scores</tspan></text><g class="highcharts-axis-labels highcharts-xaxis-labels "><text x="105" style="color:#666666;cursor:default;font-size:11px;fill:#666666;width:152px;text-overflow:clip;" text-anchor="middle" transform="translate(0,0)" y="364" opacity="1"><tspan>0</tspan></text><text x="234.78324859512978" style="color:#666666;cursor:default;font-size:11px;fill:#666666;width:152px;text-overflow:clip;" text-anchor="middle" transform="translate(0,0)" y="364" opacity="1"><tspan>10</tspan></text><text x="364.56649719025955" style="color:#666666;cursor:default;font-size:11px;fill:#666666;width:152px;text-overflow:clip;" text-anchor="middle" transform="translate(0,0)" y="364" opacity="1"><tspan>20</tspan></text><text x="494.34974578538936" style="color:#666666;cursor:default;font-size:11px;fill:#666666;width:152px;text-overflow:clip;" text-anchor="middle" transform="translate(0,0)" y="364" opacity="1"><tspan>30</tspan></text></g><g class="highcharts-axis-labels highcharts-yaxis-labels "><text x="90" style="color:#666666;cursor:default;font-size:11px;fill:#666666;width:188px;text-overflow:clip;" text-anchor="end" transform="translate(0,0)" y="350" opacity="1"><tspan>0</tspan></text><text x="90" style="color:#666666;cursor:default;font-size:11px;fill:#666666;width:188px;text-overflow:clip;" text-anchor="end" transform="translate(0,0)" y="290" opacity="1"><tspan>10000000</tspan></text><text x="90" style="color:#666666;cursor:default;font-size:11px;fill:#666666;width:188px;text-overflow:clip;" text-anchor="end" transform="translate(0,0)" y="230" opacity="1"><tspan>20000000</tspan></text><text x="90" style="color:#666666;cursor:default;font-size:11px;fill:#666666;width:188px;text-overflow:clip;" text-anchor="end" transform="translate(0,0)" y="171" opacity="1"><tspan>30000000</tspan></text><text x="90" style="color:#666666;cursor:default;font-size:11px;fill:#666666;width:188px;text-overflow:clip;" text-anchor="end" transform="translate(0,0)" y="111" opacity="1"><tspan>40000000</tspan></text><text x="90" style="color:#666666;cursor:default;font-size:11px;fill:#666666;width:188px;text-overflow:clip;" text-anchor="end" transform="translate(0,0)" y="52" opacity="1"><tspan>50000000</tspan></text></g><text x="590" class="highcharts-credits" text-anchor="end" style="cursor:pointer;color:#999999;font-size:9px;fill:#999999;" y="395"><tspan>Created with MultiQC</tspan></text></svg>