<svg xmlns:xlink="http://www.w3.org/1999/xlink" version="1.1" class="highcharts-root" style="font-family:&quot;lucida grande&quot;, &quot;lucida sans unicode&quot;, arial, helvetica, sans-serif;font-size:12px;" xmlns="http://www.w3.org/2000/svg" width="600" height="400"><desc>Created with Highcharts 5.0.6</desc><defs><clipPath id="highcharts-9g19oj0-147"><rect x="0" y="0" width="527" height="298" fill="none"></rect></clipPath></defs><rect fill="#ffffff" class="highcharts-background" x="0" y="0" width="600" height="400" rx="0" ry="0"></rect><rect fill="none" class="highcharts-plot-background" x="63" y="47" width="527" height="298"></rect><g class="highcharts-plot-bands-0"><path fill="#c3e6c3" class="highcharts-plot-band " d="M 63 136.5 L 590 136.5 590 47.5 63 47.5 z"></path><path fill="#e6dcc3" class="highcharts-plot-band " d="M 63 196.5 L 590 196.5 590 136.5 63 136.5 z"></path><path fill="#e6c3c3" class="highcharts-plot-band " d="M 63 345.5 L 590 345.5 590 196.5 63 196.5 z"></path></g><g class="highcharts-grid highcharts-xaxis-grid "><path fill="none" class="highcharts-grid-line" d="M 166.5 47 L 166.5 345" opacity="1"></path><path fill="none" class="highcharts-grid-line" d="M 271.5 47 L 271.5 345" opacity="1"></path><path fill="none" class="highcharts-grid-line" d="M 375.5 47 L 375.5 345" opacity="1"></path><path fill="none" class="highcharts-grid-line" d="M 479.5 47 L 479.5 345" opacity="1"></path><path fill="none" class="highcharts-grid-line" d="M 584.5 47 L 584.5 345" opacity="1"></path></g><g class="highcharts-grid highcharts-yaxis-grid "><path fill="none" stroke="#e6e6e6" stroke-width="1" class="highcharts-grid-line" d="M 63 345.5 L 590 345.5" opacity="1"></path><path fill="none" stroke="#e6e6e6" stroke-width="1" class="highcharts-grid-line" d="M 63 271.5 L 590 271.5" opacity="1"></path><path fill="none" stroke="#e6e6e6" stroke-width="1" class="highcharts-grid-line" d="M 63 196.5 L 590 196.5" opacity="1"></path><path fill="none" stroke="#e6e6e6" stroke-width="1" class="highcharts-grid-line" d="M 63 122.5 L 590 122.5" opacity="1"></path><path fill="none" stroke="#e6e6e6" stroke-width="1" class="highcharts-grid-line" d="M 63 46.5 L 590 46.5" opacity="1"></path></g><rect fill="none" class="highcharts-plot-border" x="63" y="47" width="527" height="298"></rect><g class="highcharts-axis highcharts-xaxis "><path fill="none" class="highcharts-tick" stroke="#ccd6eb" stroke-width="1" d="M 166.5 345 L 166.5 355" opacity="1"></path><path fill="none" class="highcharts-tick" stroke="#ccd6eb" stroke-width="1" d="M 271.5 345 L 271.5 355" opacity="1"></path><path fill="none" class="highcharts-tick" stroke="#ccd6eb" stroke-width="1" d="M 375.5 345 L 375.5 355" opacity="1"></path><path fill="none" class="highcharts-tick" stroke="#ccd6eb" stroke-width="1" d="M 479.5 345 L 479.5 355" opacity="1"></path><path fill="none" class="highcharts-tick" stroke="#ccd6eb" stroke-width="1" d="M 584.5 345 L 584.5 355" opacity="1"></path><text x="326.5" text-anchor="middle" transform="translate(0,0)" class="highcharts-axis-title" style="color:#666666;fill:#666666;" y="383"><tspan>Position (bp)</tspan></text><path fill="none" class="highcharts-axis-line" stroke="#ccd6eb" stroke-width="1" d="M 63 345.5 L 590 345.5"></path></g><g class="highcharts-axis highcharts-yaxis "><text x="24.0859375" text-anchor="middle" transform="translate(0,0) rotate(270 24.0859375 196)" class="highcharts-axis-title" style="color:#666666;fill:#666666;" y="196"><tspan>Phred Score</tspan></text><path fill="none" class="highcharts-axis-line" d="M 63 47 L 63 345"></path></g><g class="highcharts-series-group"><g class="highcharts-series highcharts-series-0 highcharts-line-series highcharts-color-undefined " transform="translate(63,47) scale(1 1)" width="298" height="527" clip-path="url(#highcharts-9g19oj0-147)"><path fill="none" d="M 5.1666666666667 29.11705559323798 L 10.385521885522 29.446675542042215 L 15.604377104377 28.434615374190173 L 20.823232323232 27.940352210744607 L 26.042087542088 27.391236159888535 L 31.260942760943 27.288190743857456 L 36.479797979798 28.38168543527138 L 41.698653198653 27.715472634602577 L 46.917508417508 27.983309915967993 L 52.136363636364 27.366543143168656 L 62.574074074074 27.755361634524775 L 73.011784511785 27.714743712054428 L 83.449494949495 27.668227249310803 L 93.887205387205 27.782288320071814 L 104.32491582492 27.838658004759736 L 114.76262626263 28.02030856536436 L 125.20033670034 28.215297236070626 L 135.63804713805 28.764706679880817 L 146.07575757576 28.799925820236012 L 156.51346801347 29.12300162095869 L 166.95117845118 29.00327488732478 L 177.38888888889 29.00458772959786 L 187.8265993266 29.125520344752033 L 198.26430976431 29.182992402655373 L 208.70202020202 29.2736392956121 L 219.13973063973 29.407222006573534 L 229.57744107744 29.623796360363315 L 240.01515151515 29.507558423318642 L 250.45286195286 29.751057443299032 L 260.89057239057 29.87039118410604 L 271.32828282828 29.937527295850032 L 281.76599326599 30.2210177166682 L 292.2037037037 30.184732095530308 L 302.64141414141 30.22903443160618 L 313.07912457912 30.19821123488282 L 323.51683501684 30.476908941091438 L 333.95454545455 30.53414167268187 L 344.39225589226 30.69281013262804 L 354.82996632997 30.67432924270031 L 365.26767676768 30.658754206744902 L 375.70538720539 30.731240505767516 L 386.1430976431 30.913774176558547 L 396.58080808081 30.886874328910437 L 407.01851851852 30.97642236624023 L 417.45622895623 31.52346681791164 L 427.89393939394 31.288370340237634 L 438.33164983165 31.267212825868114 L 448.76936026936 31.131917896034622 L 459.20707070707 31.199779347597598 L 469.64478114478 31.29883894478354 L 480.08249158249 31.46497869799697 L 490.5202020202 31.78756926690005 L 500.95791245791 31.614682127146637 L 511.39562289562 31.635437463874325 L 521.83333333333 32.22962450907863" class="highcharts-graph" stroke="rgb(228, 26, 28)" stroke-width="2" stroke-linejoin="round" stroke-linecap="round"></path></g><g class="highcharts-markers highcharts-series-0 highcharts-line-series highcharts-color-undefined " transform="translate(63,47) scale(1 1)" width="298" height="527" clip-path="none"></g><g class="highcharts-series highcharts-series-1 highcharts-line-series highcharts-color-undefined " transform="translate(63,47) scale(1 1)" width="298" height="527" clip-path="url(#highcharts-9g19oj0-147)"><path fill="none" d="M 5.1666666666667 31.611008005745134 L 10.385521885522 30.619794501646027 L 15.604377104377 29.79974165265179 L 20.823232323232 29.840239260560395 L 26.042087542088 30.082407264059384 L 31.260942760943 29.747418172081836 L 36.479797979798 30.397540740331124 L 41.698653198653 29.77628637117209 L 46.917508417508 30.097201981587205 L 52.136363636364 29.637522186908768 L 62.574074074074 30.10600780892446 L 73.011784511785 30.176457424087346 L 83.449494949495 30.230955816725043 L 93.887205387205 30.383785665687014 L 104.32491582492 30.453840789790718 L 114.76262626263 30.573798120906417 L 125.20033670034 31.28476754771816 L 135.63804713805 31.431714294712833 L 146.07575757576 31.183495647799305 L 156.51346801347 31.284355729277593 L 166.95117845118 31.40889270032403 L 177.38888888889 31.611861281567997 L 187.8265993266 31.69573395008564 L 198.26430976431 31.851372789049492 L 208.70202020202 31.92857213581152 L 219.13973063973 32.13032942887105 L 229.57744107744 32.267402825497186 L 240.01515151515 32.200366443907 L 250.45286195286 32.571630017991595 L 260.89057239057 32.479224200401745 L 271.32828282828 32.903445398131 L 281.76599326599 32.53232461209166 L 292.2037037037 32.94482305462088 L 302.64141414141 32.922040479410555 L 313.07912457912 33.04875314421105 L 323.51683501684 33.22729174620156 L 333.95454545455 33.13531103572058 L 344.39225589226 33.228962861398145 L 354.82996632997 33.47483156363563 L 365.26767676768 33.51264948549732 L 375.70538720539 33.74635983780024 L 386.1430976431 33.97484416067772 L 396.58080808081 33.858106921458614 L 407.01851851852 34.40849959645226 L 417.45622895623 34.086398232941065 L 427.89393939394 33.99790169407174 L 438.33164983165 34.183039162190255 L 448.76936026936 34.389162629658756 L 459.20707070707 34.33535889564962 L 469.64478114478 34.61563814882396 L 480.08249158249 34.74420484343369 L 490.5202020202 34.70298391506276 L 500.95791245791 34.82633930200723 L 511.39562289562 35.60348089097698 L 521.83333333333 36.417538531149034" class="highcharts-graph" stroke="rgb(228, 26, 28)" stroke-width="2" stroke-linejoin="round" stroke-linecap="round"></path></g><g class="highcharts-markers highcharts-series-1 highcharts-line-series highcharts-color-undefined " transform="translate(63,47) scale(1 1)" width="298" height="527" clip-path="none"></g><g class="highcharts-series highcharts-series-2 highcharts-line-series highcharts-color-undefined " transform="translate(63,47) scale(1 1)" width="298" height="527" clip-path="url(#highcharts-9g19oj0-147)"><path fill="none" d="M 5.1666666666667 28.862723253369268 L 10.385521885522 29.176588981867496 L 15.604377104377 28.125318289772736 L 20.823232323232 27.644762220355688 L 26.042087542088 27.14585908179089 L 31.260942760943 27.068965092056146 L 36.479797979798 28.13078978485595 L 41.698653198653 27.455374035284194 L 46.917508417508 27.744215309326194 L 52.136363636364 27.115625740204507 L 62.574074074074 27.490887410837217 L 73.011784511785 27.47090636844763 L 83.449494949495 27.41958276923168 L 93.887205387205 27.53290107732056 L 104.32491582492 27.58408959485189 L 114.76262626263 27.76737638062866 L 125.20033670034 27.963944557903744 L 135.63804713805 28.474222032217654 L 146.07575757576 28.504400768750145 L 156.51346801347 28.82331797987314 L 166.95117845118 28.710849942303298 L 177.38888888889 28.730573986064144 L 187.8265993266 28.86007553787465 L 198.26430976431 28.904405225631365 L 208.70202020202 28.990298002319946 L 219.13973063973 29.128894329213722 L 229.57744107744 29.336051250661058 L 240.01515151515 29.23876421939866 L 250.45286195286 29.451941033226035 L 260.89057239057 29.569562952206184 L 271.32828282828 29.62805635526138 L 281.76599326599 29.92838329296626 L 292.2037037037 29.893517050263483 L 302.64141414141 29.95194142428835 L 313.07912457912 29.92207961457268 L 323.51683501684 30.203039272983006 L 333.95454545455 30.26340647650835 L 344.39225589226 30.427739928220603 L 354.82996632997 30.426299419425277 L 365.26767676768 30.403656065850612 L 375.70538720539 30.494571019307102 L 386.1430976431 30.685547272742838 L 396.58080808081 30.67877618882528 L 407.01851851852 30.777199566140553 L 417.45622895623 31.332232063803644 L 427.89393939394 31.11102098059348 L 438.33164983165 31.077051027763275 L 448.76936026936 30.95190505894965 L 459.20707070707 31.03711515798892 L 469.64478114478 31.142177170485354 L 480.08249158249 31.311036831678507 L 490.5202020202 31.632477322879822 L 500.95791245791 31.46324750352801 L 511.39562289562 31.49862259206833 L 521.83333333333 32.091028185206085" class="highcharts-graph" stroke="rgb(228, 26, 28)" stroke-width="2" stroke-linejoin="round" stroke-linecap="round"></path></g><g class="highcharts-markers highcharts-series-2 highcharts-line-series highcharts-color-undefined " transform="translate(63,47) scale(1 1)" width="298" height="527" clip-path="none"></g><g class="highcharts-series highcharts-series-3 highcharts-line-series highcharts-color-undefined " transform="translate(63,47) scale(1 1)" width="298" height="527" clip-path="url(#highcharts-9g19oj0-147)"><path fill="none" d="M 5.1666666666667 31.282677176086224 L 10.385521885522 29.881295477609285 L 15.604377104377 29.10591516028154 L 20.823232323232 29.122341551035504 L 26.042087542088 29.222886054227445 L 31.260942760943 29.018001710409806 L 36.479797979798 29.58621434554584 L 41.698653198653 28.978387060302452 L 46.917508417508 29.340608597615017 L 52.136363636364 28.880968095445496 L 62.574074074074 29.314961622649548 L 73.011784511785 29.371239972267006 L 83.449494949495 29.404794491679013 L 93.887205387205 29.533525276555167 L 104.32491582492 29.591453225389102 L 114.76262626263 29.707447982449594 L 125.20033670034 30.367074171277068 L 135.63804713805 30.4958067305314 L 146.07575757576 30.257566654882567 L 156.51346801347 30.349389860954034 L 166.95117845118 30.464524617035124 L 177.38888888889 30.65063529687643 L 187.8265993266 30.727836311253725 L 198.26430976431 30.872425456952442 L 208.70202020202 30.951965101613723 L 219.13973063973 31.139795554461955 L 229.57744107744 31.280755009504503 L 240.01515151515 31.219342582825448 L 250.45286195286 31.572716384271303 L 260.89057239057 31.475654756260553 L 271.32828282828 31.894303519233574 L 281.76599326599 31.530942659492098 L 292.2037037037 31.923744400682835 L 302.64141414141 31.89784237318071 L 313.07912457912 32.0140283051677 L 323.51683501684 32.19591413360848 L 333.95454545455 32.12720437682174 L 344.39225589226 32.21757871734968 L 354.82996632997 32.43615822618182 L 365.26767676768 32.46668823233239 L 375.70538720539 32.692164863162475 L 386.1430976431 32.93383944788087 L 396.58080808081 32.80111854465008 L 407.01851851852 33.348081342607145 L 417.45622895623 33.02568732353126 L 427.89393939394 32.929422963649756 L 438.33164983165 33.1258851361452 L 448.76936026936 33.335851527680745 L 459.20707070707 33.27956596607504 L 469.64478114478 33.537289113496456 L 480.08249158249 33.66775546906803 L 490.5202020202 33.63757444301547 L 500.95791245791 33.765440819586104 L 511.39562289562 34.51250206306503 L 521.83333333333 35.31559593341899" class="highcharts-graph" stroke="rgb(228, 26, 28)" stroke-width="2" stroke-linejoin="round" stroke-linecap="round"></path></g><g class="highcharts-markers highcharts-series-3 highcharts-line-series highcharts-color-undefined " transform="translate(63,47) scale(1 1)" width="298" height="527" clip-path="none"></g><g class="highcharts-series highcharts-series-4 highcharts-line-series highcharts-color-undefined " transform="translate(63,47) scale(1 1)" width="298" height="527" clip-path="url(#highcharts-9g19oj0-147)"><path fill="none" d="M 5.1666666666667 28.65544655810561 L 10.385521885522 28.787795565682814 L 15.604377104377 27.84537821003653 L 20.823232323232 27.369900421753186 L 26.042087542088 26.856147932582587 L 31.260942760943 26.759145316289164 L 36.479797979798 27.76067015840215 L 41.698653198653 27.143049923797662 L 46.917508417508 27.403767097683726 L 52.136363636364 26.80642392417525 L 62.574074074074 27.132287807471926 L 73.011784511785 27.082633489056093 L 83.449494949495 27.0449562069507 L 93.887205387205 27.16298033038464 L 104.32491582492 27.21562373765215 L 114.76262626263 27.40679156351581 L 125.20033670034 27.60976020576885 L 135.63804713805 28.094882078100625 L 146.07575757576 28.13910303761105 L 156.51346801347 28.49740934088669 L 166.95117845118 28.35254592598642 L 177.38888888889 28.374764132636813 L 187.8265993266 28.521531786655146 L 198.26430976431 28.581184424410083 L 208.70202020202 28.69207622940405 L 219.13973063973 28.824744294785773 L 229.57744107744 29.099954326974 L 240.01515151515 28.951764012958165 L 250.45286195286 29.204709622327982 L 260.89057239057 29.304967319806963 L 271.32828282828 29.374440860014317 L 281.76599326599 29.71217564868033 L 292.2037037037 29.692219507335096 L 302.64141414141 29.751642194717363 L 313.07912457912 29.718423941598644 L 323.51683501684 30.045549958519473 L 333.95454545455 30.074424689822592 L 344.39225589226 30.271369669683224 L 354.82996632997 30.298458195966475 L 365.26767676768 30.29441743992487 L 375.70538720539 30.309914685279637 L 386.1430976431 30.476787502848254 L 396.58080808081 30.44259718074545 L 407.01851851852 30.560631145895684 L 417.45622895623 31.16375380083406 L 427.89393939394 30.91372572837804 L 438.33164983165 30.88372245810052 L 448.76936026936 30.778361431704298 L 459.20707070707 30.839446438176935 L 469.64478114478 30.975771299666405 L 480.08249158249 31.16493194737876 L 490.5202020202 31.49729049899298 L 500.95791245791 31.345421710494236 L 511.39562289562 31.39558620220646 L 521.83333333333 31.996331883151413" class="highcharts-graph" stroke="rgb(198, 77, 255)" stroke-width="2" stroke-linejoin="round" stroke-linecap="round"></path></g><g class="highcharts-markers highcharts-series-4 highcharts-line-series highcharts-color-undefined " transform="translate(63,47) scale(1 1)" width="298" height="527" clip-path="none"></g><g class="highcharts-series highcharts-series-5 highcharts-line-series highcharts-color-undefined " transform="translate(63,47) scale(1 1)" width="298" height="527" clip-path="url(#highcharts-9g19oj0-147)"><path fill="none" d="M 5.1666666666667 31.20307445007603 L 10.385521885522 29.421458063934267 L 15.604377104377 28.82231990765888 L 20.823232323232 28.69904097267363 L 26.042087542088 28.816483237877208 L 31.260942760943 28.560546212222732 L 36.479797979798 29.25048617150486 L 41.698653198653 28.705156934405863 L 46.917508417508 29.135649833196055 L 52.136363636364 28.613516058582036 L 62.574074074074 29.000472263140637 L 73.011784511785 29.067959838085244 L 83.449494949495 29.086634760856498 L 93.887205387205 29.217179010448547 L 104.32491582492 29.283455189806773 L 114.76262626263 29.35646802400828 L 125.20033670034 30.066259523150336 L 135.63804713805 30.2041988916082 L 146.07575757576 29.96013097587479 L 156.51346801347 30.023377702044797 L 166.95117845118 30.145532486929085 L 177.38888888889 30.365131634875297 L 187.8265993266 30.411086132923458 L 198.26430976431 30.553162679643947 L 208.70202020202 30.64189719023193 L 219.13973063973 30.77377811779968 L 229.57744107744 30.950158764843707 L 240.01515151515 30.885658616298542 L 250.45286195286 31.23891199620425 L 260.89057239057 31.204217352636476 L 271.32828282828 31.610998963308305 L 281.76599326599 31.24420491115751 L 292.2037037037 31.598524654329594 L 302.64141414141 31.575886179791667 L 313.07912457912 31.71024216602592 L 323.51683501684 31.88415999005082 L 333.95454545455 31.816852691410475 L 344.39225589226 31.9001050334997 L 354.82996632997 32.13174139852197 L 365.26767676768 32.14662619652813 L 375.70538720539 32.38864371035601 L 386.1430976431 32.621690965215066 L 396.58080808081 32.48023810401952 L 407.01851851852 33.05394233932441 L 417.45622895623 32.74475404742151 L 427.89393939394 32.68739665751531 L 438.33164983165 32.87816742332262 L 448.76936026936 33.072924084252634 L 459.20707070707 33.02572700301687 L 469.64478114478 33.27580986989369 L 480.08249158249 33.41140159001293 L 490.5202020202 33.371956788849104 L 500.95791245791 33.494305814635254 L 511.39562289562 34.19496307053481 L 521.83333333333 35.006082553809165" class="highcharts-graph" stroke="rgb(198, 77, 255)" stroke-width="2" stroke-linejoin="round" stroke-linecap="round"></path></g><g class="highcharts-markers highcharts-series-5 highcharts-line-series highcharts-color-undefined " transform="translate(63,47) scale(1 1)" width="298" height="527" clip-path="none"></g><g class="highcharts-series highcharts-series-6 highcharts-line-series highcharts-color-undefined " transform="translate(63,47) scale(1 1)" width="298" height="527" clip-path="url(#highcharts-9g19oj0-147)"><path fill="none" d="M 5.1666666666667 28.77696760859243 L 10.385521885522 29.07966959136411 L 15.604377104377 27.998631820458343 L 20.823232323232 27.50126307038363 L 26.042087542088 26.97669769363148 L 31.260942760943 26.87026521989452 L 36.479797979798 27.939459982847552 L 41.698653198653 27.28796590765478 L 46.917508417508 27.56672498638676 L 52.136363636364 26.95102646133455 L 62.574074074074 27.301855302759577 L 73.011784511785 27.243145418208087 L 83.449494949495 27.186439299851315 L 93.887205387205 27.30649314099037 L 104.32491582492 27.36761924636579 L 114.76262626263 27.549441897545364 L 125.20033670034 27.72315465231543 L 135.63804713805 28.21040857739615 L 146.07575757576 28.242600864615156 L 156.51346801347 28.540897196508354 L 166.95117845118 28.42406564505086 L 177.38888888889 28.438964914682686 L 187.8265993266 28.57878209378896 L 198.26430976431 28.630316933886263 L 208.70202020202 28.700431266424914 L 219.13973063973 28.809957198312986 L 229.57744107744 29.02532980793785 L 240.01515151515 28.957069099584828 L 250.45286195286 29.175711075675963 L 260.89057239057 29.280500124040202 L 271.32828282828 29.31838201848069 L 281.76599326599 29.60762817752368 L 292.2037037037 29.592207527656797 L 302.64141414141 29.662793160805563 L 313.07912457912 29.63695769252371 L 323.51683501684 29.86284629690448 L 333.95454545455 29.906213557001024 L 344.39225589226 30.090438092864304 L 354.82996632997 30.109075511061405 L 365.26767676768 30.10209327800669 L 375.70538720539 30.151006154294635 L 386.1430976431 30.302754973571837 L 396.58080808081 30.3090468924147 L 407.01851851852 30.43966918114711 L 417.45622895623 31.00338258537323 L 427.89393939394 30.756486353232276 L 438.33164983165 30.690134337279233 L 448.76936026936 30.56351241286626 L 459.20707070707 30.654978343664766 L 469.64478114478 30.78137747670928 L 480.08249158249 30.944352365580187 L 490.5202020202 31.22414844126655 L 500.95791245791 31.053337592503567 L 511.39562289562 31.091572078501088 L 521.83333333333 31.714550166219112" class="highcharts-graph" stroke="rgb(198, 77, 255)" stroke-width="2" stroke-linejoin="round" stroke-linecap="round"></path></g><g class="highcharts-markers highcharts-series-6 highcharts-line-series highcharts-color-undefined " transform="translate(63,47) scale(1 1)" width="298" height="527" clip-path="none"></g><g class="highcharts-series highcharts-series-7 highcharts-line-series highcharts-color-undefined " transform="translate(63,47) scale(1 1)" width="298" height="527" clip-path="url(#highcharts-9g19oj0-147)"><path fill="none" d="M 5.1666666666667 32.43718472193399 L 10.385521885522 30.96962543095532 L 15.604377104377 30.157538881547055 L 20.823232323232 30.12668053343026 L 26.042087542088 30.196018631781442 L 31.260942760943 29.899139446723325 L 36.479797979798 30.550723800853234 L 41.698653198653 29.884110909664912 L 46.917508417508 30.30418984685059 L 52.136363636364 29.708614855289 L 62.574074074074 30.142480800415854 L 73.011784511785 30.211417196243076 L 83.449494949495 30.22231605312254 L 93.887205387205 30.314253526695666 L 104.32491582492 30.366855924911192 L 114.76262626263 30.466316384936647 L 125.20033670034 31.230649929294486 L 135.63804713805 31.37003232620191 L 146.07575757576 31.062107484125704 L 156.51346801347 31.132613396710838 L 166.95117845118 31.251019114485302 L 177.38888888889 31.48047649755847 L 187.8265993266 31.577598810604854 L 198.26430976431 31.739289743132645 L 208.70202020202 31.78477356966249 L 219.13973063973 31.97336379925656 L 229.57744107744 32.14224464514086 L 240.01515151515 32.06131984577661 L 250.45286195286 32.455645311590615 L 260.89057239057 32.33905461697566 L 271.32828282828 32.810852390869286 L 281.76599326599 32.390658812994616 L 292.2037037037 32.87425789410861 L 302.64141414141 32.83891780701782 L 313.07912457912 32.95676644950515 L 323.51683501684 33.15013487589215 L 333.95454545455 33.06532725887172 L 344.39225589226 33.171821823594485 L 354.82996632997 33.42165236335677 L 365.26767676768 33.44547176348567 L 375.70538720539 33.69950996040592 L 386.1430976431 33.95417027800619 L 396.58080808081 33.814779114742635 L 407.01851851852 34.42689312040801 L 417.45622895623 34.058970320640185 L 427.89393939394 33.94570401227293 L 438.33164983165 34.15292667147486 L 448.76936026936 34.385957143769076 L 459.20707070707 34.31905415507532 L 469.64478114478 34.62272416634289 L 480.08249158249 34.7507787845538 L 490.5202020202 34.69807646925284 L 500.95791245791 34.838740352425134 L 511.39562289562 35.68638653528802 L 521.83333333333 36.548174158099584" class="highcharts-graph" stroke="rgb(198, 77, 255)" stroke-width="2" stroke-linejoin="round" stroke-linecap="round"></path></g><g class="highcharts-markers highcharts-series-7 highcharts-line-series highcharts-color-undefined " transform="translate(63,47) scale(1 1)" width="298" height="527" clip-path="none"></g><g class="highcharts-series highcharts-series-8 highcharts-line-series highcharts-color-undefined " transform="translate(63,47) scale(1 1)" width="298" height="527" clip-path="url(#highcharts-9g19oj0-147)"><path fill="none" d="M 5.1666666666667 28.796663296064082 L 10.385521885522 29.04046588142279 L 15.604377104377 28.022340299990276 L 20.823232323232 27.51080596513907 L 26.042087542088 27.001198317685066 L 31.260942760943 26.898209181458583 L 36.479797979798 27.916417982012433 L 41.698653198653 27.268094049797526 L 46.917508417508 27.53951996304511 L 52.136363636364 26.928888287850384 L 62.574074074074 27.30581638473774 L 73.011784511785 27.27682270468881 L 83.449494949495 27.2224730723903 L 93.887205387205 27.328868772189992 L 104.32491582492 27.385560018386172 L 114.76262626263 27.5675043853974 L 125.20033670034 27.755990859428096 L 135.63804713805 28.250888065798677 L 146.07575757576 28.28452846563738 L 156.51346801347 28.603096682605212 L 166.95117845118 28.498098171272147 L 177.38888888889 28.51855158198856 L 187.8265993266 28.635027636277925 L 198.26430976431 28.70150781061534 L 208.70202020202 28.78994189063127 L 219.13973063973 28.930840153120812 L 229.57744107744 29.160658525054146 L 240.01515151515 29.046121486920754 L 250.45286195286 29.22748576457775 L 260.89057239057 29.362403356840503 L 271.32828282828 29.442169044087507 L 281.76599326599 29.74761324425674 L 292.2037037037 29.696642276400723 L 302.64141414141 29.75393837575092 L 313.07912457912 29.725397990149816 L 323.51683501684 30.019874324625277 L 333.95454545455 30.081720905049565 L 344.39225589226 30.24687026107091 L 354.82996632997 30.238573219017212 L 365.26767676768 30.217484452097096 L 375.70538720539 30.294302715750746 L 386.1430976431 30.502831925293606 L 396.58080808081 30.488960158650343 L 407.01851851852 30.5769862205222 L 417.45622895623 31.11254957182456 L 427.89393939394 30.90251455319941 L 438.33164983165 30.891529044626793 L 448.76936026936 30.770040659082156 L 459.20707070707 30.82143160185268 L 469.64478114478 30.91964222810998 L 480.08249158249 31.08986837566391 L 490.5202020202 31.415763807760356 L 500.95791245791 31.27189325159526 L 511.39562289562 31.29743865222781 L 521.83333333333 31.863099107484572" class="highcharts-graph" stroke="rgb(102, 115, 143)" stroke-width="2" stroke-linejoin="round" stroke-linecap="round"></path></g><g class="highcharts-markers highcharts-series-8 highcharts-line-series highcharts-color-undefined " transform="translate(63,47) scale(1 1)" width="298" height="527" clip-path="none"></g><g class="highcharts-series highcharts-series-9 highcharts-line-series highcharts-color-undefined " transform="translate(63,47) scale(1 1)" width="298" height="527" clip-path="url(#highcharts-9g19oj0-147)"><path fill="none" d="M 5.1666666666667 31.653622177756404 L 10.385521885522 29.97402850679498 L 15.604377104377 29.37257766497413 L 20.823232323232 29.434866592758794 L 26.042087542088 29.631109609683904 L 31.260942760943 29.333291650183412 L 36.479797979798 29.978705357645993 L 41.698653198653 29.405923343710015 L 46.917508417508 29.80018641933441 L 52.136363636364 29.369334988866 L 62.574074074074 29.79813081138269 L 73.011784511785 29.91494452486552 L 83.449494949495 29.965986542507892 L 93.887205387205 30.12374587050067 L 104.32491582492 30.19669673008275 L 114.76262626263 30.30741844252202 L 125.20033670034 30.986514743937164 L 135.63804713805 31.13890006165809 L 146.07575757576 30.91454827196941 L 156.51346801347 31.017400675884744 L 166.95117845118 31.14464542264517 L 177.38888888889 31.340235599911352 L 187.8265993266 31.4084588587952 L 198.26430976431 31.565926813580802 L 208.70202020202 31.64389175807787 L 219.13973063973 31.826903412977572 L 229.57744107744 31.970553911427828 L 240.01515151515 31.90881478251265 L 250.45286195286 32.252531435338824 L 260.89057239057 32.16878876686303 L 271.32828282828 32.56954043631714 L 281.76599326599 32.22816454712927 L 292.2037037037 32.620522351260604 L 302.64141414141 32.59144125393544 L 313.07912457912 32.70739466450925 L 323.51683501684 32.88438940688286 L 333.95454545455 32.813922473335595 L 344.39225589226 32.90766472167485 L 354.82996632997 33.126956565591854 L 365.26767676768 33.15943040977788 L 375.70538720539 33.38971429863528 L 386.1430976431 33.62470984583064 L 396.58080808081 33.50954669806248 L 407.01851851852 34.04608800689397 L 417.45622895623 33.7414241321257 L 427.89393939394 33.63705008305004 L 438.33164983165 33.835367201065026 L 448.76936026936 34.04088415474888 L 459.20707070707 33.98085611937694 L 469.64478114478 34.233454264399484 L 480.08249158249 34.352053415966395 L 490.5202020202 34.3200435476096 L 500.95791245791 34.45265736251014 L 511.39562289562 35.19589477514279 L 521.83333333333 35.971046508252186" class="highcharts-graph" stroke="rgb(102, 115, 143)" stroke-width="2" stroke-linejoin="round" stroke-linecap="round"></path></g><g class="highcharts-markers highcharts-series-9 highcharts-line-series highcharts-color-undefined " transform="translate(63,47) scale(1 1)" width="298" height="527" clip-path="none"></g><g class="highcharts-series highcharts-series-10 highcharts-line-series highcharts-color-undefined " transform="translate(63,47) scale(1 1)" width="298" height="527" clip-path="url(#highcharts-9g19oj0-147)"><path fill="none" d="M 5.1666666666667 28.66694684204583 L 10.385521885522 28.919084489670524 L 15.604377104377 27.912392072395335 L 20.823232323232 27.408818923320666 L 26.042087542088 26.883302251236785 L 31.260942760943 26.783988593389665 L 36.479797979798 27.82957050099168 L 41.698653198653 27.166638221775543 L 46.917508417508 27.43432412788343 L 52.136363636364 26.78467127525937 L 62.574074074074 27.15489222937896 L 73.011784511785 27.131097689140802 L 83.449494949495 27.08082668506762 L 93.887205387205 27.1798886427369 L 104.32491582492 27.218280839156705 L 114.76262626263 27.399467135837824 L 125.20033670034 27.587485785185322 L 135.63804713805 28.056848128512456 L 146.07575757576 28.08744840111774 L 156.51346801347 28.389354081819533 L 166.95117845118 28.28211263167691 L 177.38888888889 28.302347016973613 L 187.8265993266 28.416795793891538 L 198.26430976431 28.470642171320947 L 208.70202020202 28.56608114441758 L 219.13973063973 28.69893160874915 L 229.57744107744 28.897968438151906 L 240.01515151515 28.799547514464734 L 250.45286195286 28.98565894817375 L 260.89057239057 29.114042116001713 L 271.32828282828 29.183699615443572 L 281.76599326599 29.483566028556027 L 292.2037037037 29.437606701960476 L 302.64141414141 29.487322543984874 L 313.07912457912 29.465599091658078 L 323.51683501684 29.752979630255254 L 333.95454545455 29.810077214492765 L 344.39225589226 29.971690721416564 L 354.82996632997 29.962150206506976 L 365.26767676768 29.945324269069374 L 375.70538720539 30.036383248794834 L 386.1430976431 30.241528816706193 L 396.58080808081 30.229770038932827 L 407.01851851852 30.319741593742833 L 417.45622895623 30.87294786154621 L 427.89393939394 30.655414599363326 L 438.33164983165 30.657054133103202 L 448.76936026936 30.533848374960428 L 459.20707070707 30.592320005543968 L 469.64478114478 30.69361224814753 L 480.08249158249 30.86453856623791 L 490.5202020202 31.205758278563508 L 500.95791245791 31.06055060449677 L 511.39562289562 31.086151603971814 L 521.83333333333 31.66155056651081" class="highcharts-graph" stroke="rgb(102, 115, 143)" stroke-width="2" stroke-linejoin="round" stroke-linecap="round"></path></g><g class="highcharts-markers highcharts-series-10 highcharts-line-series highcharts-color-undefined " transform="translate(63,47) scale(1 1)" width="298" height="527" clip-path="none"></g><g class="highcharts-series highcharts-series-11 highcharts-line-series highcharts-color-undefined " transform="translate(63,47) scale(1 1)" width="298" height="527" clip-path="url(#highcharts-9g19oj0-147)"><path fill="none" d="M 5.1666666666667 31.618058340559003 L 10.385521885522 30.177774774145632 L 15.604377104377 29.244347049990438 L 20.823232323232 29.28212325840866 L 26.042087542088 29.352226814837366 L 31.260942760943 29.14418125632517 L 36.479797979798 29.740042212490835 L 41.698653198653 29.167704822907126 L 46.917508417508 29.427527913148936 L 52.136363636364 28.975455311112512 L 62.574074074074 29.402752142953034 L 73.011784511785 29.402178518438518 L 83.449494949495 29.42723480361667 L 93.887205387205 29.557228022487436 L 104.32491582492 29.626399629906643 L 114.76262626263 29.7311857629432 L 125.20033670034 30.414923952878837 L 135.63804713805 30.557316840385226 L 146.07575757576 30.30932695025888 L 156.51346801347 30.38654084588478 L 166.95117845118 30.492297665713977 L 177.38888888889 30.679137484243824 L 187.8265993266 30.74467837861647 L 198.26430976431 30.90625801383328 L 208.70202020202 30.982265933569238 L 219.13973063973 31.150723528990454 L 229.57744107744 31.30169483180697 L 240.01515151515 31.250209121530645 L 250.45286195286 31.63689377664906 L 260.89057239057 31.554960025622506 L 271.32828282828 31.981607522527327 L 281.76599326599 31.59449837381868 L 292.2037037037 32.00884462086486 L 302.64141414141 31.98550935235005 L 313.07912457912 32.11244309735724 L 323.51683501684 32.30230770703099 L 333.95454545455 32.20738320222807 L 344.39225589226 32.29295687368068 L 354.82996632997 32.53834002585836 L 365.26767676768 32.584565555447114 L 375.70538720539 32.822323757013976 L 386.1430976431 33.05993731207991 L 396.58080808081 32.92642768524706 L 407.01851851852 33.49987601911448 L 417.45622895623 33.170663970048906 L 427.89393939394 33.071172843539614 L 438.33164983165 33.26746086465084 L 448.76936026936 33.478465045211635 L 459.20707070707 33.42269828511377 L 469.64478114478 33.686594138032206 L 480.08249158249 33.82629713493452 L 490.5202020202 33.787404973036416 L 500.95791245791 33.91627002553014 L 511.39562289562 34.699125751358565 L 521.83333333333 35.518781703376646" class="highcharts-graph" stroke="rgb(102, 115, 143)" stroke-width="2" stroke-linejoin="round" stroke-linecap="round"></path></g><g class="highcharts-markers highcharts-series-11 highcharts-line-series highcharts-color-undefined " transform="translate(63,47) scale(1 1)" width="298" height="527" clip-path="none"></g></g><text x="330" text-anchor="middle" class="highcharts-title" style="color:#333333;font-size:18px;fill:#333333;width:536px;" y="24"><tspan>FastQC: Mean Quality Scores</tspan></text><g class="highcharts-axis-labels highcharts-xaxis-labels "><text x="167.32491582491582" style="color:#666666;cursor:default;font-size:11px;fill:#666666;width:122px;text-overflow:clip;" text-anchor="middle" transform="translate(0,0)" y="364" opacity="1"><tspan>20</tspan></text><text x="271.7020202020202" style="color:#666666;cursor:default;font-size:11px;fill:#666666;width:122px;text-overflow:clip;" text-anchor="middle" transform="translate(0,0)" y="364" opacity="1"><tspan>40</tspan></text><text x="376.07912457912465" style="color:#666666;cursor:default;font-size:11px;fill:#666666;width:122px;text-overflow:clip;" text-anchor="middle" transform="translate(0,0)" y="364" opacity="1"><tspan>60</tspan></text><text x="480.456228956229" style="color:#666666;cursor:default;font-size:11px;fill:#666666;width:122px;text-overflow:clip;" text-anchor="middle" transform="translate(0,0)" y="364" opacity="1"><tspan>80</tspan></text><text x="579.56640625" style="color:#666666;cursor:default;font-size:11px;fill:#666666;width:122px;text-overflow:clip;" text-anchor="middle" transform="translate(0,0)" y="364" opacity="1"><tspan>100</tspan></text></g><g class="highcharts-axis-labels highcharts-yaxis-labels "><text x="48" style="color:#666666;cursor:default;font-size:11px;fill:#666666;width:188px;text-overflow:clip;" text-anchor="end" transform="translate(0,0)" y="350" opacity="1"><tspan>0</tspan></text><text x="48" style="color:#666666;cursor:default;font-size:11px;fill:#666666;width:188px;text-overflow:clip;" text-anchor="end" transform="translate(0,0)" y="275" opacity="1"><tspan>10</tspan></text><text x="48" style="color:#666666;cursor:default;font-size:11px;fill:#666666;width:188px;text-overflow:clip;" text-anchor="end" transform="translate(0,0)" y="201" opacity="1"><tspan>20</tspan></text><text x="48" style="color:#666666;cursor:default;font-size:11px;fill:#666666;width:188px;text-overflow:clip;" text-anchor="end" transform="translate(0,0)" y="126" opacity="1"><tspan>30</tspan></text><text x="48" style="color:#666666;cursor:default;font-size:11px;fill:#666666;width:188px;text-overflow:clip;" text-anchor="end" transform="translate(0,0)" y="52" opacity="1"><tspan>40</tspan></text></g><text x="590" class="highcharts-credits" text-anchor="end" style="cursor:pointer;color:#999999;font-size:9px;fill:#999999;" y="395"><tspan>Created with MultiQC</tspan></text></svg>