<svg xmlns:xlink="http://www.w3.org/1999/xlink" version="1.1" class="highcharts-root" style="font-family:&quot;lucida grande&quot;, &quot;lucida sans unicode&quot;, arial, helvetica, sans-serif;font-size:12px;" xmlns="http://www.w3.org/2000/svg" width="600" height="400"><desc>Created with Highcharts 5.0.6</desc><defs><clipPath id="highcharts-9g19oj0-179"><rect x="0" y="0" width="534" height="298" fill="none"></rect></clipPath></defs><rect fill="#ffffff" class="highcharts-background" x="0" y="0" width="600" height="400" rx="0" ry="0"></rect><rect fill="none" class="highcharts-plot-background" x="56" y="47" width="534" height="298"></rect><g class="highcharts-grid highcharts-xaxis-grid "><path fill="none" class="highcharts-grid-line" d="M 55.5 47 L 55.5 345" opacity="1"></path><path fill="none" class="highcharts-grid-line" d="M 162.5 47 L 162.5 345" opacity="1"></path><path fill="none" class="highcharts-grid-line" d="M 269.5 47 L 269.5 345" opacity="1"></path><path fill="none" class="highcharts-grid-line" d="M 375.5 47 L 375.5 345" opacity="1"></path><path fill="none" class="highcharts-grid-line" d="M 482.5 47 L 482.5 345" opacity="1"></path><path fill="none" class="highcharts-grid-line" d="M 589.5 47 L 589.5 345" opacity="1"></path></g><g class="highcharts-grid highcharts-yaxis-grid "><path fill="none" stroke="#e6e6e6" stroke-width="1" class="highcharts-grid-line" d="M 56 345.5 L 590 345.5" opacity="1"></path><path fill="none" stroke="#e6e6e6" stroke-width="1" class="highcharts-grid-line" d="M 56 285.5 L 590 285.5" opacity="1"></path><path fill="none" stroke="#e6e6e6" stroke-width="1" class="highcharts-grid-line" d="M 56 226.5 L 590 226.5" opacity="1"></path><path fill="none" stroke="#e6e6e6" stroke-width="1" class="highcharts-grid-line" d="M 56 166.5 L 590 166.5" opacity="1"></path><path fill="none" stroke="#e6e6e6" stroke-width="1" class="highcharts-grid-line" d="M 56 107.5 L 590 107.5" opacity="1"></path><path fill="none" stroke="#e6e6e6" stroke-width="1" class="highcharts-grid-line" d="M 56 46.5 L 590 46.5" opacity="1"></path></g><rect fill="none" class="highcharts-plot-border" x="56" y="47" width="534" height="298"></rect><g class="highcharts-axis highcharts-xaxis "><path fill="none" class="highcharts-tick" stroke="#ccd6eb" stroke-width="1" d="M 55.5 345 L 55.5 355" opacity="1"></path><path fill="none" class="highcharts-tick" stroke="#ccd6eb" stroke-width="1" d="M 162.5 345 L 162.5 355" opacity="1"></path><path fill="none" class="highcharts-tick" stroke="#ccd6eb" stroke-width="1" d="M 269.5 345 L 269.5 355" opacity="1"></path><path fill="none" class="highcharts-tick" stroke="#ccd6eb" stroke-width="1" d="M 375.5 345 L 375.5 355" opacity="1"></path><path fill="none" class="highcharts-tick" stroke="#ccd6eb" stroke-width="1" d="M 482.5 345 L 482.5 355" opacity="1"></path><path fill="none" class="highcharts-tick" stroke="#ccd6eb" stroke-width="1" d="M 590.5 345 L 590.5 355" opacity="1"></path><text x="323" text-anchor="middle" transform="translate(0,0)" class="highcharts-axis-title" style="color:#666666;fill:#666666;" y="383"><tspan>% GC</tspan></text><path fill="none" class="highcharts-axis-line" stroke="#ccd6eb" stroke-width="1" d="M 56 345.5 L 590 345.5"></path></g><g class="highcharts-axis highcharts-yaxis "><text x="24.0390625" text-anchor="middle" transform="translate(0,0) rotate(270 24.0390625 196)" class="highcharts-axis-title" style="color:#666666;fill:#666666;" y="196">Percentage</text><path fill="none" class="highcharts-axis-line" d="M 56 47 L 56 345"></path></g><g class="highcharts-series-group"><g class="highcharts-series highcharts-series-0 highcharts-line-series highcharts-color-undefined " transform="translate(56,47) scale(1 1)" width="298" height="534" clip-path="url(#highcharts-9g19oj0-179)"><path fill="none" d="M 0 297.99364228473127 L 5.34 297.99364228473127 L 10.68 297.9914535630814 L 16.02 297.98749301914347 L 21.36 297.98447049876984 L 26.7 297.9805099548319 L 32.04 297.9773310971975 L 37.38 297.97441280166436 L 42.72 297.96941000932173 L 48.06 297.96508467844217 L 53.4 297.9612283593448 L 58.74 297.9507016504572 L 64.08 297.93173272949144 L 69.42 297.9082300279652 L 74.76 297.87659778888224 L 80.1 297.8339177167093 L 85.44 297.7600223048154 L 90.78 297.6187455335568 L 96.12 297.4205098869808 L 101.46 297.12253106807407 L 106.8 296.5878055240372 L 112.14 295.78454467852663 L 117.48 294.7216076429824 L 122.82 293.1912221979254 L 128.16 290.89650388527383 L 133.5 288.03714749937023 L 138.84 284.3932907392408 L 144.18 279.51207667303885 L 149.52 273.96403207750296 L 154.86 265.72828940831937 L 160.2 254.9466465609488 L 165.54 243.75727613765542 L 170.88 231.028869607546 L 176.22 214.6393571062092 L 181.56 198.83298258730804 L 186.9 184.0335242521979 L 192.24 165.05121039446226 L 197.58 144.94123587524982 L 202.92 131.8786845065901 L 208.26 123.63804326990433 L 213.6 116.47331506140142 L 218.94 112.8902734956869 L 224.28 109.77676483629457 L 229.62 104.10609971594445 L 234.96 93.93610034487844 L 240.3 79.85079061667608 L 245.64 70.77410982215159 L 250.98 66.56915863334618 L 256.32 59.990903602174 L 261.66 55.2207932159142 L 267 60.308424578669104 L 272.34 69.15810367064762 L 277.68 74.09017945899947 L 283.02 78.76961423404944 L 288.36 85.4537617031402 L 293.7 95.31223302603823 L 299.04 109.57337006011528 L 304.38 125.57308165809027 L 309.72 139.21527947702984 L 315.06 154.25789436495896 L 320.4 173.7392367588701 L 325.74 192.86538089645586 L 331.08 210.26081944559922 L 336.42 227.10939025679085 L 341.76 242.04850987813222 L 347.1 254.87566944458803 L 352.44 264.0833087511644 L 357.78 270.1364269236231 L 363.12 275.3947264626494 L 368.46 279.5267723755453 L 373.8 282.86014333591135 L 379.14 286.1497398632796 L 384.48 288.49740439489045 L 389.82 290.52442120479213 L 395.16 292.2843618609866 L 400.5 293.511713582374 L 405.84 294.64964039063716 L 411.18 295.72425060831415 L 416.52 296.67306144354257 L 421.86 297.24259808429673 L 427.2 297.5458923700675 L 432.54 297.6958719155054 L 437.88 297.7698194398196 L 443.22 297.8281332380632 L 448.56 297.85919224052356 L 453.9 297.873002031886 L 459.24 297.8912934913887 L 464.58 297.91151311044007 L 469.92 297.92469755275965 L 475.26 297.9308989307677 L 480.6 297.9390284683244 L 485.94 297.9482002542859 L 491.28 297.95398473293204 L 496.62 297.9596128743175 L 501.96 297.9632086313137 L 507.3 297.96534524054334 L 512.64 297.9647198915005 L 517.98 297.9611241345043 L 523.32 297.9446044972896 L 528.66 297.95679880362474 L 534 297.98921272901123" class="highcharts-graph" stroke="rgb(228, 26, 28)" stroke-width="2" stroke-linejoin="round" stroke-linecap="round"></path></g><g class="highcharts-markers highcharts-series-0 highcharts-line-series highcharts-color-undefined " transform="translate(56,47) scale(1 1)" width="298" height="534" clip-path="none"></g><g class="highcharts-series highcharts-series-1 highcharts-line-series highcharts-color-undefined " transform="translate(56,47) scale(1 1)" width="298" height="534" clip-path="url(#highcharts-9g19oj0-179)"><path fill="none" d="M 0 297.98863694353304 L 5.34 297.97972372034104 L 10.68 297.94214223542036 L 16.02 297.87073220165996 L 21.36 297.78206908675014 L 26.7 297.6874638230456 L 32.04 297.5860303006385 L 37.38 297.504351816768 L 42.72 297.4420635026485 L 48.06 297.3669005328073 L 53.4 297.29611598839364 L 58.74 297.2338797983864 L 64.08 297.1589253249941 L 69.42 297.0914245996512 L 74.76 297.01876358719716 L 80.1 296.91446323861715 L 85.44 296.78587305373617 L 90.78 296.5928574661341 L 96.12 296.34250535507476 L 101.46 296.00208277807525 L 106.8 295.40333310084463 L 112.14 294.51941240558244 L 117.48 293.40077683293106 L 122.82 291.7841474919972 L 128.16 289.4057763748773 L 133.5 286.47848623182244 L 138.84 282.7677706818923 L 144.18 277.8473587352382 L 149.52 272.19027671038253 L 154.86 263.8085630908374 L 160.2 252.9584600123445 L 165.54 241.71779096088306 L 170.88 228.94785258059176 L 176.22 212.58280993130506 L 181.56 196.67067369321853 L 186.9 181.79210647661773 L 192.24 163.06657128070736 L 197.58 143.46587224039013 L 202.92 130.77641348938792 L 208.26 122.70937313539872 L 213.6 115.79312893130921 L 218.94 112.21241091729036 L 224.28 108.77967325790351 L 229.62 103.28897139929845 L 234.96 94.10220086630102 L 240.3 80.83499845529846 L 245.64 71.94830643643144 L 250.98 68.47642356875693 L 256.32 62.8220519977375 L 261.66 58.49611555111076 L 267 63.691690686247625 L 272.34 72.79824221051712 L 277.68 78.31083619626037 L 283.02 83.32309082867062 L 288.36 90.37881915709804 L 293.7 100.19290338083027 L 299.04 113.88225897681502 L 304.38 129.37255477459271 L 309.72 142.6060850090922 L 315.06 157.14162344308187 L 320.4 175.9480552611792 L 325.74 194.49183367772997 L 331.08 211.46031717434838 L 336.42 227.94097110456985 L 341.76 242.53207384220082 L 347.1 255.09883243300445 L 352.44 264.28831341983806 L 357.78 270.3821433811014 L 363.12 275.56202915845574 L 368.46 279.6294300084024 L 373.8 282.9089227778216 L 379.14 286.14682050567825 L 384.48 288.48604641451044 L 389.82 290.4633746121028 L 395.16 292.19009007807466 L 400.5 293.3453167775142 L 405.84 294.4073976883918 L 411.18 295.43080250799187 L 416.52 296.30810344100036 L 421.86 296.8448775487849 L 427.2 297.14365296010953 L 432.54 297.30502921158563 L 437.88 297.38675981956834 L 443.22 297.43716383609853 L 448.56 297.4852222675782 L 453.9 297.51931143697914 L 459.24 297.5445916314126 L 464.58 297.57753407034437 L 469.92 297.591711828872 L 475.26 297.5960902542996 L 480.6 297.6160537892852 L 485.94 297.6417509766165 L 491.28 297.6574403343989 L 496.62 297.6721393340489 L 501.96 297.69090401445305 L 507.3 297.6992959965227 L 512.64 297.7049775247562 L 517.98 297.7076879785924 L 523.32 297.7051860212052 L 528.66 297.65644997626646 L 534 296.46207806853926" class="highcharts-graph" stroke="rgb(228, 26, 28)" stroke-width="2" stroke-linejoin="round" stroke-linecap="round"></path></g><g class="highcharts-markers highcharts-series-1 highcharts-line-series highcharts-color-undefined " transform="translate(56,47) scale(1 1)" width="298" height="534" clip-path="none"></g><g class="highcharts-series highcharts-series-2 highcharts-line-series highcharts-color-undefined " transform="translate(56,47) scale(1 1)" width="298" height="534" clip-path="url(#highcharts-9g19oj0-179)"><path fill="none" d="M 0 297.9940472494428 L 5.34 297.9945509437207 L 10.68 297.9932230224426 L 16.02 297.98942242016375 L 21.36 297.9861713025517 L 26.7 297.98319492727313 L 32.04 297.9804017135501 L 37.38 297.9773795478826 L 42.72 297.9744947533818 L 48.06 297.97330420327035 L 53.4 297.9682672604912 L 58.74 297.9582849557106 L 64.08 297.94239569076177 L 69.42 297.92160685420043 L 74.76 297.8984827078051 L 80.1 297.8603393138501 L 85.44 297.79806438494387 L 90.78 297.6860610936905 L 96.12 297.5212156936447 L 101.46 297.26936855468585 L 106.8 296.80276449177836 L 112.14 296.0958524679153 L 117.48 295.1777551704379 L 122.82 293.85876301812687 L 128.16 291.83725471928733 L 133.5 289.2440992054 L 138.84 285.8763076824641 L 144.18 281.30949482613937 L 149.52 276.0729059513507 L 154.86 268.10908730397085 L 160.2 257.6549583561767 L 165.54 246.76188274037162 L 170.88 233.9189149939691 L 176.22 216.90210750879555 L 181.56 200.81695127621424 L 186.9 185.68725729845403 L 192.24 166.266317024779 L 197.58 145.75377967007842 L 202.92 132.27130335227594 L 208.26 124.08828611322403 L 213.6 116.75335266701893 L 218.94 112.4864668579998 L 224.28 109.52630137706603 L 229.62 105.2107861750334 L 234.96 95.7439895927358 L 240.3 81.20911276680758 L 245.64 72.30448478905512 L 250.98 68.87139617154548 L 256.32 61.91986565161358 L 261.66 55.93084910639365 L 267 60.01544337719548 L 272.34 68.17185640029552 L 277.68 72.52963613128438 L 283.02 76.82101979836585 L 288.36 83.11600772222641 L 293.7 92.51169183055978 L 299.04 105.74822796957164 L 304.38 121.01304938498052 L 309.72 134.84119734860127 L 315.06 150.45700209494103 L 320.4 170.9976547484272 L 325.74 191.00489516159848 L 331.08 208.84391486988943 L 336.42 225.90976386157664 L 341.76 240.97031435209541 L 347.1 254.06316025073403 L 352.44 263.3186799786395 L 357.78 269.24945114917665 L 363.12 274.6937910184119 L 368.46 279.13953408648075 L 373.8 282.64836000723363 L 379.14 285.97443648588023 L 384.48 288.43246456211887 L 389.82 290.4860719235785 L 395.16 292.11318760280847 L 400.5 293.2827199257446 L 405.84 294.437233001121 L 411.18 295.5862054394403 L 416.52 296.5594343651552 L 421.86 297.145963456596 L 427.2 297.49644309324896 L 432.54 297.685832141746 L 437.88 297.772879671048 L 443.22 297.826408635674 L 448.56 297.85772926168266 L 453.9 297.8810365696336 L 459.24 297.89610160758224 L 464.58 297.90411492564004 L 469.92 297.9199126098111 L 475.26 297.9353439708709 L 480.6 297.94390677359553 L 485.94 297.9496305722082 L 491.28 297.95512541887643 L 496.62 297.9588344403775 L 501.96 297.9604828943779 L 507.3 297.96391717354555 L 512.64 297.96785514699104 L 517.98 297.9681756797134 L 523.32 297.96808409893555 L 528.66 297.97930274421645 L 534 297.9935893455538" class="highcharts-graph" stroke="rgb(228, 26, 28)" stroke-width="2" stroke-linejoin="round" stroke-linecap="round"></path></g><g class="highcharts-markers highcharts-series-2 highcharts-line-series highcharts-color-undefined " transform="translate(56,47) scale(1 1)" width="298" height="534" clip-path="none"></g><g class="highcharts-series highcharts-series-3 highcharts-line-series highcharts-color-undefined " transform="translate(56,47) scale(1 1)" width="298" height="534" clip-path="url(#highcharts-9g19oj0-179)"><path fill="none" d="M 0 297.9891911360953 L 5.34 297.9818630927701 L 10.68 297.9543371300298 L 16.02 297.8984149994042 L 21.36 297.82582157021386 L 26.7 297.7528159385864 L 32.04 297.68352012889244 L 37.38 297.61825474302725 L 42.72 297.5550961696181 L 48.06 297.49963204170035 L 53.4 297.45030515006755 L 58.74 297.39406241754654 L 64.08 297.33090384413737 L 69.42 297.26577585908456 L 74.76 297.19977766888684 L 80.1 297.12526062832364 L 85.44 297.0288968585971 L 90.78 296.8810077842401 L 96.12 296.6775171811532 L 101.46 296.39392190446745 L 106.8 295.87404303081445 L 112.14 295.10894950739157 L 117.48 294.1167782414287 L 122.82 292.6955500387746 L 128.16 290.58617276761237 L 133.5 287.911024751473 L 138.84 284.4466922694791 L 144.18 279.8387728263151 L 149.52 274.5581390058967 L 154.86 266.36611937264234 L 160.2 255.7169610121737 L 165.54 244.71765958157226 L 170.88 231.76580100696813 L 176.22 214.75640484319422 L 181.56 198.72745507606282 L 186.9 183.51498673617243 L 192.24 164.14234240028844 L 197.58 143.9763915741795 L 202.92 130.96673305784776 L 208.26 122.97160878868772 L 213.6 115.53217920493265 L 218.94 111.5099536245362 L 224.28 108.68435171887609 L 229.62 104.27841146986327 L 234.96 95.25452151838502 L 240.3 81.29061436029835 L 245.64 72.6513092825814 L 250.98 69.86156898894404 L 256.32 63.608000016291385 L 261.66 58.236498458640284 L 267 63.16671440730124 L 272.34 71.76489084185545 L 277.68 76.33300984970941 L 283.02 80.8796485305663 L 288.36 87.58938820021342 L 293.7 97.33069359322991 L 299.04 110.36490105470108 L 304.38 125.11029823315081 L 309.72 138.359995968654 L 315.06 153.59312023066738 L 320.4 173.4029739514418 L 325.74 192.56223482574975 L 331.08 209.89791211857874 L 336.42 226.6612692277087 L 341.76 241.5420978068625 L 347.1 254.36759343437748 L 352.44 263.585218531266 L 357.78 269.73788950738464 L 363.12 275.1434206662272 L 368.46 279.32351978001117 L 373.8 282.71507563173157 L 379.14 285.9063468993198 L 384.48 288.27179348442735 L 389.82 290.31865338597134 L 395.16 291.9257390874611 L 400.5 293.05476156252234 L 405.84 294.2107145968037 L 411.18 295.3396912715942 L 416.52 296.2914666987269 L 421.86 296.89859508822065 L 427.2 297.25235637974527 L 432.54 297.4336338515027 L 437.88 297.5307304255617 L 443.22 297.59352259680463 L 448.56 297.6232469725425 L 453.9 297.6488951241808 L 459.24 297.6704212514486 L 464.58 297.6898405662604 L 469.92 297.7148475141077 L 475.26 297.72753418911446 L 480.6 297.74012926357966 L 485.94 297.7574875662063 L 491.28 297.7702200414838 L 496.62 297.77567027370696 L 501.96 297.7807999040346 L 507.3 297.79137976658535 L 512.64 297.80044822020034 L 517.98 297.7952727896019 L 523.32 297.78171590945027 L 528.66 297.73971706114264 L 534 296.56013108713745" class="highcharts-graph" stroke="rgb(228, 26, 28)" stroke-width="2" stroke-linejoin="round" stroke-linecap="round"></path></g><g class="highcharts-markers highcharts-series-3 highcharts-line-series highcharts-color-undefined " transform="translate(56,47) scale(1 1)" width="298" height="534" clip-path="none"></g><g class="highcharts-series highcharts-series-4 highcharts-line-series highcharts-color-undefined " transform="translate(56,47) scale(1 1)" width="298" height="534" clip-path="url(#highcharts-9g19oj0-179)"><path fill="none" d="M 0 297.99382897730385 L 5.34 297.99468015284816 L 10.68 297.994360962019 L 16.02 297.9909562598418 L 21.36 297.9877111530792 L 26.7 297.98563641269 L 32.04 297.9832424814716 L 37.38 297.98154013038305 L 42.72 297.97728425266155 L 48.06 297.9715388177375 L 53.4 297.9632930546521 L 58.74 297.950046635244 L 64.08 297.9327039335289 L 69.42 297.91030737701954 L 74.76 297.8799310497824 L 80.1 297.83300999790293 L 85.44 297.74895641290345 L 90.78 297.60191583762594 L 96.12 297.40332594344676 L 101.46 297.110308762322 L 106.8 296.5880061689519 L 112.14 295.80918054591876 L 117.48 294.76377738210573 L 122.82 293.2453866080203 L 128.16 291.08755020628064 L 133.5 288.4505551715725 L 138.84 284.97547141655946 L 144.18 280.26506595441174 L 149.52 275.00458829676114 L 154.86 267.32847444439153 L 160.2 257.26417480860647 L 165.54 246.588518338129 L 170.88 234.7450490208741 L 176.22 220.04035311145986 L 181.56 205.2188333585907 L 186.9 191.5270895453632 L 192.24 173.53084460767528 L 197.58 154.30922607702672 L 202.92 141.8680187337882 L 208.26 133.84084816786694 L 213.6 126.60287692692495 L 218.94 121.68717856318676 L 224.28 117.35203511913164 L 229.62 110.73989069713505 L 234.96 100.29910547841254 L 240.3 85.9003539787021 L 245.64 75.3782282970275 L 250.98 69.03207623262423 L 256.32 60.220813394989534 L 261.66 53.74618702186868 L 267 57.02246808881654 L 272.34 63.73111453814792 L 277.68 66.82646760346083 L 283.02 69.60012951150037 L 288.36 75.08127442901034 L 293.7 84.73578623868718 L 299.04 99.47532714694617 L 304.38 115.97871657687756 L 309.72 130.41864369354346 L 315.06 146.32817858591216 L 320.4 166.18551885120863 L 325.74 186.59170774716307 L 331.08 205.20388458809396 L 336.42 222.65920746738018 L 341.76 237.9346165792465 L 347.1 250.95105899501624 L 352.44 261.2527302107175 L 357.78 268.3799954324292 L 363.12 274.12569634880145 L 368.46 278.5963894982861 L 373.8 282.2476133924974 L 379.14 285.8839417146835 L 384.48 288.30330180240884 L 389.82 290.399853564959 L 395.16 292.30302888353884 L 400.5 293.59261303162253 L 405.84 294.72073981864713 L 411.18 295.7450231892673 L 416.52 296.6490780142553 L 421.86 297.20473604926764 L 427.2 297.50727575679423 L 432.54 297.6512840191952 L 437.88 297.7270386426378 L 443.22 297.78991923597283 L 448.56 297.8269453721498 L 453.9 297.84732038674144 L 459.24 297.86354592055466 L 464.58 297.87684553843434 L 469.92 297.89142191963043 L 475.26 297.90578550694045 L 480.6 297.9171167813739 L 485.94 297.9294588267663 L 491.28 297.9379173837377 L 496.62 297.94164127674406 L 501.96 297.9455247651649 L 507.3 297.9452587728073 L 512.64 297.94307763547505 L 517.98 297.941534879801 L 523.32 297.9355234525194 L 528.66 297.9555260778104 L 534 297.9868599775349" class="highcharts-graph" stroke="rgb(198, 77, 255)" stroke-width="2" stroke-linejoin="round" stroke-linecap="round"></path></g><g class="highcharts-markers highcharts-series-4 highcharts-line-series highcharts-color-undefined " transform="translate(56,47) scale(1 1)" width="298" height="534" clip-path="none"></g><g class="highcharts-series highcharts-series-5 highcharts-line-series highcharts-color-undefined " transform="translate(56,47) scale(1 1)" width="298" height="534" clip-path="url(#highcharts-9g19oj0-179)"><path fill="none" d="M 0 297.98467672608245 L 5.34 297.9755253263817 L 10.68 297.9409415484429 L 16.02 297.8786907481529 L 21.36 297.803244906434 L 26.7 297.73131064832114 L 32.04 297.66554826442507 L 37.38 297.60430837456715 L 42.72 297.5451435113856 L 48.06 297.50236603836584 L 53.4 297.45799239097965 L 58.74 297.39318771170343 L 64.08 297.3309369114135 L 69.42 297.26357835315105 L 74.76 297.1907928020428 L 80.1 297.10725967686733 L 85.44 296.9942505317256 L 90.78 296.8363356810755 L 96.12 296.6045711630729 L 101.46 296.26878928219264 L 106.8 295.72396176512495 L 112.14 294.8942171236533 L 117.48 293.77258539637756 L 122.82 292.20594025574695 L 128.16 290.001144603426 L 133.5 287.3009496335838 L 138.84 283.7770754848623 L 144.18 279.038406231679 L 149.52 273.7179846277517 L 154.86 265.96499328941695 L 160.2 255.7646942066914 L 165.54 245.07921132238965 L 170.88 233.0285737083104 L 176.22 218.24102911396156 L 181.56 203.67290528918176 L 186.9 189.58613444749875 L 192.24 171.3164822670161 L 197.58 152.23427092240675 L 202.92 139.9433558603707 L 208.26 131.89884987691735 L 213.6 124.62651984612057 L 218.94 120.3420686118051 L 224.28 116.26155525570451 L 229.62 109.70516263405443 L 234.96 99.92492343875554 L 240.3 86.08609168198811 L 245.64 76.21689236866806 L 250.98 70.81575754761269 L 256.32 62.71857781006787 L 261.66 57.03843170976421 L 267 61.05515129702067 L 272.34 67.94668732980446 L 277.68 71.03368855443975 L 283.02 73.64933948867446 L 288.36 78.9253874452155 L 293.7 88.48929180805376 L 299.04 102.85842589515454 L 304.38 118.4953480756819 L 309.72 132.31646229698222 L 315.06 147.75865120480768 L 320.4 166.96547056162134 L 325.74 187.0405023621372 L 331.08 205.6133744664254 L 336.42 223.15634166369415 L 341.76 238.91925520754342 L 347.1 252.39431882620622 L 352.44 262.3741330231185 L 357.78 268.99575597054246 L 363.12 274.4092345400313 L 368.46 278.6592084080324 L 373.8 282.17127086644246 L 379.14 285.70881890890286 L 384.48 288.1760256270615 L 389.82 290.281326410543 L 395.16 292.18923363071184 L 400.5 293.47543093516435 L 405.84 294.59520045901263 L 411.18 295.61696487676335 L 416.52 296.4942223085418 L 421.86 297.05288333678504 L 427.2 297.35690134777377 L 432.54 297.5034301546101 L 437.88 297.5804189648832 L 443.22 297.64916087426326 L 448.56 297.6839042696388 L 453.9 297.70108974698377 L 459.24 297.72551121478983 L 464.58 297.74711277454855 L 469.92 297.7638726053959 L 475.26 297.7859530174645 L 480.6 297.8069161074767 L 485.94 297.828411255611 L 491.28 297.84958716887206 L 496.62 297.86097321268574 L 501.96 297.8720932274384 L 507.3 297.88464979912084 L 512.64 297.8958762254979 L 517.98 297.897898046362 L 523.32 297.88273438988114 L 528.66 297.8467140550125 L 534 297.08118882888266" class="highcharts-graph" stroke="rgb(198, 77, 255)" stroke-width="2" stroke-linejoin="round" stroke-linecap="round"></path></g><g class="highcharts-markers highcharts-series-5 highcharts-line-series highcharts-color-undefined " transform="translate(56,47) scale(1 1)" width="298" height="534" clip-path="none"></g><g class="highcharts-series highcharts-series-6 highcharts-line-series highcharts-color-undefined " transform="translate(56,47) scale(1 1)" width="298" height="534" clip-path="url(#highcharts-9g19oj0-179)"><path fill="none" d="M 0 297.99170828877857 L 5.34 297.9929869171445 L 10.68 297.99325814134335 L 16.02 297.990545899355 L 21.36 297.9884535983926 L 26.7 297.9871362237126 L 32.04 297.98597383428904 L 37.38 297.98415275752546 L 42.72 297.98043311137 L 48.06 297.97694594309934 L 53.4 297.9710177570392 L 58.74 297.9613311785095 L 64.08 297.944515278182 L 69.42 297.92211990862137 L 74.76 297.8981359401819 L 80.1 297.85733607141486 L 85.44 297.7871277502317 L 90.78 297.67429848351804 L 96.12 297.509820380084 L 101.46 297.25238986907925 L 106.8 296.78131218202384 L 112.14 296.0792289701926 L 117.48 295.14346673791135 L 122.82 293.75375268941514 L 128.16 291.72391078536356 L 133.5 289.1789366351035 L 138.84 285.8363308623955 L 144.18 281.3461367581192 L 149.52 276.1196851929589 L 154.86 268.3498868227316 L 160.2 258.3216820414663 L 165.54 247.90186826340314 L 170.88 236.1337989929508 L 176.22 221.3188358191445 L 181.56 207.07751182586588 L 186.9 192.7641584346406 L 192.24 174.15934078425386 L 197.58 154.5155407207736 L 202.92 141.22904214632268 L 208.26 132.0500790779116 L 213.6 123.45603036743668 L 218.94 118.1743265583431 L 224.28 112.91594803034897 L 229.62 105.00387319467771 L 234.96 93.68130904396241 L 240.3 79.64239579564006 L 245.64 70.0084347605328 L 250.98 64.58108355666693 L 256.32 57.832483041352674 L 261.66 53.5734494471086 L 267 57.38868275943682 L 272.34 64.39533372678179 L 277.68 67.843096996008 L 283.02 71.20743945093665 L 288.36 77.97467694334202 L 293.7 88.8315491446644 L 299.04 103.54418330288314 L 304.38 119.69787037580537 L 309.72 134.62628275735128 L 315.06 150.44593785625602 L 320.4 169.61656793171844 L 325.74 189.12332228216076 L 331.08 206.99587334201777 L 336.42 224.06594949016187 L 341.76 239.39809846482487 L 347.1 252.2604798849323 L 352.44 261.7734749273609 L 357.78 268.2016046785992 L 363.12 273.55092080583 L 368.46 277.8812863643666 L 373.8 281.3955770549347 L 379.14 284.8229985092486 L 384.48 287.2850942936086 L 389.82 289.37782146547494 L 395.16 291.09703416923674 L 400.5 292.30072716364896 L 405.84 293.5566889358073 L 411.18 294.87263000222146 L 416.52 296.0759355334925 L 421.86 296.84780085705154 L 427.2 297.3094631897761 L 432.54 297.55988061792544 L 437.88 297.69219928064086 L 443.22 297.78321437250577 L 448.56 297.83873784063786 L 453.9 297.8693861751058 L 459.24 297.88961175107573 L 464.58 297.9048777988385 L 469.92 297.91712163410006 L 475.26 297.9270794368286 L 480.6 297.9385483458077 L 485.94 297.9502497326716 L 491.28 297.95734030815527 L 496.62 297.96210610479187 L 501.96 297.96404342049783 L 507.3 297.9643146446967 L 512.64 297.9640046741837 L 517.98 297.9604012669707 L 523.32 297.94374035189963 L 528.66 297.95625541135996 L 534 297.98895730047616" class="highcharts-graph" stroke="rgb(198, 77, 255)" stroke-width="2" stroke-linejoin="round" stroke-linecap="round"></path></g><g class="highcharts-markers highcharts-series-6 highcharts-line-series highcharts-color-undefined " transform="translate(56,47) scale(1 1)" width="298" height="534" clip-path="none"></g><g class="highcharts-series highcharts-series-7 highcharts-line-series highcharts-color-undefined " transform="translate(56,47) scale(1 1)" width="298" height="534" clip-path="url(#highcharts-9g19oj0-179)"><path fill="none" d="M 0 297.9891491171073 L 5.34 297.98283235313755 L 10.68 297.958844151314 L 16.02 297.91668072064505 L 21.36 297.86347264131746 L 26.7 297.80499413315624 L 32.04 297.7493058520246 L 37.38 297.7021432645944 L 42.72 297.65839095464474 L 48.06 297.6127009870357 L 53.4 297.5679798482563 L 58.74 297.5259714302001 L 64.08 297.4760573688935 L 69.42 297.41525367154105 L 74.76 297.3568526696862 L 80.1 297.28120651466253 L 85.44 297.1768830262795 L 90.78 297.03330259371666 L 96.12 296.8291122295673 L 101.46 296.53811480227597 L 106.8 296.0244417567644 L 112.14 295.2534477740823 L 117.48 294.23865770469223 L 122.82 292.75022659703416 L 128.16 290.58535920047353 L 133.5 287.92658286652744 L 138.84 284.49692880935874 L 144.18 279.9046414033864 L 149.52 274.57860179494594 L 154.86 266.733839748182 L 160.2 256.675342578687 L 165.54 246.13122964658874 L 170.88 234.00234526800625 L 176.22 219.0640898021877 L 181.56 204.69368429003802 L 186.9 190.19860988408143 L 192.24 171.86639201518068 L 197.58 152.42963177410562 L 202.92 138.97178551323512 L 208.26 129.70772798410124 L 213.6 121.25345634399099 L 218.94 116.16458603306316 L 224.28 111.27378308808105 L 229.62 104.07185834640543 L 234.96 93.81234857132242 L 240.3 80.50575586734604 L 245.64 71.47937142671623 L 250.98 67.12309072366097 L 256.32 61.325076462539585 L 261.66 57.828921994499666 L 267 61.74411430796519 L 272.34 68.70421937374553 L 277.68 72.3511623608413 L 283.02 75.46451318168673 L 288.36 82.15377245983368 L 293.7 92.81116085870147 L 299.04 106.79480990203143 L 304.38 122.25925568184135 L 309.72 136.70046320486614 L 315.06 152.00559477191874 L 320.4 170.54312684641138 L 325.74 189.86122493242368 L 331.08 207.70875711439783 L 336.42 224.52375028282162 L 341.76 239.86511604810534 L 347.1 252.75216711566463 L 352.44 262.21092048641685 L 357.78 268.58104754805777 L 363.12 273.80694900865956 L 368.46 278.0918464035419 L 373.8 281.52231427692755 L 379.14 284.8279582438936 L 384.48 287.22646840102675 L 389.82 289.2528707812454 L 395.16 290.9772698386673 L 400.5 292.17179703254493 L 405.84 293.3982955778029 L 411.18 294.7124150024198 L 416.52 295.88601549357566 L 421.86 296.6475537068799 L 427.2 297.13297570371714 L 432.54 297.39149798863656 L 437.88 297.5260876896597 L 443.22 297.61742887172466 L 448.56 297.67424099429877 L 453.9 297.7053985294622 L 459.24 297.7176832790229 L 464.58 297.73144064840477 L 469.92 297.7482595168885 L 475.26 297.7642258160021 L 480.6 297.77631679979686 L 485.94 297.7848037403451 L 491.28 297.79542210431873 L 496.62 297.80398655117335 L 501.96 297.81464366830016 L 507.3 297.8246807349759 L 512.64 297.83161754939664 L 517.98 297.8351053331836 L 523.32 297.8281297656097 L 528.66 297.7972047493654 L 534 296.8308561214608" class="highcharts-graph" stroke="rgb(198, 77, 255)" stroke-width="2" stroke-linejoin="round" stroke-linecap="round"></path></g><g class="highcharts-markers highcharts-series-7 highcharts-line-series highcharts-color-undefined " transform="translate(56,47) scale(1 1)" width="298" height="534" clip-path="none"></g><g class="highcharts-series highcharts-series-8 highcharts-line-series highcharts-color-undefined " transform="translate(56,47) scale(1 1)" width="298" height="534" clip-path="url(#highcharts-9g19oj0-179)"><path fill="none" d="M 0 297.99396316072904 L 5.34 297.99264525919807 L 10.68 297.98784129555287 L 16.02 297.9818469692345 L 21.36 297.9771705444471 L 26.7 297.973344378712 L 32.04 297.97045349793433 L 37.38 297.9683703632563 L 42.72 297.9648417881895 L 48.06 297.96114316131224 L 53.4 297.95344831688936 L 58.74 297.9415021772053 L 64.08 297.9232216075819 L 69.42 297.89822399144583 L 74.76 297.8653614790764 L 80.1 297.8178745110083 L 85.44 297.73731246580775 L 90.78 297.59842264962293 L 96.12 297.3959334563299 L 101.46 297.0904353788569 L 106.8 296.5538794039353 L 112.14 295.7439226307631 L 117.48 294.6224734537996 L 122.82 293.0267922904444 L 128.16 290.82921274400223 L 133.5 287.966688105749 L 138.84 284.2053121104109 L 144.18 279.53050281524196 L 149.52 274.2012066146046 L 154.86 266.70170920900745 L 160.2 257.30672929823214 L 165.54 247.43492411095573 L 170.88 236.40999759701955 L 176.22 223.27851176818444 L 181.56 210.76197579888827 L 186.9 197.98317742492594 L 192.24 182.44422560260114 L 197.58 166.01747579087072 L 202.92 153.20713280606998 L 208.26 142.81790247254762 L 213.6 132.25368882607242 L 218.94 123.73252014329319 L 224.28 115.65382627130418 L 229.62 106.13470853890058 L 234.96 94.06158266535212 L 240.3 79.57780232686795 L 245.64 67.18684961958897 L 250.98 58.911235751099156 L 256.32 50.82586734555002 L 261.66 45.61790311166854 L 267 48.90037069582749 L 272.34 55.2870065408888 L 277.68 59.38032367022478 L 283.02 63.75448136451854 L 288.36 71.81128106591214 L 293.7 84.38138335549996 L 299.04 100.25852571585679 L 304.38 117.85897312331136 L 309.72 134.06308260221041 L 315.06 150.31688972271337 L 320.4 170.09229978582033 L 325.74 189.79420495386032 L 331.08 207.32442096359915 L 336.42 224.38941773290009 L 341.76 240.00259717048624 L 347.1 253.3486033582037 L 352.44 263.2461288818106 L 357.78 269.5857879142352 L 363.12 274.7233932115431 L 368.46 279.03684240950633 L 373.8 282.3505145008828 L 379.14 285.5312060764876 L 384.48 287.99738245753514 L 389.82 290.0085427067717 L 395.16 291.6812998532133 L 400.5 292.86426527260704 L 405.84 294.0320960808707 L 411.18 295.2434176396569 L 416.52 296.3234166878233 L 421.86 297.00617470677906 L 427.2 297.4024804510322 L 432.54 297.6160655249571 L 437.88 297.7197971293314 L 443.22 297.79848860461703 L 448.56 297.843467308481 L 453.9 297.8636609609719 L 459.24 297.88164393992696 L 464.58 297.89971194478727 L 469.92 297.9128484471445 L 475.26 297.92334914643976 L 480.6 297.9340198975455 L 485.94 297.9442230061725 L 491.28 297.95128015630615 L 496.62 297.956126632904 L 501.96 297.9591875654921 L 507.3 297.96033541521257 L 512.64 297.9610156224544 L 517.98 297.9606330058809 L 523.32 297.96016536340215 L 528.66 297.9730467880437 L 534 297.9910297669988" class="highcharts-graph" stroke="rgb(102, 115, 143)" stroke-width="2" stroke-linejoin="round" stroke-linecap="round"></path></g><g class="highcharts-markers highcharts-series-8 highcharts-line-series highcharts-color-undefined " transform="translate(56,47) scale(1 1)" width="298" height="534" clip-path="none"></g><g class="highcharts-series highcharts-series-9 highcharts-line-series highcharts-color-undefined " transform="translate(56,47) scale(1 1)" width="298" height="534" clip-path="url(#highcharts-9g19oj0-179)"><path fill="none" d="M 0 297.9793335031949 L 5.34 297.9641525580109 L 10.68 297.9116358428785 L 16.02 297.8170632319844 L 21.36 297.70378021246 L 26.7 297.5850541649706 L 32.04 297.46313884328276 L 37.38 297.36142225818435 L 42.72 297.27331324299877 L 48.06 297.18694769770826 L 53.4 297.10708827178235 L 58.74 297.02025496627607 L 64.08 296.93027491022747 L 69.42 296.84259113160164 L 74.76 296.7530788357688 L 80.1 296.6321415581685 L 85.44 296.49155835150657 L 90.78 296.32660908996945 L 96.12 296.0845644401449 L 101.46 295.73217090305855 L 106.8 295.1327999720543 L 112.14 294.2756931621697 L 117.48 293.12279180130497 L 122.82 291.4664954009774 L 128.16 289.17264182657766 L 133.5 286.21163461354536 L 138.84 282.464620143423 L 144.18 277.800030224616 L 149.52 272.3842599229647 L 154.86 264.9003516128427 L 160.2 255.53617480635916 L 165.54 245.67553431633706 L 170.88 234.64102830305336 L 176.22 221.49296901671488 L 181.56 208.89729202152546 L 186.9 196.0717321421211 L 192.24 180.46393449941425 L 197.58 164.02399143288173 L 202.92 151.290367697701 L 208.26 140.95082579405917 L 213.6 130.52827771394908 L 218.94 122.14907635087468 L 224.28 114.23814548742564 L 229.62 105.18911149539207 L 234.96 94.12428611539633 L 240.3 80.50931708642378 L 245.64 68.79052040114848 L 250.98 61.74175666264529 L 256.32 54.78739544041241 L 261.66 50.247102168027936 L 267 54.11058893187291 L 272.34 60.72782260951536 L 277.68 64.95118707389875 L 283.02 69.44249309459704 L 288.36 77.33177941715351 L 293.7 89.39476257391152 L 299.04 104.59403545364157 L 304.38 121.55208674460516 L 309.72 136.98885424297006 L 315.06 152.5978425480443 L 320.4 171.89762905003843 L 325.74 191.28641756399367 L 331.08 208.57054024899355 L 336.42 225.4628074441598 L 341.76 241.13009568157932 L 347.1 254.14131384298187 L 352.44 263.54269884844587 L 357.78 269.7189622136006 L 363.12 274.70269217051947 L 368.46 278.8091165809645 L 373.8 282.06570572669716 L 379.14 285.2489415658684 L 384.48 287.645617340422 L 389.82 289.64801377675127 L 395.16 291.3250191975399 L 400.5 292.4453474379258 L 405.84 293.6194681031234 L 411.18 294.82892592643833 L 416.52 295.89809820868317 L 421.86 296.5991006774739 L 427.2 296.9944005834417 L 432.54 297.2155235945252 L 437.88 297.33884219686024 L 443.22 297.4264409281741 L 448.56 297.4774693153472 L 453.9 297.50498212076474 L 459.24 297.5293906992959 L 464.58 297.55294880470746 L 469.92 297.5779101907663 L 475.26 297.6014682961779 L 480.6 297.6231553607265 L 485.94 297.6400372521496 L 491.28 297.6524541596951 L 496.62 297.6764800253224 L 501.96 297.69940027589433 L 507.3 297.7088405275214 L 512.64 297.7105414737605 L 517.98 297.7110517576322 L 523.32 297.70054841460575 L 528.66 297.6442470940914 L 534 296.28957098561295" class="highcharts-graph" stroke="rgb(102, 115, 143)" stroke-width="2" stroke-linejoin="round" stroke-linecap="round"></path></g><g class="highcharts-markers highcharts-series-9 highcharts-line-series highcharts-color-undefined " transform="translate(56,47) scale(1 1)" width="298" height="534" clip-path="none"></g><g class="highcharts-series highcharts-series-10 highcharts-line-series highcharts-color-undefined " transform="translate(56,47) scale(1 1)" width="298" height="534" clip-path="url(#highcharts-9g19oj0-179)"><path fill="none" d="M 0 297.9948095192633 L 5.34 297.99507667636004 L 10.68 297.99400804797307 L 16.02 297.9909548240103 L 21.36 297.9880924265452 L 26.7 297.98626049216756 L 32.04 297.98469571488664 L 37.38 297.9816043256243 L 42.72 297.977367977376 L 48.06 297.974658241109 L 53.4 297.9691242726765 L 58.74 297.95996460078817 L 64.08 297.94416416678087 L 69.42 297.92187563185263 L 74.76 297.89359514489746 L 80.1 297.85188047250614 L 85.44 297.7802060399801 L 90.78 297.66418352939485 L 96.12 297.4927068385858 L 101.46 297.2326484875569 L 106.8 296.7511169033286 L 112.14 296.01506093650386 L 117.48 295.0112753934437 L 122.82 293.5751533372554 L 128.16 291.48136683948655 L 133.5 288.73125168562075 L 138.84 285.1641701299168 L 144.18 280.6225758158958 L 149.52 275.3100424512755 L 154.86 267.2930014657332 L 160.2 257.19369990288146 L 165.54 246.78025975956027 L 170.88 234.98283135921506 L 176.22 220.42677694320784 L 181.56 206.44297302842273 L 186.9 193.0191303884096 L 192.24 176.24571023474033 L 197.58 158.09353047008335 L 202.92 145.5173009674346 L 208.26 136.6177637607533 L 213.6 127.72108895153704 L 218.94 121.83504563080996 L 224.28 116.32229710483097 L 229.62 108.17976861441883 L 234.96 96.43913017978116 L 240.3 81.9246759402667 L 245.64 70.44493549324767 L 250.98 62.40083531033537 L 256.32 53.41172414564622 L 261.66 47.77096920502814 L 267 52.29767905223056 L 272.34 60.03897574863524 L 277.68 64.27158379762392 L 283.02 69.14292629962401 L 288.36 76.99551300947161 L 293.7 88.54162291238131 L 299.04 103.94376385377157 L 304.38 121.18932692798367 L 309.72 135.7435112443137 L 315.06 150.7053009596735 L 320.4 170.76334128719094 L 325.74 190.54487401958005 L 331.08 208.01343693897292 L 336.42 225.23278045240468 L 341.76 240.46756655533562 L 347.1 253.33667656661302 L 352.44 262.84369084598694 L 357.78 268.85846572204434 L 363.12 273.91292533121157 L 368.46 277.978827351833 L 373.8 281.11941168523754 L 379.14 284.3967422868746 L 384.48 286.5561730998431 L 389.82 288.4402412766692 L 395.16 290.1996234199158 L 400.5 291.2745490813084 L 405.84 292.409508758869 L 411.18 293.84116547501173 L 416.52 295.3254139739132 L 421.86 296.2813783966564 L 427.2 296.90938840049864 L 432.54 297.2644020167697 L 437.88 297.4687008651785 L 443.22 297.6652139924823 L 448.56 297.7869612979977 L 453.9 297.84077437034153 L 459.24 297.86939834499253 L 464.58 297.88981678024356 L 469.92 297.90737281802944 L 475.26 297.9221427889494 L 480.6 297.9337450400079 L 485.94 297.9413780999148 L 491.28 297.95027061470637 L 496.62 297.9544687976552 L 501.96 297.9558045831389 L 507.3 297.95935395599565 L 512.64 297.9594684518942 L 517.98 297.9568732115259 L 523.32 297.94584343996036 L 528.66 297.9590867988989 L 534 297.9891992202317" class="highcharts-graph" stroke="rgb(102, 115, 143)" stroke-width="2" stroke-linejoin="round" stroke-linecap="round"></path></g><g class="highcharts-markers highcharts-series-10 highcharts-line-series highcharts-color-undefined " transform="translate(56,47) scale(1 1)" width="298" height="534" clip-path="none"></g><g class="highcharts-series highcharts-series-11 highcharts-line-series highcharts-color-undefined " transform="translate(56,47) scale(1 1)" width="298" height="534" clip-path="url(#highcharts-9g19oj0-179)"><path fill="none" d="M 0 297.9922129318401 L 5.34 297.98663983403935 L 10.68 297.96247701960186 L 16.02 297.91644170489167 L 21.36 297.86048169546785 L 26.7 297.8065829687922 L 32.04 297.75695949522395 L 37.38 297.70867203825185 L 42.72 297.65797975140674 L 48.06 297.6124024995295 L 53.4 297.5732762992161 L 58.74 297.5288823763239 L 64.08 297.4712046312766 L 69.42 297.40925163312176 L 74.76 297.3427180066376 L 80.1 297.27164192372686 L 85.44 297.1750288378798 L 90.78 297.0277616370904 L 96.12 296.8286188204709 L 101.46 296.52194575381935 L 106.8 295.9929595255822 L 112.14 295.1935253663982 L 117.48 294.1236432762675 L 122.82 292.62054826188626 L 128.16 290.4092881077839 L 133.5 287.57643668938545 L 138.84 283.9015512683399 L 144.18 279.1748008952592 L 149.52 273.76339927454814 L 154.86 265.73664973727836 L 160.2 255.57444944475733 L 165.54 245.15836782708078 L 170.88 233.24064172732727 L 176.22 218.5427796068659 L 181.56 204.5409821329556 L 186.9 190.8751737470049 L 192.24 174.11789930155985 L 197.58 156.2959341447574 L 202.92 143.78856666330526 L 208.26 134.65929805905802 L 213.6 125.86193414917665 L 218.94 120.07770755435726 L 224.28 114.52793278619632 L 229.62 106.57840500817923 L 234.96 95.71384170515427 L 240.3 82.06104993803953 L 245.64 70.87404857252935 L 250.98 64.07116658106276 L 256.32 56.390063623147 L 261.66 51.49333376714375 L 267 56.439648924812474 L 272.34 64.63664514832394 L 277.68 69.09061910439044 L 283.02 73.66132273905049 L 288.36 81.41556306262524 L 293.7 92.64642394438914 L 299.04 107.5405659887642 L 304.38 123.97960128102602 L 309.72 137.9168882392976 L 315.06 152.60322244513003 L 320.4 171.88755319608507 L 325.74 191.190740866996 L 331.08 208.4267673166661 L 336.42 225.42998333149572 L 341.76 241.02457979123747 L 347.1 253.99134612222304 L 352.44 263.1945918739897 L 357.78 269.0803175582074 L 363.12 274.0201434924095 L 368.46 278.03995022665686 L 373.8 281.15660974196277 L 379.14 284.336176552992 L 384.48 286.4944541060847 L 389.82 288.35888435184796 L 395.16 290.0873462800344 L 400.5 291.15799180822 L 405.84 292.2629538769732 L 411.18 293.67229869821324 L 416.52 295.1618808590228 L 421.86 296.1214843221239 L 427.2 296.7541072663131 L 432.54 297.1073500543133 L 437.88 297.3080960908481 L 443.22 297.5033072014849 L 448.56 297.62282342897885 L 453.9 297.6766076399462 L 459.24 297.7039005504087 L 464.58 297.720314468589 L 469.92 297.73508699495125 L 475.26 297.7465003938719 L 480.6 297.75344768017146 L 485.94 297.760547654082 L 491.28 297.7722282563219 L 496.62 297.7851303594496 L 501.96 297.7939480689837 L 507.3 297.8034147008644 L 512.64 297.8107437061914 L 517.98 297.813186707967 L 523.32 297.8134539112863 L 528.66 297.7910088324723 L 534 296.8506821802574" class="highcharts-graph" stroke="rgb(102, 115, 143)" stroke-width="2" stroke-linejoin="round" stroke-linecap="round"></path></g><g class="highcharts-markers highcharts-series-11 highcharts-line-series highcharts-color-undefined " transform="translate(56,47) scale(1 1)" width="298" height="534" clip-path="none"></g></g><text x="330" text-anchor="middle" class="highcharts-title" style="color:#333333;font-size:18px;fill:#333333;width:536px;" y="24"><tspan>FastQC: Per Sequence GC Content</tspan></text><g class="highcharts-axis-labels highcharts-xaxis-labels "><text x="56" style="color:#666666;cursor:default;font-size:11px;fill:#666666;width:97px;text-overflow:clip;" text-anchor="middle" transform="translate(0,0)" y="364" opacity="1"><tspan>0</tspan></text><text x="162.8" style="color:#666666;cursor:default;font-size:11px;fill:#666666;width:97px;text-overflow:clip;" text-anchor="middle" transform="translate(0,0)" y="364" opacity="1"><tspan>20</tspan></text><text x="269.6" style="color:#666666;cursor:default;font-size:11px;fill:#666666;width:97px;text-overflow:clip;" text-anchor="middle" transform="translate(0,0)" y="364" opacity="1"><tspan>40</tspan></text><text x="376.4" style="color:#666666;cursor:default;font-size:11px;fill:#666666;width:97px;text-overflow:clip;" text-anchor="middle" transform="translate(0,0)" y="364" opacity="1"><tspan>60</tspan></text><text x="483.2" style="color:#666666;cursor:default;font-size:11px;fill:#666666;width:97px;text-overflow:clip;" text-anchor="middle" transform="translate(0,0)" y="364" opacity="1"><tspan>80</tspan></text><text x="579.56640625" style="color:#666666;cursor:default;font-size:11px;fill:#666666;width:97px;text-overflow:clip;" text-anchor="middle" transform="translate(0,0)" y="364" opacity="1"><tspan>100</tspan></text></g><g class="highcharts-axis-labels highcharts-yaxis-labels "><text x="41" style="color:#666666;cursor:default;font-size:11px;fill:#666666;width:188px;text-overflow:clip;" text-anchor="end" transform="translate(0,0)" y="350" opacity="1"><tspan>0</tspan></text><text x="41" style="color:#666666;cursor:default;font-size:11px;fill:#666666;width:188px;text-overflow:clip;" text-anchor="end" transform="translate(0,0)" y="290" opacity="1"><tspan>1</tspan></text><text x="41" style="color:#666666;cursor:default;font-size:11px;fill:#666666;width:188px;text-overflow:clip;" text-anchor="end" transform="translate(0,0)" y="230" opacity="1"><tspan>2</tspan></text><text x="41" style="color:#666666;cursor:default;font-size:11px;fill:#666666;width:188px;text-overflow:clip;" text-anchor="end" transform="translate(0,0)" y="171" opacity="1"><tspan>3</tspan></text><text x="41" style="color:#666666;cursor:default;font-size:11px;fill:#666666;width:188px;text-overflow:clip;" text-anchor="end" transform="translate(0,0)" y="111" opacity="1"><tspan>4</tspan></text><text x="41" style="color:#666666;cursor:default;font-size:11px;fill:#666666;width:188px;text-overflow:clip;" text-anchor="end" transform="translate(0,0)" y="52" opacity="1"><tspan>5</tspan></text></g><text x="590" class="highcharts-credits" text-anchor="end" style="cursor:pointer;color:#999999;font-size:9px;fill:#999999;" y="395"><tspan>Created with MultiQC</tspan></text></svg>