<svg xmlns:xlink="http://www.w3.org/1999/xlink" version="1.1" class="highcharts-root" style="font-family:&quot;lucida grande&quot;, &quot;lucida sans unicode&quot;, arial, helvetica, sans-serif;font-size:12px;" xmlns="http://www.w3.org/2000/svg" width="600" height="400"><desc>Created with Highcharts 5.0.6</desc><defs><clipPath id="highcharts-9g19oj0-195"><rect x="0" y="0" width="534" height="298" fill="none"></rect></clipPath></defs><rect fill="#ffffff" class="highcharts-background" x="0" y="0" width="600" height="400" rx="0" ry="0"></rect><rect fill="none" class="highcharts-plot-background" x="56" y="47" width="534" height="298"></rect><g class="highcharts-plot-bands-0"><path fill="#e6c3c3" class="highcharts-plot-band " d="M 56 47.5 L 590 47.5 590 47.5 56 47.5 z"></path><path fill="#e6dcc3" class="highcharts-plot-band " d="M 56 97.5 L 590 97.5 590 47.5 56 47.5 z"></path><path fill="#c3e6c3" class="highcharts-plot-band " d="M 56 345.5 L 590 345.5 590 97.5 56 97.5 z"></path></g><g class="highcharts-grid highcharts-xaxis-grid "><path fill="none" class="highcharts-grid-line" d="M 55.5 47 L 55.5 345" opacity="1"></path><path fill="none" class="highcharts-grid-line" d="M 161.5 47 L 161.5 345" opacity="1"></path><path fill="none" class="highcharts-grid-line" d="M 266.5 47 L 266.5 345" opacity="1"></path><path fill="none" class="highcharts-grid-line" d="M 372.5 47 L 372.5 345" opacity="1"></path><path fill="none" class="highcharts-grid-line" d="M 478.5 47 L 478.5 345" opacity="1"></path><path fill="none" class="highcharts-grid-line" d="M 584.5 47 L 584.5 345" opacity="1"></path></g><g class="highcharts-grid highcharts-yaxis-grid "><path fill="none" stroke="#e6e6e6" stroke-width="1" class="highcharts-grid-line" d="M 56 345.5 L 590 345.5" opacity="1"></path><path fill="none" stroke="#e6e6e6" stroke-width="1" class="highcharts-grid-line" d="M 56 295.5 L 590 295.5" opacity="1"></path><path fill="none" stroke="#e6e6e6" stroke-width="1" class="highcharts-grid-line" d="M 56 246.5 L 590 246.5" opacity="1"></path><path fill="none" stroke="#e6e6e6" stroke-width="1" class="highcharts-grid-line" d="M 56 196.5 L 590 196.5" opacity="1"></path><path fill="none" stroke="#e6e6e6" stroke-width="1" class="highcharts-grid-line" d="M 56 146.5 L 590 146.5" opacity="1"></path><path fill="none" stroke="#e6e6e6" stroke-width="1" class="highcharts-grid-line" d="M 56 97.5 L 590 97.5" opacity="1"></path><path fill="none" stroke="#e6e6e6" stroke-width="1" class="highcharts-grid-line" d="M 56 46.5 L 590 46.5" opacity="1"></path></g><rect fill="none" class="highcharts-plot-border" x="56" y="47" width="534" height="298"></rect><g class="highcharts-axis highcharts-xaxis "><path fill="none" class="highcharts-tick" stroke="#ccd6eb" stroke-width="1" d="M 55.5 345 L 55.5 355" opacity="1"></path><path fill="none" class="highcharts-tick" stroke="#ccd6eb" stroke-width="1" d="M 161.5 345 L 161.5 355" opacity="1"></path><path fill="none" class="highcharts-tick" stroke="#ccd6eb" stroke-width="1" d="M 266.5 345 L 266.5 355" opacity="1"></path><path fill="none" class="highcharts-tick" stroke="#ccd6eb" stroke-width="1" d="M 372.5 345 L 372.5 355" opacity="1"></path><path fill="none" class="highcharts-tick" stroke="#ccd6eb" stroke-width="1" d="M 478.5 345 L 478.5 355" opacity="1"></path><path fill="none" class="highcharts-tick" stroke="#ccd6eb" stroke-width="1" d="M 584.5 345 L 584.5 355" opacity="1"></path><text x="323" text-anchor="middle" transform="translate(0,0)" class="highcharts-axis-title" style="color:#666666;fill:#666666;" y="383"><tspan>Position in Read (bp)</tspan></text><path fill="none" class="highcharts-axis-line" stroke="#ccd6eb" stroke-width="1" d="M 56 345.5 L 590 345.5"></path></g><g class="highcharts-axis highcharts-yaxis "><text x="24.0390625" text-anchor="middle" transform="translate(0,0) rotate(270 24.0390625 196)" class="highcharts-axis-title" style="color:#666666;fill:#666666;" y="196"><tspan>Percentage N-Count</tspan></text><path fill="none" class="highcharts-axis-line" d="M 56 47 L 56 345"></path></g><g class="highcharts-series-group"><g class="highcharts-series highcharts-series-0 highcharts-line-series highcharts-color-undefined " transform="translate(56,47) scale(1 1)" width="298" height="534" clip-path="url(#highcharts-9g19oj0-195)"><path fill="none" d="M 5.2871287128713 297.9145356225937 L 10.574257425743 295.12791053651273 L 15.861386138614 297.9651715291261 L 21.148514851485 297.99209628217073 L 26.435643564356 298 L 31.722772277228 297.9731621009974 L 37.009900990099 297.7741794905931 L 42.29702970297 298 L 47.584158415842 298 L 52.871287128713 297.99926174064234 L 63.445544554455 297.99691668150615 L 74.019801980198 298 L 84.594059405941 298 L 95.168316831683 298 L 105.74257425743 297.999956572979 L 116.31683168317 297.99939202170543 L 126.89108910891 298 L 137.46534653465 298 L 148.0396039604 298 L 158.61386138614 298 L 169.18811881188 297.99843662724254 L 179.76237623762 298 L 190.33663366337 298 L 200.91089108911 298 L 211.48514851485 297.9998697189369 L 222.05940594059 298 L 232.63366336634 297.9998697189369 L 243.20792079208 297.999956572979 L 253.78217821782 297.9999131459579 L 264.35643564356 297.9994354487265 L 274.93069306931 298 L 285.50495049505 297.9986971893688 L 296.07920792079 298 L 306.65346534653 298 L 317.22772277228 297.9999131459579 L 327.80198019802 297.99969601085274 L 338.37623762376 297.9984800542636 L 348.9504950495 297.9995657297896 L 359.52475247525 297.99982629191584 L 370.09900990099 297.9998697189369 L 380.67326732673 297.999956572979 L 391.24752475248 297.999956572979 L 401.82178217822 298 L 412.39603960396 298 L 422.9702970297 297.99878404341086 L 433.54455445545 298 L 444.11881188119 297.9999131459579 L 454.69306930693 298 L 465.26732673267 298 L 475.84158415842 298 L 486.41584158416 297.99973943787376 L 496.9900990099 297.99778522192696 L 507.56435643564 297.9990011785161 L 518.13861386139 297.9993485946844 L 528.71287128713 297.999956572979" class="highcharts-graph" stroke="rgb(228, 26, 28)" stroke-width="2" stroke-linejoin="round" stroke-linecap="round"></path></g><g class="highcharts-markers highcharts-series-0 highcharts-line-series highcharts-color-undefined " transform="translate(56,47) scale(1 1)" width="298" height="534" clip-path="none"></g><g class="highcharts-series highcharts-series-1 highcharts-line-series highcharts-color-undefined " transform="translate(56,47) scale(1 1)" width="298" height="534" clip-path="url(#highcharts-9g19oj0-195)"><path fill="none" d="M 5.2871287128713 297.5943916234884 L 10.574257425743 298 L 15.861386138614 298 L 21.148514851485 298 L 26.435643564356 298 L 31.722772277228 298 L 37.009900990099 298 L 42.29702970297 298 L 47.584158415842 298 L 52.871287128713 298 L 63.445544554455 298 L 74.019801980198 298 L 84.594059405941 298 L 95.168316831683 298 L 105.74257425743 298 L 116.31683168317 298 L 126.89108910891 298 L 137.46534653465 298 L 148.0396039604 298 L 158.61386138614 297.9999131459579 L 169.18811881188 297.99921831362127 L 179.76237623762 297.9959612870433 L 190.33663366337 297.99392021705444 L 200.91089108911 297.9907066174975 L 211.48514851485 297.98740616389847 L 222.05940594059 297.9686456908093 L 232.63366336634 297.95865747597014 L 243.20792079208 297.96273961594784 L 253.78217821782 297.9707736148402 L 264.35643564356 297.9930516766336 L 274.93069306931 297.9490166772993 L 285.50495049505 297.9954401627908 L 296.07920792079 297.95466219003447 L 306.65346534653 297.9415038026594 L 317.22772277228 297.92682546954796 L 327.80198019802 297.91840062746627 L 338.37623762376 297.8963831277991 L 348.9504950495 297.9076307262484 L 359.52475247525 297.9110614609105 L 370.09900990099 297.89034677187453 L 380.67326732673 297.8647682564821 L 391.24752475248 297.9651715291261 L 401.82178217822 297.94202492691187 L 412.39603960396 297.8837458646765 L 422.9702970297 297.87849119513066 L 433.54455445545 297.8366275468483 L 444.11881188119 297.8265524779671 L 454.69306930693 297.79845519535434 L 465.26732673267 297.8220794948 L 475.84158415842 297.7897697911464 L 486.41584158416 297.7711830261414 L 496.9900990099 297.75242255305216 L 507.56435643564 297.79398221218725 L 518.13861386139 297.8131335284658 L 528.71287128713 297.79146344496695" class="highcharts-graph" stroke="rgb(228, 26, 28)" stroke-width="2" stroke-linejoin="round" stroke-linecap="round"></path></g><g class="highcharts-markers highcharts-series-1 highcharts-line-series highcharts-color-undefined " transform="translate(56,47) scale(1 1)" width="298" height="534" clip-path="none"></g><g class="highcharts-series highcharts-series-2 highcharts-line-series highcharts-color-undefined " transform="translate(56,47) scale(1 1)" width="298" height="534" clip-path="url(#highcharts-9g19oj0-195)"><path fill="none" d="M 5.2871287128713 297.91406667972666 L 10.574257425743 295.10009386878664 L 15.861386138614 297.9642834867781 L 21.148514851485 297.994505151812 L 26.435643564356 298 L 31.722772277228 297.9769521645448 L 37.009900990099 297.7693690107762 L 42.29702970297 298 L 47.584158415842 298 L 52.871287128713 297.9993131439765 L 63.445544554455 297.9978249559256 L 74.019801980198 297.9999236826641 L 84.594059405941 298 L 95.168316831683 298 L 105.74257425743 298 L 116.31683168317 297.9997328893242 L 126.89108910891 298 L 137.46534653465 298 L 148.0396039604 298 L 158.61386138614 298 L 169.18811881188 297.9990460333007 L 179.76237623762 298 L 190.33663366337 298 L 200.91089108911 298 L 211.48514851485 297.99980920666013 L 222.05940594059 297.99988552399606 L 232.63366336634 297.99980920666013 L 243.20792079208 297.9999236826641 L 253.78217821782 297.99996184133204 L 264.35643564356 297.99927498530855 L 274.93069306931 298 L 285.50495049505 297.998664446621 L 296.07920792079 298 L 306.65346534653 297.99996184133204 L 317.22772277228 297.9998473653281 L 327.80198019802 297.9996565719882 L 338.37623762376 297.9982065426053 L 348.9504950495 297.99893155729677 L 359.52475247525 297.99927498530855 L 370.09900990099 297.9995039373164 L 380.67326732673 297.9999236826641 L 391.24752475248 297.99980920666013 L 401.82178217822 298 L 412.39603960396 298 L 422.9702970297 297.99858812928505 L 433.54455445545 298 L 444.11881188119 297.9999236826641 L 454.69306930693 298 L 465.26732673267 298 L 475.84158415842 297.99996184133204 L 486.41584158416 297.99988552399606 L 496.9900990099 297.99843549461315 L 507.56435643564 297.9990078746327 L 518.13861386139 297.9995039373164 L 528.71287128713 297.9999236826641" class="highcharts-graph" stroke="rgb(228, 26, 28)" stroke-width="2" stroke-linejoin="round" stroke-linecap="round"></path></g><g class="highcharts-markers highcharts-series-2 highcharts-line-series highcharts-color-undefined " transform="translate(56,47) scale(1 1)" width="298" height="534" clip-path="none"></g><g class="highcharts-series highcharts-series-3 highcharts-line-series highcharts-color-undefined " transform="translate(56,47) scale(1 1)" width="298" height="534" clip-path="url(#highcharts-9g19oj0-195)"><path fill="none" d="M 5.2871287128713 297.5887258765959 L 10.574257425743 298 L 15.861386138614 298 L 21.148514851485 298 L 26.435643564356 298 L 31.722772277228 298 L 37.009900990099 298 L 42.29702970297 298 L 47.584158415842 298 L 52.871287128713 298 L 63.445544554455 298 L 74.019801980198 298 L 84.594059405941 298 L 95.168316831683 298 L 105.74257425743 298 L 116.31683168317 298 L 126.89108910891 298 L 137.46534653465 297.99996184133204 L 148.0396039604 298 L 158.61386138614 297.99988552399606 L 169.18811881188 297.99885523996085 L 179.76237623762 297.99446699314404 L 190.33663366337 297.99263537708134 L 200.91089108911 297.98950636630764 L 211.48514851485 297.98652999020584 L 222.05940594059 297.9664203721845 L 232.63366336634 297.9573386092071 L 243.20792079208 297.9601241919691 L 253.78217821782 297.96974017629805 L 264.35643564356 297.9921393143977 L 274.93069306931 297.94783710088205 L 285.50495049505 297.9954972771793 L 296.07920792079 297.95260693437854 L 306.65346534653 297.9381066405491 L 317.22772277228 297.92261422135243 L 327.80198019802 297.9131890303633 L 338.37623762376 297.89128595494725 L 348.9504950495 297.9046414887375 L 359.52475247525 297.9072744368276 L 370.09900990099 297.8887674828611 L 380.67326732673 297.8625906366322 L 391.24752475248 297.96290977473103 L 401.82178217822 297.9395185112641 L 412.39603960396 297.87960940254777 L 422.9702970297 297.87430534769965 L 433.54455445545 297.8321781782584 L 444.11881188119 297.82191349657387 L 454.69306930693 297.79108129285237 L 465.26732673267 297.819013437808 L 475.84158415842 297.7840600979455 L 486.41584158416 297.7646754946156 L 496.9900990099 297.7478093633719 L 507.56435643564 297.7897075808053 L 518.13861386139 297.80657371204904 L 528.71287128713 297.7853193339885" class="highcharts-graph" stroke="rgb(228, 26, 28)" stroke-width="2" stroke-linejoin="round" stroke-linecap="round"></path></g><g class="highcharts-markers highcharts-series-3 highcharts-line-series highcharts-color-undefined " transform="translate(56,47) scale(1 1)" width="298" height="534" clip-path="none"></g><g class="highcharts-series highcharts-series-4 highcharts-line-series highcharts-color-undefined " transform="translate(56,47) scale(1 1)" width="298" height="534" clip-path="url(#highcharts-9g19oj0-195)"><path fill="none" d="M 5.2871287128713 297.89830226435765 L 10.574257425743 295.1807472535131 L 15.861386138614 297.9647116837091 L 21.148514851485 297.9932615275424 L 26.435643564356 298 L 31.722772277228 297.9732234383923 L 37.009900990099 297.7871174688079 L 42.29702970297 298 L 47.584158415842 298 L 52.871287128713 297.99951234738796 L 63.445544554455 297.9959657829366 L 74.019801980198 297.9999113358887 L 84.594059405941 298 L 95.168316831683 298 L 105.74257425743 297.99995566794433 L 116.31683168317 297.99964534355485 L 126.89108910891 298 L 137.46534653465 298 L 148.0396039604 298 L 158.61386138614 297.9999113358887 L 169.18811881188 297.9986700383308 L 179.76237623762 298 L 190.33663366337 298 L 200.91089108911 298 L 211.48514851485 297.99982267177745 L 222.05940594059 297.9999113358887 L 232.63366336634 297.9997340076662 L 243.20792079208 297.9999113358887 L 253.78217821782 297.99986700383306 L 264.35643564356 297.99942368327663 L 274.93069306931 298 L 285.50495049505 297.99906902683153 L 296.07920792079 298 L 306.65346534653 297.9999113358887 L 317.22772277228 297.99995566794433 L 327.80198019802 297.99995566794433 L 338.37623762376 297.99822671777434 L 348.9504950495 297.9992020229985 L 359.52475247525 297.99929068710975 L 370.09900990099 297.99951234738796 L 380.67326732673 297.99986700383306 L 391.24752475248 297.99986700383306 L 401.82178217822 298 L 412.39603960396 298 L 422.9702970297 297.99889169860893 L 433.54455445545 298 L 444.11881188119 297.99982267177745 L 454.69306930693 298 L 465.26732673267 298 L 475.84158415842 297.99995566794433 L 486.41584158416 297.9999113358887 L 496.9900990099 297.99889169860893 L 507.56435643564 297.9992020229985 L 518.13861386139 297.9996896756105 L 528.71287128713 297.99986700383306" class="highcharts-graph" stroke="rgb(198, 77, 255)" stroke-width="2" stroke-linejoin="round" stroke-linecap="round"></path></g><g class="highcharts-markers highcharts-series-4 highcharts-line-series highcharts-color-undefined " transform="translate(56,47) scale(1 1)" width="298" height="534" clip-path="none"></g><g class="highcharts-series highcharts-series-5 highcharts-line-series highcharts-color-undefined " transform="translate(56,47) scale(1 1)" width="298" height="534" clip-path="url(#highcharts-9g19oj0-195)"><path fill="none" d="M 5.2871287128713 297.57866814318 L 10.574257425743 298 L 15.861386138614 298 L 21.148514851485 298 L 26.435643564356 298 L 31.722772277228 298 L 37.009900990099 298 L 42.29702970297 298 L 47.584158415842 298 L 52.871287128713 298 L 63.445544554455 298 L 74.019801980198 298 L 84.594059405941 298 L 95.168316831683 298 L 105.74257425743 297.99995566794433 L 116.31683168317 298 L 126.89108910891 298 L 137.46534653465 298 L 148.0396039604 298 L 158.61386138614 297.9997340076662 L 169.18811881188 297.99906902683153 L 179.76237623762 297.9959657829366 L 190.33663366337 297.99423683276655 L 200.91089108911 297.99117792092727 L 211.48514851485 297.9889613181452 L 222.05940594059 297.97428740772773 L 232.63366336634 297.9667952903243 L 243.20792079208 297.968435576383 L 253.78217821782 297.9772133234001 L 264.35643564356 297.99312853137553 L 274.93069306931 297.95956916525466 L 285.50495049505 297.99658643171557 L 296.07920792079 297.96342605409546 L 306.65346534653 297.95322968129784 L 317.22772277228 297.9386444349917 L 327.80198019802 297.9325709433688 L 338.37623762376 297.91346382738715 L 348.9504950495 297.9243251810194 L 359.52475247525 297.92778308135945 L 370.09900990099 297.90942961032374 L 380.67326732673 297.88859354417207 L 391.24752475248 297.969676873941 L 401.82178217822 297.95256470046326 L 412.39603960396 297.9022921493654 L 422.9702970297 297.89165245601134 L 433.54455445545 297.8633686045119 L 444.11881188119 297.85255158293523 L 454.69306930693 297.8305628833369 L 465.26732673267 297.8487833582057 L 475.84158415842 297.8220511286537 L 486.41584158416 297.80688956562415 L 496.9900990099 297.788713422811 L 507.56435643564 297.82036651053926 L 518.13861386139 297.83787767251783 L 528.71287128713 297.821519143986" class="highcharts-graph" stroke="rgb(198, 77, 255)" stroke-width="2" stroke-linejoin="round" stroke-linecap="round"></path></g><g class="highcharts-markers highcharts-series-5 highcharts-line-series highcharts-color-undefined " transform="translate(56,47) scale(1 1)" width="298" height="534" clip-path="none"></g><g class="highcharts-series highcharts-series-6 highcharts-line-series highcharts-color-undefined " transform="translate(56,47) scale(1 1)" width="298" height="534" clip-path="url(#highcharts-9g19oj0-195)"><path fill="none" d="M 5.2871287128713 297.9093335996168 L 10.574257425743 295.10965331314014 L 15.861386138614 297.96512830754494 L 21.148514851485 297.9931548159255 L 26.435643564356 298 L 31.722772277228 297.9742982711164 L 37.009900990099 297.775917087372 L 42.29702970297 298 L 47.584158415842 298 L 52.871287128713 297.9995802481464 L 63.445544554455 297.9972877572535 L 74.019801980198 298 L 84.594059405941 298 L 95.168316831683 298 L 105.74257425743 297.99993542279174 L 116.31683168317 297.999741691167 L 126.89108910891 298 L 137.46534653465 298 L 148.0396039604 298 L 158.61386138614 298 L 169.18811881188 297.9989344760639 L 179.76237623762 298 L 190.33663366337 298 L 200.91089108911 298 L 211.48514851485 297.9999031341876 L 222.05940594059 297.9998708455835 L 232.63366336634 297.99980626837527 L 243.20792079208 297.9998385569794 L 253.78217821782 297.99967711395874 L 264.35643564356 297.9993542279175 L 274.93069306931 298 L 285.50495049505 297.9987730330432 L 296.07920792079 298 L 306.65346534653 297.99993542279174 L 317.22772277228 297.99993542279174 L 327.80198019802 297.9998385569794 L 338.37623762376 297.998191838169 L 348.9504950495 297.9992896507093 L 359.52475247525 297.99899905327214 L 370.09900990099 297.999483382334 L 380.67326732673 297.9998708455835 L 391.24752475248 297.99980626837527 L 401.82178217822 298 L 412.39603960396 298 L 422.9702970297 297.9983209925855 L 433.54455445545 298 L 444.11881188119 297.999741691167 L 454.69306930693 298 L 465.26732673267 298 L 475.84158415842 298 L 486.41584158416 297.9998708455835 L 496.9900990099 297.9982241267731 L 507.56435643564 297.9989344760639 L 518.13861386139 297.9993865165216 L 528.71287128713 297.9998708455835" class="highcharts-graph" stroke="rgb(198, 77, 255)" stroke-width="2" stroke-linejoin="round" stroke-linecap="round"></path></g><g class="highcharts-markers highcharts-series-6 highcharts-line-series highcharts-color-undefined " transform="translate(56,47) scale(1 1)" width="298" height="534" clip-path="none"></g><g class="highcharts-series highcharts-series-7 highcharts-line-series highcharts-color-undefined " transform="translate(56,47) scale(1 1)" width="298" height="534" clip-path="url(#highcharts-9g19oj0-195)"><path fill="none" d="M 5.2871287128713 297.5825729258711 L 10.574257425743 298 L 15.861386138614 298 L 21.148514851485 298 L 26.435643564356 298 L 31.722772277228 298 L 37.009900990099 298 L 42.29702970297 298 L 47.584158415842 298 L 52.871287128713 298 L 63.445544554455 298 L 74.019801980198 298 L 84.594059405941 298 L 95.168316831683 298 L 105.74257425743 298 L 116.31683168317 298 L 126.89108910891 298 L 137.46534653465 297.9999031341876 L 148.0396039604 298 L 158.61386138614 297.999741691167 L 169.18811881188 297.9989344760639 L 179.76237623762 297.99505984356887 L 190.33663366337 297.99299337290483 L 200.91089108911 297.9894416264511 L 211.48514851485 297.98582530278907 L 222.05940594059 297.9677113958749 L 232.63366336634 297.95773421720025 L 243.20792079208 297.96186715852826 L 253.78217821782 297.9715860283699 L 264.35643564356 297.991475808511 L 274.93069306931 297.9495329117525 L 285.50495049505 297.99522128658947 L 296.07920792079 297.95395645051764 L 306.65346534653 297.94171906955427 L 317.22772277228 297.9265757142196 L 327.80198019802 297.91840669737593 L 338.37623762376 297.89687019842455 L 348.9504950495 297.90810663266006 L 359.52475247525 297.9116260905097 L 370.09900990099 297.89212377361815 L 380.67326732673 297.86690637379644 L 391.24752475248 297.9640950722129 L 401.82178217822 297.9423325530326 L 412.39603960396 297.8861826704591 L 422.9702970297 297.8805644533414 L 433.54455445545 297.83920275145715 L 444.11881188119 297.83058169415574 L 454.69306930693 297.7998429430287 L 465.26732673267 297.82683621607725 L 475.84158415842 297.79270716151706 L 486.41584158416 297.77401205972865 L 496.9900990099 297.7566730793135 L 507.56435643564 297.79671094842854 L 518.13861386139 297.8156966476541 L 528.71287128713 297.7948382093893" class="highcharts-graph" stroke="rgb(198, 77, 255)" stroke-width="2" stroke-linejoin="round" stroke-linecap="round"></path></g><g class="highcharts-markers highcharts-series-7 highcharts-line-series highcharts-color-undefined " transform="translate(56,47) scale(1 1)" width="298" height="534" clip-path="none"></g><g class="highcharts-series highcharts-series-8 highcharts-line-series highcharts-color-undefined " transform="translate(56,47) scale(1 1)" width="298" height="534" clip-path="url(#highcharts-9g19oj0-195)"><path fill="none" d="M 5.2871287128713 297.9226264107919 L 10.574257425743 295.10522162353766 L 15.861386138614 297.96386398306214 L 21.148514851485 297.99511100947313 L 26.435643564356 298 L 31.722772277228 297.97590932204145 L 37.009900990099 297.76986317056054 L 42.29702970297 298 L 47.584158415842 298 L 52.871287128713 297.9996811527917 L 63.445544554455 297.9984057639586 L 74.019801980198 298 L 84.594059405941 298 L 95.168316831683 298 L 105.74257425743 298 L 116.31683168317 297.9998228626621 L 126.89108910891 298 L 137.46534653465 298 L 148.0396039604 298 L 158.61386138614 298 L 169.18811881188 297.9992205957131 L 179.76237623762 298 L 190.33663366337 298 L 200.91089108911 298 L 211.48514851485 297.9999291450648 L 222.05940594059 297.9998582901297 L 232.63366336634 297.9998582901297 L 243.20792079208 298 L 253.78217821782 297.9996811527917 L 264.35643564356 297.9994331605186 L 274.93069306931 298 L 285.50495049505 297.99897260344 L 296.07920792079 298 L 306.65346534653 297.9999291450648 L 317.22772277228 297.9998228626621 L 327.80198019802 297.9995394429214 L 338.37623762376 297.99833490902347 L 348.9504950495 297.99897260344 L 359.52475247525 297.9991851682455 L 370.09900990099 297.9994685879862 L 380.67326732673 297.9997520077269 L 391.24752475248 297.9997874351945 L 401.82178217822 298 L 412.39603960396 298 L 422.9702970297 297.9987600386345 L 433.54455445545 298 L 444.11881188119 297.9997520077269 L 454.69306930693 298 L 465.26732673267 298 L 475.84158415842 297.9998937175972 L 486.41584158416 297.9998228626621 L 496.9900990099 297.9982640540883 L 507.56435643564 297.99897260344 L 518.13861386139 297.9996811527917 L 528.71287128713 297.9998228626621" class="highcharts-graph" stroke="rgb(102, 115, 143)" stroke-width="2" stroke-linejoin="round" stroke-linecap="round"></path></g><g class="highcharts-markers highcharts-series-8 highcharts-line-series highcharts-color-undefined " transform="translate(56,47) scale(1 1)" width="298" height="534" clip-path="none"></g><g class="highcharts-series highcharts-series-9 highcharts-line-series highcharts-color-undefined " transform="translate(56,47) scale(1 1)" width="298" height="534" clip-path="url(#highcharts-9g19oj0-195)"><path fill="none" d="M 5.2871287128713 297.59563088497197 L 10.574257425743 298 L 15.861386138614 298 L 21.148514851485 298 L 26.435643564356 298 L 31.722772277228 298 L 37.009900990099 298 L 42.29702970297 298 L 47.584158415842 298 L 52.871287128713 298 L 63.445544554455 298 L 74.019801980198 298 L 84.594059405941 298 L 95.168316831683 298 L 105.74257425743 298 L 116.31683168317 298 L 126.89108910891 298 L 137.46534653465 297.9999645725324 L 148.0396039604 298 L 158.61386138614 297.9998937175972 L 169.18811881188 297.9991497407779 L 179.76237623762 297.99578413135725 L 190.33663366337 297.9930562163531 L 200.91089108911 297.989903171738 L 211.48514851485 297.98713982926625 L 222.05940594059 297.9690363933297 L 232.63366336634 297.95830187065116 L 243.20792079208 297.963190861178 L 253.78217821782 297.9716225984635 L 264.35643564356 297.99245394940414 L 274.93069306931 297.94884273680566 L 285.50495049505 297.99553613908415 L 296.07920792079 297.95589280285526 L 306.65346534653 297.94313891452424 L 317.22772277228 297.9244686391064 L 327.80198019802 297.9178082752002 L 338.37623762376 297.89442614659333 L 348.9504950495 297.90866798856297 L 359.52475247525 297.9105810718126 L 370.09900990099 297.88925373632577 L 380.67326732673 297.8626831356362 L 391.24752475248 297.96439539507594 L 401.82178217822 297.9410841214043 L 412.39603960396 297.8848961578127 L 422.9702970297 297.87912148059615 L 433.54455445545 297.8350142834514 L 444.11881188119 297.8271493856473 L 454.69306930693 297.7995513883977 L 465.26732673267 297.8243860431756 L 475.84158415842 297.7918990553991 L 486.41584158416 297.7743270314764 L 496.9900990099 297.7553024813826 L 507.56435643564 297.7964337712501 L 518.13861386139 297.8132972458211 L 528.71287128713 297.7924304674129" class="highcharts-graph" stroke="rgb(102, 115, 143)" stroke-width="2" stroke-linejoin="round" stroke-linecap="round"></path></g><g class="highcharts-markers highcharts-series-9 highcharts-line-series highcharts-color-undefined " transform="translate(56,47) scale(1 1)" width="298" height="534" clip-path="none"></g><g class="highcharts-series highcharts-series-10 highcharts-line-series highcharts-color-undefined " transform="translate(56,47) scale(1 1)" width="298" height="534" clip-path="url(#highcharts-9g19oj0-195)"><path fill="none" d="M 5.2871287128713 297.9052228291715 L 10.574257425743 295.0935212975394 L 15.861386138614 297.96081695487896 L 21.148514851485 297.9903950652382 L 26.435643564356 298 L 31.722772277228 297.97334789625694 L 37.009900990099 297.77355253144333 L 42.29702970297 298 L 47.584158415842 298 L 52.871287128713 297.9995547381236 L 63.445544554455 297.9969149712851 L 74.019801980198 297.9998409779013 L 84.594059405941 298 L 95.168316831683 298 L 105.74257425743 298 L 116.31683168317 297.9998409779013 L 126.89108910891 298 L 137.46534653465 298 L 148.0396039604 298 L 158.61386138614 297.99993639116053 L 169.18811881188 297.9986642143709 L 179.76237623762 298 L 190.33663366337 298 L 200.91089108911 298 L 211.48514851485 297.99996819558027 L 222.05940594059 297.9998409779013 L 232.63366336634 297.9998409779013 L 243.20792079208 297.99993639116053 L 253.78217821782 297.9998409779013 L 264.35643564356 297.9993639116052 L 274.93069306931 298 L 285.50495049505 297.9983461701735 L 296.07920792079 298 L 306.65346534653 298 L 317.22772277228 297.9999045867408 L 327.80198019802 297.99965015138287 L 338.37623762376 297.9984415834327 L 348.9504950495 297.9992366939262 L 359.52475247525 297.9993321071854 L 370.09900990099 297.9994593248644 L 380.67326732673 297.9998409779013 L 391.24752475248 297.9999045867408 L 401.82178217822 298 L 412.39603960396 298 L 422.9702970297 297.9984733878524 L 433.54455445545 298 L 444.11881188119 297.9997773690618 L 454.69306930693 298 L 465.26732673267 298 L 475.84158415842 297.99993639116053 L 486.41584158416 297.9998409779013 L 496.9900990099 297.9977100817786 L 507.56435643564 297.99863240995114 L 518.13861386139 297.99926849834594 L 528.71287128713 297.99974556464207" class="highcharts-graph" stroke="rgb(102, 115, 143)" stroke-width="2" stroke-linejoin="round" stroke-linecap="round"></path></g><g class="highcharts-markers highcharts-series-10 highcharts-line-series highcharts-color-undefined " transform="translate(56,47) scale(1 1)" width="298" height="534" clip-path="none"></g><g class="highcharts-series highcharts-series-11 highcharts-line-series highcharts-color-undefined " transform="translate(56,47) scale(1 1)" width="298" height="534" clip-path="url(#highcharts-9g19oj0-195)"><path fill="none" d="M 5.2871287128713 297.5879419378342 L 10.574257425743 298 L 15.861386138614 298 L 21.148514851485 298 L 26.435643564356 298 L 31.722772277228 298 L 37.009900990099 298 L 42.29702970297 298 L 47.584158415842 298 L 52.871287128713 298 L 63.445544554455 298 L 74.019801980198 298 L 84.594059405941 298 L 95.168316831683 298 L 105.74257425743 297.99996819558027 L 116.31683168317 298 L 126.89108910891 298 L 137.46534653465 297.9999045867408 L 148.0396039604 298 L 158.61386138614 297.9999045867408 L 169.18811881188 297.99907767182754 L 179.76237623762 297.99510211935984 L 190.33663366337 297.9924941569411 L 200.91089108911 297.98858221331295 L 211.48514851485 297.9851473359809 L 222.05940594059 297.96660535927185 L 232.63366336634 297.95633253169547 L 243.20792079208 297.9598628222867 L 253.78217821782 297.97048549848023 L 264.35643564356 297.99096754479353 L 274.93069306931 297.9483814267602 L 285.50495049505 297.99500670610064 L 296.07920792079 297.9514664554751 L 306.65346534653 297.9390945361958 L 317.22772277228 297.92405104565825 L 327.80198019802 297.9161317451427 L 338.37623762376 297.8941548911016 L 348.9504950495 297.9067494413191 L 359.52475247525 297.9108840158854 L 370.09900990099 297.8918649728802 L 380.67326732673 297.86534008681616 L 391.24752475248 297.96329769961875 L 401.82178217822 297.940175886467 L 412.39603960396 297.8844863475003 L 422.9702970297 297.87745757073753 L 433.54455445545 297.8378292637401 L 444.11881188119 297.8255209533003 L 454.69306930693 297.79807373906374 L 465.26732673267 297.81950991796924 L 475.84158415842 297.7890094794375 L 486.41584158416 297.77224855023394 L 496.9900990099 297.75367476910515 L 507.56435643564 297.7911403755602 L 518.13861386139 297.8114633997747 L 528.71287128713 297.7912675932391" class="highcharts-graph" stroke="rgb(102, 115, 143)" stroke-width="2" stroke-linejoin="round" stroke-linecap="round"></path></g><g class="highcharts-markers highcharts-series-11 highcharts-line-series highcharts-color-undefined " transform="translate(56,47) scale(1 1)" width="298" height="534" clip-path="none"></g></g><text x="330" text-anchor="middle" class="highcharts-title" style="color:#333333;font-size:18px;fill:#333333;width:536px;" y="24"><tspan>FastQC: Per Base N Content</tspan></text><g class="highcharts-axis-labels highcharts-xaxis-labels "><text x="56" style="color:#666666;cursor:default;font-size:11px;fill:#666666;width:97px;text-overflow:clip;" text-anchor="middle" transform="translate(0,0)" y="364" opacity="1"><tspan>0</tspan></text><text x="161.74257425742576" style="color:#666666;cursor:default;font-size:11px;fill:#666666;width:97px;text-overflow:clip;" text-anchor="middle" transform="translate(0,0)" y="364" opacity="1"><tspan>20</tspan></text><text x="267.4851485148515" style="color:#666666;cursor:default;font-size:11px;fill:#666666;width:97px;text-overflow:clip;" text-anchor="middle" transform="translate(0,0)" y="364" opacity="1"><tspan>40</tspan></text><text x="373.2277227722772" style="color:#666666;cursor:default;font-size:11px;fill:#666666;width:97px;text-overflow:clip;" text-anchor="middle" transform="translate(0,0)" y="364" opacity="1"><tspan>60</tspan></text><text x="478.970297029703" style="color:#666666;cursor:default;font-size:11px;fill:#666666;width:97px;text-overflow:clip;" text-anchor="middle" transform="translate(0,0)" y="364" opacity="1"><tspan>80</tspan></text><text x="579.56640625" style="color:#666666;cursor:default;font-size:11px;fill:#666666;width:97px;text-overflow:clip;" text-anchor="middle" transform="translate(0,0)" y="364" opacity="1"><tspan>100</tspan></text></g><g class="highcharts-axis-labels highcharts-yaxis-labels "><text x="41" style="color:#666666;cursor:default;font-size:11px;fill:#666666;width:188px;text-overflow:clip;" text-anchor="end" transform="translate(0,0)" y="350" opacity="1"><tspan>0</tspan></text><text x="41" style="color:#666666;cursor:default;font-size:11px;fill:#666666;width:188px;text-overflow:clip;" text-anchor="end" transform="translate(0,0)" y="300" opacity="1"><tspan>1</tspan></text><text x="41" style="color:#666666;cursor:default;font-size:11px;fill:#666666;width:188px;text-overflow:clip;" text-anchor="end" transform="translate(0,0)" y="250" opacity="1"><tspan>2</tspan></text><text x="41" style="color:#666666;cursor:default;font-size:11px;fill:#666666;width:188px;text-overflow:clip;" text-anchor="end" transform="translate(0,0)" y="201" opacity="1"><tspan>3</tspan></text><text x="41" style="color:#666666;cursor:default;font-size:11px;fill:#666666;width:188px;text-overflow:clip;" text-anchor="end" transform="translate(0,0)" y="151" opacity="1"><tspan>4</tspan></text><text x="41" style="color:#666666;cursor:default;font-size:11px;fill:#666666;width:188px;text-overflow:clip;" text-anchor="end" transform="translate(0,0)" y="101" opacity="1"><tspan>5</tspan></text><text x="41" style="color:#666666;cursor:default;font-size:11px;fill:#666666;width:188px;text-overflow:clip;" text-anchor="end" transform="translate(0,0)" y="52" opacity="1"><tspan>6</tspan></text></g><text x="590" class="highcharts-credits" text-anchor="end" style="cursor:pointer;color:#999999;font-size:9px;fill:#999999;" y="395"><tspan>Created with MultiQC</tspan></text></svg>