<svg xmlns:xlink="http://www.w3.org/1999/xlink" version="1.1" class="highcharts-root" style="font-family:&quot;lucida grande&quot;, &quot;lucida sans unicode&quot;, arial, helvetica, sans-serif;font-size:12px;" xmlns="http://www.w3.org/2000/svg" width="600" height="400"><desc>Created with Highcharts 5.0.6</desc><defs><clipPath id="highcharts-9g19oj0-268"><rect x="0" y="0" width="431" height="205" fill="none"></rect></clipPath></defs><rect fill="#ffffff" class="highcharts-background" x="0" y="0" width="600" height="400" rx="0" ry="0"></rect><rect fill="none" class="highcharts-plot-background" x="10" y="60" width="431" height="205"></rect><text x="0" style="color:#666666;cursor:default;font-size:11px;fill:#666666;">0</text><text x="0" style="color:#666666;cursor:default;font-size:11px;fill:#666666;">0.25</text><text x="0" style="color:#666666;cursor:default;font-size:11px;fill:#666666;">0.5</text><text x="0" style="color:#666666;cursor:default;font-size:11px;fill:#666666;">0.75</text><text x="0" style="color:#666666;cursor:default;font-size:11px;fill:#666666;">1</text><g class="highcharts-grid highcharts-xaxis-grid "><path fill="none" class="highcharts-grid-line" d="M 48.5 60 L 48.5 265" opacity="1"></path><path fill="none" class="highcharts-grid-line" d="M 87.5 60 L 87.5 265" opacity="1"></path><path fill="none" class="highcharts-grid-line" d="M 127.5 60 L 127.5 265" opacity="1"></path><path fill="none" class="highcharts-grid-line" d="M 166.5 60 L 166.5 265" opacity="1"></path><path fill="none" class="highcharts-grid-line" d="M 205.5 60 L 205.5 265" opacity="1"></path><path fill="none" class="highcharts-grid-line" d="M 244.5 60 L 244.5 265" opacity="1"></path><path fill="none" class="highcharts-grid-line" d="M 283.5 60 L 283.5 265" opacity="1"></path><path fill="none" class="highcharts-grid-line" d="M 322.5 60 L 322.5 265" opacity="1"></path><path fill="none" class="highcharts-grid-line" d="M 362.5 60 L 362.5 265" opacity="1"></path><path fill="none" class="highcharts-grid-line" d="M 401.5 60 L 401.5 265" opacity="1"></path><path fill="none" class="highcharts-grid-line" d="M 440.5 60 L 440.5 265" opacity="1"></path><path fill="none" class="highcharts-grid-line" d="M 9.5 60 L 9.5 265" opacity="1"></path></g><g class="highcharts-grid highcharts-yaxis-grid "><path fill="none" stroke="#e6e6e6" stroke-width="1" class="highcharts-grid-line" d="M 10 77.5 L 441 77.5" opacity="1"></path><path fill="none" stroke="#e6e6e6" stroke-width="1" class="highcharts-grid-line" d="M 10 94.5 L 441 94.5" opacity="1"></path><path fill="none" stroke="#e6e6e6" stroke-width="1" class="highcharts-grid-line" d="M 10 111.5 L 441 111.5" opacity="1"></path><path fill="none" stroke="#e6e6e6" stroke-width="1" class="highcharts-grid-line" d="M 10 128.5 L 441 128.5" opacity="1"></path><path fill="none" stroke="#e6e6e6" stroke-width="1" class="highcharts-grid-line" d="M 10 145.5 L 441 145.5" opacity="1"></path><path fill="none" stroke="#e6e6e6" stroke-width="1" class="highcharts-grid-line" d="M 10 163.5 L 441 163.5" opacity="1"></path><path fill="none" stroke="#e6e6e6" stroke-width="1" class="highcharts-grid-line" d="M 10 180.5 L 441 180.5" opacity="1"></path><path fill="none" stroke="#e6e6e6" stroke-width="1" class="highcharts-grid-line" d="M 10 197.5 L 441 197.5" opacity="1"></path><path fill="none" stroke="#e6e6e6" stroke-width="1" class="highcharts-grid-line" d="M 10 214.5 L 441 214.5" opacity="1"></path><path fill="none" stroke="#e6e6e6" stroke-width="1" class="highcharts-grid-line" d="M 10 231.5 L 441 231.5" opacity="1"></path><path fill="none" stroke="#e6e6e6" stroke-width="1" class="highcharts-grid-line" d="M 10 248.5 L 441 248.5" opacity="1"></path><path fill="none" stroke="#e6e6e6" stroke-width="1" class="highcharts-grid-line" d="M 10 265.5 L 441 265.5" opacity="1"></path><path fill="none" stroke="#e6e6e6" stroke-width="1" class="highcharts-grid-line" d="M 10 59.5 L 441 59.5" opacity="1"></path></g><rect fill="none" class="highcharts-plot-border" x="10" y="60" width="431" height="205"></rect><path fill="none" stroke="#e6e6e6" stroke-width="1" class="highcharts-grid-line" d="M 0 0" opacity="1"></path><path fill="none" stroke="#e6e6e6" stroke-width="1" class="highcharts-grid-line" d="M 0 0" opacity="1"></path><path fill="none" stroke="#e6e6e6" stroke-width="1" class="highcharts-grid-line" d="M 0 0" opacity="1"></path><path fill="none" stroke="#e6e6e6" stroke-width="1" class="highcharts-grid-line" d="M 0 0" opacity="1"></path><path fill="none" stroke="#e6e6e6" stroke-width="1" class="highcharts-grid-line" d="M 0 0" opacity="1"></path><g class="highcharts-axis highcharts-xaxis "><path fill="none" class="highcharts-tick" stroke="#ccd6eb" stroke-width="1" d="M 48.5 265 L 48.5 275" opacity="1"></path><path fill="none" class="highcharts-tick" stroke="#ccd6eb" stroke-width="1" d="M 87.5 265 L 87.5 275" opacity="1"></path><path fill="none" class="highcharts-tick" stroke="#ccd6eb" stroke-width="1" d="M 127.5 265 L 127.5 275" opacity="1"></path><path fill="none" class="highcharts-tick" stroke="#ccd6eb" stroke-width="1" d="M 166.5 265 L 166.5 275" opacity="1"></path><path fill="none" class="highcharts-tick" stroke="#ccd6eb" stroke-width="1" d="M 205.5 265 L 205.5 275" opacity="1"></path><path fill="none" class="highcharts-tick" stroke="#ccd6eb" stroke-width="1" d="M 244.5 265 L 244.5 275" opacity="1"></path><path fill="none" class="highcharts-tick" stroke="#ccd6eb" stroke-width="1" d="M 283.5 265 L 283.5 275" opacity="1"></path><path fill="none" class="highcharts-tick" stroke="#ccd6eb" stroke-width="1" d="M 322.5 265 L 322.5 275" opacity="1"></path><path fill="none" class="highcharts-tick" stroke="#ccd6eb" stroke-width="1" d="M 362.5 265 L 362.5 275" opacity="1"></path><path fill="none" class="highcharts-tick" stroke="#ccd6eb" stroke-width="1" d="M 401.5 265 L 401.5 275" opacity="1"></path><path fill="none" class="highcharts-tick" stroke="#ccd6eb" stroke-width="1" d="M 440.5 265 L 440.5 275" opacity="1"></path><path fill="none" class="highcharts-tick" stroke="#ccd6eb" stroke-width="1" d="M 9.5 265 L 9.5 275" opacity="1"></path><text x="225.5" text-anchor="middle" transform="translate(0,0)" class="highcharts-axis-title" style="color:#666666;fill:#666666;" y="383.0176873563991"><tspan>Section Name</tspan></text><path fill="none" class="highcharts-axis-line" stroke="#ccd6eb" stroke-width="1" d="M 10 265.5 L 441 265.5"></path></g><g class="highcharts-axis highcharts-yaxis "><path fill="none" class="highcharts-axis-line" d="M 441 60 L 441 265"></path></g><g class="highcharts-series-group"><g class="highcharts-series highcharts-series-0 highcharts-heatmap-series highcharts-color-0 " transform="translate(10,60) scale(1 1)" width="205" height="431" clip-path="url(#highcharts-9g19oj0-268)"><rect x="0" y="0" width="39" height="17" fill="rgb(92,184,92)" class="highcharts-point highcharts-color-0" stroke="rgb(228, 26, 28)" stroke-width="2"></rect><rect x="39" y="0" width="39" height="17" fill="rgb(92,184,92)" class="highcharts-point highcharts-color-0" stroke="rgb(228, 26, 28)" stroke-width="2"></rect><rect x="78" y="0" width="40" height="17" fill="rgb(92,184,92)" class="highcharts-point highcharts-color-0" stroke="rgb(228, 26, 28)" stroke-width="2"></rect><rect x="118" y="0" width="39" height="17" fill="rgb(92,184,92)" class="highcharts-point highcharts-color-0" stroke="rgb(228, 26, 28)" stroke-width="2"></rect><rect x="157" y="0" width="39" height="17" fill="rgb(254,227,145)" class="highcharts-point highcharts-color-0" stroke="rgb(228, 26, 28)" stroke-width="2"></rect><rect x="196" y="0" width="39" height="17" fill="rgb(92,184,92)" class="highcharts-point highcharts-color-0" stroke="rgb(228, 26, 28)" stroke-width="2"></rect><rect x="235" y="0" width="39" height="17" fill="rgb(92,184,92)" class="highcharts-point highcharts-color-0" stroke="rgb(228, 26, 28)" stroke-width="2"></rect><rect x="274" y="0" width="39" height="17" fill="rgb(92,184,92)" class="highcharts-point highcharts-color-0" stroke="rgb(228, 26, 28)" stroke-width="2"></rect><rect x="313" y="0" width="40" height="17" fill="rgb(217,83,79)" class="highcharts-point highcharts-color-0" stroke="rgb(228, 26, 28)" stroke-width="2"></rect><rect x="353" y="0" width="39" height="17" fill="rgb(92,184,92)" class="highcharts-point highcharts-color-0" stroke="rgb(228, 26, 28)" stroke-width="2"></rect><rect x="392" y="0" width="39" height="17" fill="rgb(92,184,92)" class="highcharts-point highcharts-color-0" stroke="rgb(228, 26, 28)" stroke-width="2"></rect><rect x="0" y="17" width="39" height="17" fill="rgb(92,184,92)" class="highcharts-point highcharts-color-0" stroke="rgb(228, 26, 28)" stroke-width="2"></rect><rect x="39" y="17" width="39" height="17" fill="rgb(92,184,92)" class="highcharts-point highcharts-color-0" stroke="rgb(228, 26, 28)" stroke-width="2"></rect><rect x="78" y="17" width="40" height="17" fill="rgb(92,184,92)" class="highcharts-point highcharts-color-0" stroke="rgb(228, 26, 28)" stroke-width="2"></rect><rect x="118" y="17" width="39" height="17" fill="rgb(92,184,92)" class="highcharts-point highcharts-color-0" stroke="rgb(228, 26, 28)" stroke-width="2"></rect><rect x="157" y="17" width="39" height="17" fill="rgb(254,227,145)" class="highcharts-point highcharts-color-0" stroke="rgb(228, 26, 28)" stroke-width="2"></rect><rect x="196" y="17" width="39" height="17" fill="rgb(92,184,92)" class="highcharts-point highcharts-color-0" stroke="rgb(228, 26, 28)" stroke-width="2"></rect><rect x="235" y="17" width="39" height="17" fill="rgb(92,184,92)" class="highcharts-point highcharts-color-0" stroke="rgb(228, 26, 28)" stroke-width="2"></rect><rect x="274" y="17" width="39" height="17" fill="rgb(92,184,92)" class="highcharts-point highcharts-color-0" stroke="rgb(228, 26, 28)" stroke-width="2"></rect><rect x="313" y="17" width="40" height="17" fill="rgb(217,83,79)" class="highcharts-point highcharts-color-0" stroke="rgb(228, 26, 28)" stroke-width="2"></rect><rect x="353" y="17" width="39" height="17" fill="rgb(254,227,145)" class="highcharts-point highcharts-color-0" stroke="rgb(228, 26, 28)" stroke-width="2"></rect><rect x="392" y="17" width="39" height="17" fill="rgb(92,184,92)" class="highcharts-point highcharts-color-0" stroke="rgb(228, 26, 28)" stroke-width="2"></rect><rect x="0" y="34" width="39" height="17" fill="rgb(92,184,92)" class="highcharts-point highcharts-color-0" stroke="rgb(228, 26, 28)" stroke-width="2"></rect><rect x="39" y="34" width="39" height="17" fill="rgb(92,184,92)" class="highcharts-point highcharts-color-0" stroke="rgb(228, 26, 28)" stroke-width="2"></rect><rect x="78" y="34" width="40" height="17" fill="rgb(92,184,92)" class="highcharts-point highcharts-color-0" stroke="rgb(228, 26, 28)" stroke-width="2"></rect><rect x="118" y="34" width="39" height="17" fill="rgb(92,184,92)" class="highcharts-point highcharts-color-0" stroke="rgb(228, 26, 28)" stroke-width="2"></rect><rect x="157" y="34" width="39" height="17" fill="rgb(217,83,79)" class="highcharts-point highcharts-color-0" stroke="rgb(228, 26, 28)" stroke-width="2"></rect><rect x="196" y="34" width="39" height="17" fill="rgb(92,184,92)" class="highcharts-point highcharts-color-0" stroke="rgb(228, 26, 28)" stroke-width="2"></rect><rect x="235" y="34" width="39" height="17" fill="rgb(92,184,92)" class="highcharts-point highcharts-color-0" stroke="rgb(228, 26, 28)" stroke-width="2"></rect><rect x="274" y="34" width="39" height="17" fill="rgb(92,184,92)" class="highcharts-point highcharts-color-0" stroke="rgb(228, 26, 28)" stroke-width="2"></rect><rect x="313" y="34" width="40" height="17" fill="rgb(217,83,79)" class="highcharts-point highcharts-color-0" stroke="rgb(228, 26, 28)" stroke-width="2"></rect><rect x="353" y="34" width="39" height="17" fill="rgb(92,184,92)" class="highcharts-point highcharts-color-0" stroke="rgb(228, 26, 28)" stroke-width="2"></rect><rect x="392" y="34" width="39" height="17" fill="rgb(92,184,92)" class="highcharts-point highcharts-color-0" stroke="rgb(228, 26, 28)" stroke-width="2"></rect><rect x="0" y="51" width="39" height="17" fill="rgb(92,184,92)" class="highcharts-point highcharts-color-0" stroke="rgb(228, 26, 28)" stroke-width="2"></rect><rect x="39" y="51" width="39" height="17" fill="rgb(92,184,92)" class="highcharts-point highcharts-color-0" stroke="rgb(228, 26, 28)" stroke-width="2"></rect><rect x="78" y="51" width="40" height="17" fill="rgb(92,184,92)" class="highcharts-point highcharts-color-0" stroke="rgb(228, 26, 28)" stroke-width="2"></rect><rect x="118" y="51" width="39" height="17" fill="rgb(92,184,92)" class="highcharts-point highcharts-color-0" stroke="rgb(228, 26, 28)" stroke-width="2"></rect><rect x="157" y="51" width="39" height="17" fill="rgb(217,83,79)" class="highcharts-point highcharts-color-0" stroke="rgb(228, 26, 28)" stroke-width="2"></rect><rect x="196" y="51" width="39" height="17" fill="rgb(92,184,92)" class="highcharts-point highcharts-color-0" stroke="rgb(228, 26, 28)" stroke-width="2"></rect><rect x="235" y="51" width="39" height="17" fill="rgb(92,184,92)" class="highcharts-point highcharts-color-0" stroke="rgb(228, 26, 28)" stroke-width="2"></rect><rect x="274" y="51" width="39" height="17" fill="rgb(92,184,92)" class="highcharts-point highcharts-color-0" stroke="rgb(228, 26, 28)" stroke-width="2"></rect><rect x="313" y="51" width="40" height="17" fill="rgb(217,83,79)" class="highcharts-point highcharts-color-0" stroke="rgb(228, 26, 28)" stroke-width="2"></rect><rect x="353" y="51" width="39" height="17" fill="rgb(92,184,92)" class="highcharts-point highcharts-color-0" stroke="rgb(228, 26, 28)" stroke-width="2"></rect><rect x="392" y="51" width="39" height="17" fill="rgb(92,184,92)" class="highcharts-point highcharts-color-0" stroke="rgb(228, 26, 28)" stroke-width="2"></rect><rect x="0" y="68" width="39" height="17" fill="rgb(92,184,92)" class="highcharts-point highcharts-color-0" stroke="rgb(198, 77, 255)" stroke-width="2"></rect><rect x="39" y="68" width="39" height="17" fill="rgb(92,184,92)" class="highcharts-point highcharts-color-0" stroke="rgb(198, 77, 255)" stroke-width="2"></rect><rect x="78" y="68" width="40" height="17" fill="rgb(92,184,92)" class="highcharts-point highcharts-color-0" stroke="rgb(198, 77, 255)" stroke-width="2"></rect><rect x="118" y="68" width="39" height="17" fill="rgb(92,184,92)" class="highcharts-point highcharts-color-0" stroke="rgb(198, 77, 255)" stroke-width="2"></rect><rect x="157" y="68" width="39" height="17" fill="rgb(217,83,79)" class="highcharts-point highcharts-color-0" stroke="rgb(198, 77, 255)" stroke-width="2"></rect><rect x="196" y="68" width="39" height="17" fill="rgb(92,184,92)" class="highcharts-point highcharts-color-0" stroke="rgb(198, 77, 255)" stroke-width="2"></rect><rect x="235" y="68" width="39" height="17" fill="rgb(92,184,92)" class="highcharts-point highcharts-color-0" stroke="rgb(198, 77, 255)" stroke-width="2"></rect><rect x="274" y="68" width="39" height="17" fill="rgb(92,184,92)" class="highcharts-point highcharts-color-0" stroke="rgb(198, 77, 255)" stroke-width="2"></rect><rect x="313" y="68" width="40" height="17" fill="rgb(217,83,79)" class="highcharts-point highcharts-color-0" stroke="rgb(198, 77, 255)" stroke-width="2"></rect><rect x="353" y="68" width="39" height="17" fill="rgb(92,184,92)" class="highcharts-point highcharts-color-0" stroke="rgb(198, 77, 255)" stroke-width="2"></rect><rect x="392" y="68" width="39" height="17" fill="rgb(92,184,92)" class="highcharts-point highcharts-color-0" stroke="rgb(198, 77, 255)" stroke-width="2"></rect><rect x="0" y="85" width="39" height="18" fill="rgb(92,184,92)" class="highcharts-point highcharts-color-0" stroke="rgb(198, 77, 255)" stroke-width="2"></rect><rect x="39" y="85" width="39" height="18" fill="rgb(92,184,92)" class="highcharts-point highcharts-color-0" stroke="rgb(198, 77, 255)" stroke-width="2"></rect><rect x="78" y="85" width="40" height="18" fill="rgb(92,184,92)" class="highcharts-point highcharts-color-0" stroke="rgb(198, 77, 255)" stroke-width="2"></rect><rect x="118" y="85" width="39" height="18" fill="rgb(92,184,92)" class="highcharts-point highcharts-color-0" stroke="rgb(198, 77, 255)" stroke-width="2"></rect><rect x="157" y="85" width="39" height="18" fill="rgb(217,83,79)" class="highcharts-point highcharts-color-0" stroke="rgb(198, 77, 255)" stroke-width="2"></rect><rect x="196" y="85" width="39" height="18" fill="rgb(92,184,92)" class="highcharts-point highcharts-color-0" stroke="rgb(198, 77, 255)" stroke-width="2"></rect><rect x="235" y="85" width="39" height="18" fill="rgb(92,184,92)" class="highcharts-point highcharts-color-0" stroke="rgb(198, 77, 255)" stroke-width="2"></rect><rect x="274" y="85" width="39" height="18" fill="rgb(92,184,92)" class="highcharts-point highcharts-color-0" stroke="rgb(198, 77, 255)" stroke-width="2"></rect><rect x="313" y="85" width="40" height="18" fill="rgb(217,83,79)" class="highcharts-point highcharts-color-0" stroke="rgb(198, 77, 255)" stroke-width="2"></rect><rect x="353" y="85" width="39" height="18" fill="rgb(92,184,92)" class="highcharts-point highcharts-color-0" stroke="rgb(198, 77, 255)" stroke-width="2"></rect><rect x="392" y="85" width="39" height="18" fill="rgb(92,184,92)" class="highcharts-point highcharts-color-0" stroke="rgb(198, 77, 255)" stroke-width="2"></rect><rect x="0" y="103" width="39" height="17" fill="rgb(92,184,92)" class="highcharts-point highcharts-color-0" stroke="rgb(198, 77, 255)" stroke-width="2"></rect><rect x="39" y="103" width="39" height="17" fill="rgb(92,184,92)" class="highcharts-point highcharts-color-0" stroke="rgb(198, 77, 255)" stroke-width="2"></rect><rect x="78" y="103" width="40" height="17" fill="rgb(92,184,92)" class="highcharts-point highcharts-color-0" stroke="rgb(198, 77, 255)" stroke-width="2"></rect><rect x="118" y="103" width="39" height="17" fill="rgb(92,184,92)" class="highcharts-point highcharts-color-0" stroke="rgb(198, 77, 255)" stroke-width="2"></rect><rect x="157" y="103" width="39" height="17" fill="rgb(217,83,79)" class="highcharts-point highcharts-color-0" stroke="rgb(198, 77, 255)" stroke-width="2"></rect><rect x="196" y="103" width="39" height="17" fill="rgb(92,184,92)" class="highcharts-point highcharts-color-0" stroke="rgb(198, 77, 255)" stroke-width="2"></rect><rect x="235" y="103" width="39" height="17" fill="rgb(92,184,92)" class="highcharts-point highcharts-color-0" stroke="rgb(198, 77, 255)" stroke-width="2"></rect><rect x="274" y="103" width="39" height="17" fill="rgb(92,184,92)" class="highcharts-point highcharts-color-0" stroke="rgb(198, 77, 255)" stroke-width="2"></rect><rect x="313" y="103" width="40" height="17" fill="rgb(217,83,79)" class="highcharts-point highcharts-color-0" stroke="rgb(198, 77, 255)" stroke-width="2"></rect><rect x="353" y="103" width="39" height="17" fill="rgb(92,184,92)" class="highcharts-point highcharts-color-0" stroke="rgb(198, 77, 255)" stroke-width="2"></rect><rect x="392" y="103" width="39" height="17" fill="rgb(92,184,92)" class="highcharts-point highcharts-color-0" stroke="rgb(198, 77, 255)" stroke-width="2"></rect><rect x="0" y="120" width="39" height="17" fill="rgb(92,184,92)" class="highcharts-point highcharts-color-0" stroke="rgb(198, 77, 255)" stroke-width="2"></rect><rect x="39" y="120" width="39" height="17" fill="rgb(92,184,92)" class="highcharts-point highcharts-color-0" stroke="rgb(198, 77, 255)" stroke-width="2"></rect><rect x="78" y="120" width="40" height="17" fill="rgb(92,184,92)" class="highcharts-point highcharts-color-0" stroke="rgb(198, 77, 255)" stroke-width="2"></rect><rect x="118" y="120" width="39" height="17" fill="rgb(92,184,92)" class="highcharts-point highcharts-color-0" stroke="rgb(198, 77, 255)" stroke-width="2"></rect><rect x="157" y="120" width="39" height="17" fill="rgb(217,83,79)" class="highcharts-point highcharts-color-0" stroke="rgb(198, 77, 255)" stroke-width="2"></rect><rect x="196" y="120" width="39" height="17" fill="rgb(92,184,92)" class="highcharts-point highcharts-color-0" stroke="rgb(198, 77, 255)" stroke-width="2"></rect><rect x="235" y="120" width="39" height="17" fill="rgb(92,184,92)" class="highcharts-point highcharts-color-0" stroke="rgb(198, 77, 255)" stroke-width="2"></rect><rect x="274" y="120" width="39" height="17" fill="rgb(92,184,92)" class="highcharts-point highcharts-color-0" stroke="rgb(198, 77, 255)" stroke-width="2"></rect><rect x="313" y="120" width="40" height="17" fill="rgb(217,83,79)" class="highcharts-point highcharts-color-0" stroke="rgb(198, 77, 255)" stroke-width="2"></rect><rect x="353" y="120" width="39" height="17" fill="rgb(92,184,92)" class="highcharts-point highcharts-color-0" stroke="rgb(198, 77, 255)" stroke-width="2"></rect><rect x="392" y="120" width="39" height="17" fill="rgb(92,184,92)" class="highcharts-point highcharts-color-0" stroke="rgb(198, 77, 255)" stroke-width="2"></rect><rect x="0" y="137" width="39" height="17" fill="rgb(92,184,92)" class="highcharts-point highcharts-color-0" stroke="rgb(102, 115, 143)" stroke-width="2"></rect><rect x="39" y="137" width="39" height="17" fill="rgb(92,184,92)" class="highcharts-point highcharts-color-0" stroke="rgb(102, 115, 143)" stroke-width="2"></rect><rect x="78" y="137" width="40" height="17" fill="rgb(92,184,92)" class="highcharts-point highcharts-color-0" stroke="rgb(102, 115, 143)" stroke-width="2"></rect><rect x="118" y="137" width="39" height="17" fill="rgb(92,184,92)" class="highcharts-point highcharts-color-0" stroke="rgb(102, 115, 143)" stroke-width="2"></rect><rect x="157" y="137" width="39" height="17" fill="rgb(217,83,79)" class="highcharts-point highcharts-color-0" stroke="rgb(102, 115, 143)" stroke-width="2"></rect><rect x="196" y="137" width="39" height="17" fill="rgb(92,184,92)" class="highcharts-point highcharts-color-0" stroke="rgb(102, 115, 143)" stroke-width="2"></rect><rect x="235" y="137" width="39" height="17" fill="rgb(92,184,92)" class="highcharts-point highcharts-color-0" stroke="rgb(102, 115, 143)" stroke-width="2"></rect><rect x="274" y="137" width="39" height="17" fill="rgb(92,184,92)" class="highcharts-point highcharts-color-0" stroke="rgb(102, 115, 143)" stroke-width="2"></rect><rect x="313" y="137" width="40" height="17" fill="rgb(217,83,79)" class="highcharts-point highcharts-color-0" stroke="rgb(102, 115, 143)" stroke-width="2"></rect><rect x="353" y="137" width="39" height="17" fill="rgb(92,184,92)" class="highcharts-point highcharts-color-0" stroke="rgb(102, 115, 143)" stroke-width="2"></rect><rect x="392" y="137" width="39" height="17" fill="rgb(92,184,92)" class="highcharts-point highcharts-color-0" stroke="rgb(102, 115, 143)" stroke-width="2"></rect><rect x="0" y="154" width="39" height="17" fill="rgb(92,184,92)" class="highcharts-point highcharts-color-0" stroke="rgb(102, 115, 143)" stroke-width="2"></rect><rect x="39" y="154" width="39" height="17" fill="rgb(92,184,92)" class="highcharts-point highcharts-color-0" stroke="rgb(102, 115, 143)" stroke-width="2"></rect><rect x="78" y="154" width="40" height="17" fill="rgb(92,184,92)" class="highcharts-point highcharts-color-0" stroke="rgb(102, 115, 143)" stroke-width="2"></rect><rect x="118" y="154" width="39" height="17" fill="rgb(92,184,92)" class="highcharts-point highcharts-color-0" stroke="rgb(102, 115, 143)" stroke-width="2"></rect><rect x="157" y="154" width="39" height="17" fill="rgb(217,83,79)" class="highcharts-point highcharts-color-0" stroke="rgb(102, 115, 143)" stroke-width="2"></rect><rect x="196" y="154" width="39" height="17" fill="rgb(92,184,92)" class="highcharts-point highcharts-color-0" stroke="rgb(102, 115, 143)" stroke-width="2"></rect><rect x="235" y="154" width="39" height="17" fill="rgb(92,184,92)" class="highcharts-point highcharts-color-0" stroke="rgb(102, 115, 143)" stroke-width="2"></rect><rect x="274" y="154" width="39" height="17" fill="rgb(92,184,92)" class="highcharts-point highcharts-color-0" stroke="rgb(102, 115, 143)" stroke-width="2"></rect><rect x="313" y="154" width="40" height="17" fill="rgb(217,83,79)" class="highcharts-point highcharts-color-0" stroke="rgb(102, 115, 143)" stroke-width="2"></rect><rect x="353" y="154" width="39" height="17" fill="rgb(254,227,145)" class="highcharts-point highcharts-color-0" stroke="rgb(102, 115, 143)" stroke-width="2"></rect><rect x="392" y="154" width="39" height="17" fill="rgb(92,184,92)" class="highcharts-point highcharts-color-0" stroke="rgb(102, 115, 143)" stroke-width="2"></rect><rect x="0" y="171" width="39" height="17" fill="rgb(92,184,92)" class="highcharts-point highcharts-color-0" stroke="rgb(102, 115, 143)" stroke-width="2"></rect><rect x="39" y="171" width="39" height="17" fill="rgb(92,184,92)" class="highcharts-point highcharts-color-0" stroke="rgb(102, 115, 143)" stroke-width="2"></rect><rect x="78" y="171" width="40" height="17" fill="rgb(92,184,92)" class="highcharts-point highcharts-color-0" stroke="rgb(102, 115, 143)" stroke-width="2"></rect><rect x="118" y="171" width="39" height="17" fill="rgb(92,184,92)" class="highcharts-point highcharts-color-0" stroke="rgb(102, 115, 143)" stroke-width="2"></rect><rect x="157" y="171" width="39" height="17" fill="rgb(217,83,79)" class="highcharts-point highcharts-color-0" stroke="rgb(102, 115, 143)" stroke-width="2"></rect><rect x="196" y="171" width="39" height="17" fill="rgb(92,184,92)" class="highcharts-point highcharts-color-0" stroke="rgb(102, 115, 143)" stroke-width="2"></rect><rect x="235" y="171" width="39" height="17" fill="rgb(92,184,92)" class="highcharts-point highcharts-color-0" stroke="rgb(102, 115, 143)" stroke-width="2"></rect><rect x="274" y="171" width="39" height="17" fill="rgb(92,184,92)" class="highcharts-point highcharts-color-0" stroke="rgb(102, 115, 143)" stroke-width="2"></rect><rect x="313" y="171" width="40" height="17" fill="rgb(217,83,79)" class="highcharts-point highcharts-color-0" stroke="rgb(102, 115, 143)" stroke-width="2"></rect><rect x="353" y="171" width="39" height="17" fill="rgb(92,184,92)" class="highcharts-point highcharts-color-0" stroke="rgb(102, 115, 143)" stroke-width="2"></rect><rect x="392" y="171" width="39" height="17" fill="rgb(92,184,92)" class="highcharts-point highcharts-color-0" stroke="rgb(102, 115, 143)" stroke-width="2"></rect><rect x="0" y="188" width="39" height="17" fill="rgb(92,184,92)" class="highcharts-point highcharts-color-0" stroke="rgb(102, 115, 143)" stroke-width="2"></rect><rect x="39" y="188" width="39" height="17" fill="rgb(92,184,92)" class="highcharts-point highcharts-color-0" stroke="rgb(102, 115, 143)" stroke-width="2"></rect><rect x="78" y="188" width="40" height="17" fill="rgb(92,184,92)" class="highcharts-point highcharts-color-0" stroke="rgb(102, 115, 143)" stroke-width="2"></rect><rect x="118" y="188" width="39" height="17" fill="rgb(92,184,92)" class="highcharts-point highcharts-color-0" stroke="rgb(102, 115, 143)" stroke-width="2"></rect><rect x="157" y="188" width="39" height="17" fill="rgb(217,83,79)" class="highcharts-point highcharts-color-0" stroke="rgb(102, 115, 143)" stroke-width="2"></rect><rect x="196" y="188" width="39" height="17" fill="rgb(92,184,92)" class="highcharts-point highcharts-color-0" stroke="rgb(102, 115, 143)" stroke-width="2"></rect><rect x="235" y="188" width="39" height="17" fill="rgb(92,184,92)" class="highcharts-point highcharts-color-0" stroke="rgb(102, 115, 143)" stroke-width="2"></rect><rect x="274" y="188" width="39" height="17" fill="rgb(92,184,92)" class="highcharts-point highcharts-color-0" stroke="rgb(102, 115, 143)" stroke-width="2"></rect><rect x="313" y="188" width="40" height="17" fill="rgb(217,83,79)" class="highcharts-point highcharts-color-0" stroke="rgb(102, 115, 143)" stroke-width="2"></rect><rect x="353" y="188" width="39" height="17" fill="rgb(92,184,92)" class="highcharts-point highcharts-color-0" stroke="rgb(102, 115, 143)" stroke-width="2"></rect><rect x="392" y="188" width="39" height="17" fill="rgb(92,184,92)" class="highcharts-point highcharts-color-0" stroke="rgb(102, 115, 143)" stroke-width="2"></rect></g><g class="highcharts-markers highcharts-series-0 highcharts-heatmap-series highcharts-color-0 " transform="translate(10,60) scale(1 1)" width="205" height="431" clip-path="none"></g></g><text x="300" text-anchor="middle" class="highcharts-title" style="color:#333333;font-size:18px;fill:#333333;width:536px;" y="24"><tspan>FastQC: Status Checks</tspan></text><g class="highcharts-axis-labels highcharts-xaxis-labels "><text x="32.183633955259765" style="color:#666666;cursor:default;font-size:11px;fill:#666666;width:36;text-overflow:ellipsis;" text-anchor="end" transform="translate(0,0) rotate(-45 32.183633955259765 281)" y="281" opacity="1"><tspan>Basi…</tspan><title>Basic Statistics</title></text><text x="71.36545213707794" style="color:#666666;cursor:default;font-size:11px;fill:#666666;width:91;text-overflow:ellipsis;" text-anchor="end" transform="translate(0,0) rotate(-45 71.36545213707794 281)" y="281" opacity="1"><tspan>Per Base Seque…</tspan><title>Per Base Sequence Qu</title></text><text x="110.54727031889612" style="color:#666666;cursor:default;font-size:11px;fill:#666666;width:400px;text-overflow:ellipsis;" text-anchor="end" transform="translate(0,0) rotate(-45 110.54727031889612 281)" y="281" opacity="1"><tspan>Per Tile Sequence Qu</tspan></text><text x="149.7290885007143" style="color:#666666;cursor:default;font-size:11px;fill:#666666;width:400px;text-overflow:ellipsis;" text-anchor="end" transform="translate(0,0) rotate(-45 149.7290885007143 281)" y="281" opacity="1"><tspan>Per Sequence Quality</tspan></text><text x="188.9109066825325" style="color:#666666;cursor:default;font-size:11px;fill:#666666;width:400px;text-overflow:ellipsis;" text-anchor="end" transform="translate(0,0) rotate(-45 188.9109066825325 281)" y="281" opacity="1"><tspan>Per Base Sequence Co</tspan></text><text x="228.09272486435069" style="color:#666666;cursor:default;font-size:11px;fill:#666666;width:400px;text-overflow:ellipsis;" text-anchor="end" transform="translate(0,0) rotate(-45 228.09272486435069 281)" y="281" opacity="1"><tspan>Per Sequence GC Cont</tspan></text><text x="267.27454304616884" style="color:#666666;cursor:default;font-size:11px;fill:#666666;width:400px;text-overflow:ellipsis;" text-anchor="end" transform="translate(0,0) rotate(-45 267.27454304616884 281)" y="281" opacity="1"><tspan>Per Base N Content</tspan></text><text x="306.45636122798703" style="color:#666666;cursor:default;font-size:11px;fill:#666666;width:400px;text-overflow:ellipsis;" text-anchor="end" transform="translate(0,0) rotate(-45 306.45636122798703 281)" y="281" opacity="1"><tspan>Sequence Length Dist</tspan></text><text x="345.63817940980516" style="color:#666666;cursor:default;font-size:11px;fill:#666666;width:400px;text-overflow:ellipsis;" text-anchor="end" transform="translate(0,0) rotate(-45 345.63817940980516 281)" y="281" opacity="1"><tspan>Sequence Duplication</tspan></text><text x="384.81999759162335" style="color:#666666;cursor:default;font-size:11px;fill:#666666;width:400px;text-overflow:ellipsis;" text-anchor="end" transform="translate(0,0) rotate(-45 384.81999759162335 281)" y="281" opacity="1"><tspan>Overrepresented Sequ</tspan></text><text x="424.00181577344154" style="color:#666666;cursor:default;font-size:11px;fill:#666666;width:400px;text-overflow:ellipsis;" text-anchor="end" transform="translate(0,0) rotate(-45 424.00181577344154 281)" y="281" opacity="1"><tspan>Adapter Content</tspan></text></g><g class="highcharts-axis-labels highcharts-yaxis-labels "><text x="456" style="color:#666666;cursor:default;font-size:11px;fill:#666666;width:188px;text-overflow:clip;" text-anchor="start" transform="translate(0,0)" y="73" opacity="1"><tspan>mT5_Kras242_S117_L00</tspan></text><text x="456" style="color:#666666;cursor:default;font-size:11px;fill:#666666;width:188px;text-overflow:clip;" text-anchor="start" transform="translate(0,0)" y="90" opacity="1"><tspan>mT5_Kras242_S117_L00</tspan></text><text x="456" style="color:#666666;cursor:default;font-size:11px;fill:#666666;width:188px;text-overflow:clip;" text-anchor="start" transform="translate(0,0)" y="107" opacity="1"><tspan>mT5_Kras467_S118_L00</tspan></text><text x="456" style="color:#666666;cursor:default;font-size:11px;fill:#666666;width:188px;text-overflow:clip;" text-anchor="start" transform="translate(0,0)" y="124" opacity="1"><tspan>mT5_Kras467_S118_L00</tspan></text><text x="456" style="color:#666666;cursor:default;font-size:11px;fill:#666666;width:188px;text-overflow:clip;" text-anchor="start" transform="translate(0,0)" y="141" opacity="1"><tspan>mT5_Rac1_11_S119_L00</tspan></text><text x="456" style="color:#666666;cursor:default;font-size:11px;fill:#666666;width:188px;text-overflow:clip;" text-anchor="start" transform="translate(0,0)" y="158" opacity="1"><tspan>mT5_Rac1_11_S119_L00</tspan></text><text x="456" style="color:#666666;cursor:default;font-size:11px;fill:#666666;width:188px;text-overflow:clip;" text-anchor="start" transform="translate(0,0)" y="176" opacity="1"><tspan>mT5_Rac1_14_S120_L00</tspan></text><text x="456" style="color:#666666;cursor:default;font-size:11px;fill:#666666;width:188px;text-overflow:clip;" text-anchor="start" transform="translate(0,0)" y="193" opacity="1"><tspan>mT5_Rac1_14_S120_L00</tspan></text><text x="456" style="color:#666666;cursor:default;font-size:11px;fill:#666666;width:188px;text-overflow:clip;" text-anchor="start" transform="translate(0,0)" y="210" opacity="1"><tspan>mT5_Ren2_S125_L003_R</tspan></text><text x="456" style="color:#666666;cursor:default;font-size:11px;fill:#666666;width:188px;text-overflow:clip;" text-anchor="start" transform="translate(0,0)" y="227" opacity="1"><tspan>mT5_Ren2_S125_L003_R</tspan></text><text x="456" style="color:#666666;cursor:default;font-size:11px;fill:#666666;width:188px;text-overflow:clip;" text-anchor="start" transform="translate(0,0)" y="244" opacity="1"><tspan>mT5_Ren_S116_L003_R1</tspan></text><text x="456" style="color:#666666;cursor:default;font-size:11px;fill:#666666;width:188px;text-overflow:clip;" text-anchor="start" transform="translate(0,0)" y="261" opacity="1"><tspan>mT5_Ren_S116_L003_R2</tspan></text></g><text x="590" class="highcharts-credits" text-anchor="end" style="cursor:pointer;color:#999999;font-size:9px;fill:#999999;" y="395"><tspan>Created with MultiQC</tspan></text></svg>