<svg xmlns:xlink="http://www.w3.org/1999/xlink" version="1.1" class="highcharts-root" style="font-family:&quot;lucida grande&quot;, &quot;lucida sans unicode&quot;, arial, helvetica, sans-serif;font-size:12px;" xmlns="http://www.w3.org/2000/svg" width="600" height="400"><desc>Created with Highcharts 5.0.6</desc><defs><clipPath id="highcharts-9g19oj0-141"><rect x="0" y="0" width="261" height="380" fill="none"></rect></clipPath></defs><rect fill="#ffffff" class="highcharts-background" x="0" y="0" width="600" height="400" rx="0" ry="0"></rect><rect fill="none" class="highcharts-plot-background" x="210" y="47" width="380" height="261"></rect><g class="highcharts-grid highcharts-xaxis-grid "><path fill="none" class="highcharts-grid-line" d="M 210 69.5 L 590 69.5" opacity="1"></path><path fill="none" class="highcharts-grid-line" d="M 210 91.5 L 590 91.5" opacity="1"></path><path fill="none" class="highcharts-grid-line" d="M 210 112.5 L 590 112.5" opacity="1"></path><path fill="none" class="highcharts-grid-line" d="M 210 134.5 L 590 134.5" opacity="1"></path><path fill="none" class="highcharts-grid-line" d="M 210 156.5 L 590 156.5" opacity="1"></path><path fill="none" class="highcharts-grid-line" d="M 210 178.5 L 590 178.5" opacity="1"></path><path fill="none" class="highcharts-grid-line" d="M 210 199.5 L 590 199.5" opacity="1"></path><path fill="none" class="highcharts-grid-line" d="M 210 221.5 L 590 221.5" opacity="1"></path><path fill="none" class="highcharts-grid-line" d="M 210 243.5 L 590 243.5" opacity="1"></path><path fill="none" class="highcharts-grid-line" d="M 210 265.5 L 590 265.5" opacity="1"></path><path fill="none" class="highcharts-grid-line" d="M 210 286.5 L 590 286.5" opacity="1"></path><path fill="none" class="highcharts-grid-line" d="M 210 308.5 L 590 308.5" opacity="1"></path><path fill="none" class="highcharts-grid-line" d="M 210 47.5 L 590 47.5" opacity="1"></path></g><g class="highcharts-grid highcharts-yaxis-grid "><path fill="none" stroke="#e6e6e6" stroke-width="1" class="highcharts-grid-line" d="M 209.5 47 L 209.5 308" opacity="1"></path><path fill="none" stroke="#e6e6e6" stroke-width="1" class="highcharts-grid-line" d="M 285.5 47 L 285.5 308" opacity="1"></path><path fill="none" stroke="#e6e6e6" stroke-width="1" class="highcharts-grid-line" d="M 361.5 47 L 361.5 308" opacity="1"></path><path fill="none" stroke="#e6e6e6" stroke-width="1" class="highcharts-grid-line" d="M 437.5 47 L 437.5 308" opacity="1"></path><path fill="none" stroke="#e6e6e6" stroke-width="1" class="highcharts-grid-line" d="M 513.5 47 L 513.5 308" opacity="1"></path><path fill="none" stroke="#e6e6e6" stroke-width="1" class="highcharts-grid-line" d="M 590.5 47 L 590.5 308" opacity="1"></path></g><rect fill="none" class="highcharts-plot-border" x="210" y="47" width="380" height="261"></rect><g class="highcharts-axis highcharts-xaxis "><path fill="none" class="highcharts-tick" stroke="#ccd6eb" stroke-width="1" d="M 210 69.5 L 200 69.5" opacity="1"></path><path fill="none" class="highcharts-tick" stroke="#ccd6eb" stroke-width="1" d="M 210 91.5 L 200 91.5" opacity="1"></path><path fill="none" class="highcharts-tick" stroke="#ccd6eb" stroke-width="1" d="M 210 112.5 L 200 112.5" opacity="1"></path><path fill="none" class="highcharts-tick" stroke="#ccd6eb" stroke-width="1" d="M 210 134.5 L 200 134.5" opacity="1"></path><path fill="none" class="highcharts-tick" stroke="#ccd6eb" stroke-width="1" d="M 210 156.5 L 200 156.5" opacity="1"></path><path fill="none" class="highcharts-tick" stroke="#ccd6eb" stroke-width="1" d="M 210 178.5 L 200 178.5" opacity="1"></path><path fill="none" class="highcharts-tick" stroke="#ccd6eb" stroke-width="1" d="M 210 199.5 L 200 199.5" opacity="1"></path><path fill="none" class="highcharts-tick" stroke="#ccd6eb" stroke-width="1" d="M 210 221.5 L 200 221.5" opacity="1"></path><path fill="none" class="highcharts-tick" stroke="#ccd6eb" stroke-width="1" d="M 210 243.5 L 200 243.5" opacity="1"></path><path fill="none" class="highcharts-tick" stroke="#ccd6eb" stroke-width="1" d="M 210 265.5 L 200 265.5" opacity="1"></path><path fill="none" class="highcharts-tick" stroke="#ccd6eb" stroke-width="1" d="M 210 286.5 L 200 286.5" opacity="1"></path><path fill="none" class="highcharts-tick" stroke="#ccd6eb" stroke-width="1" d="M 210 308.5 L 200 308.5" opacity="1"></path><path fill="none" class="highcharts-tick" stroke="#ccd6eb" stroke-width="1" d="M 210 46.5 L 200 46.5" opacity="1"></path><path fill="none" class="highcharts-axis-line" stroke="#ccd6eb" stroke-width="1" d="M 209.5 47 L 209.5 308"></path></g><g class="highcharts-axis highcharts-yaxis "><text x="400" text-anchor="middle" transform="translate(0,0)" class="highcharts-axis-title" style="color:#666666;fill:#666666;" y="346"><tspan>Number of reads</tspan></text><path fill="none" class="highcharts-axis-line" d="M 210 308 L 590 308"></path></g><g class="highcharts-series-group"><g class="highcharts-series highcharts-series-0 highcharts-bar-series highcharts-color-undefined " transform="translate(590,308) rotate(90) scale(-1,1) scale(1 1)" width="380" height="261" clip-path="url(#highcharts-9g19oj0-141)"><rect x="242" y="298" width="17" height="83" fill="#7cb5ec" class="highcharts-point" stroke="rgb(228, 26, 28)" stroke-width="2"></rect><rect x="220" y="292" width="17" height="89" fill="#7cb5ec" class="highcharts-point" stroke="rgb(228, 26, 28)" stroke-width="2"></rect><rect x="198" y="293" width="17" height="88" fill="#7cb5ec" class="highcharts-point" stroke="rgb(228, 26, 28)" stroke-width="2"></rect><rect x="177" y="288" width="17" height="93" fill="#7cb5ec" class="highcharts-point" stroke="rgb(228, 26, 28)" stroke-width="2"></rect><rect x="155" y="301" width="17" height="80" fill="#7cb5ec" class="highcharts-point" stroke="rgb(198, 77, 255)" stroke-width="2"></rect><rect x="133" y="296" width="17" height="85" fill="#7cb5ec" class="highcharts-point" stroke="rgb(198, 77, 255)" stroke-width="2"></rect><rect x="111" y="274" width="17" height="107" fill="#7cb5ec" class="highcharts-point" stroke="rgb(198, 77, 255)" stroke-width="2"></rect><rect x="90" y="264" width="17" height="117" fill="#7cb5ec" class="highcharts-point" stroke="rgb(198, 77, 255)" stroke-width="2"></rect><rect x="68" y="273" width="17" height="108" fill="#7cb5ec" class="highcharts-point" stroke="rgb(102, 115, 143)" stroke-width="2"></rect><rect x="46" y="267" width="17" height="114" fill="#7cb5ec" class="highcharts-point" stroke="rgb(102, 115, 143)" stroke-width="2"></rect><rect x="24" y="275" width="17" height="106" fill="#7cb5ec" class="highcharts-point" stroke="rgb(102, 115, 143)" stroke-width="2"></rect><rect x="3" y="268" width="17" height="113" fill="#7cb5ec" class="highcharts-point" stroke="rgb(102, 115, 143)" stroke-width="2"></rect></g><g class="highcharts-markers highcharts-series-0 highcharts-bar-series highcharts-color-undefined " transform="translate(590,308) rotate(90) scale(-1,1) scale(1 1)" width="380" height="261" clip-path="none"></g><g class="highcharts-series highcharts-series-1 highcharts-bar-series highcharts-color-undefined " transform="translate(590,308) rotate(90) scale(-1,1) scale(1 1)" width="380" height="261" clip-path="url(#highcharts-9g19oj0-141)"><rect x="242" y="164" width="17" height="134" fill="#434348" class="highcharts-point" stroke="rgb(228, 26, 28)" stroke-width="2"></rect><rect x="220" y="164" width="17" height="128" fill="#434348" class="highcharts-point" stroke="rgb(228, 26, 28)" stroke-width="2"></rect><rect x="198" y="134" width="17" height="159" fill="#434348" class="highcharts-point" stroke="rgb(228, 26, 28)" stroke-width="2"></rect><rect x="177" y="134" width="17" height="154" fill="#434348" class="highcharts-point" stroke="rgb(228, 26, 28)" stroke-width="2"></rect><rect x="155" y="168" width="17" height="133" fill="#434348" class="highcharts-point" stroke="rgb(198, 77, 255)" stroke-width="2"></rect><rect x="133" y="168" width="17" height="128" fill="#434348" class="highcharts-point" stroke="rgb(198, 77, 255)" stroke-width="2"></rect><rect x="111" y="89" width="17" height="185" fill="#434348" class="highcharts-point" stroke="rgb(198, 77, 255)" stroke-width="2"></rect><rect x="90" y="89" width="17" height="175" fill="#434348" class="highcharts-point" stroke="rgb(198, 77, 255)" stroke-width="2"></rect><rect x="68" y="115" width="17" height="158" fill="#434348" class="highcharts-point" stroke="rgb(102, 115, 143)" stroke-width="2"></rect><rect x="46" y="115" width="17" height="152" fill="#434348" class="highcharts-point" stroke="rgb(102, 115, 143)" stroke-width="2"></rect><rect x="24" y="84" width="17" height="191" fill="#434348" class="highcharts-point" stroke="rgb(102, 115, 143)" stroke-width="2"></rect><rect x="3" y="84" width="17" height="184" fill="#434348" class="highcharts-point" stroke="rgb(102, 115, 143)" stroke-width="2"></rect></g><g class="highcharts-markers highcharts-series-1 highcharts-bar-series highcharts-color-undefined " transform="translate(590,308) rotate(90) scale(-1,1) scale(1 1)" width="380" height="261" clip-path="none"></g></g><text x="300" text-anchor="middle" class="highcharts-title" style="color:#333333;font-size:18px;fill:#333333;width:536px;" y="24"><tspan>FastQC: Sequence Counts</tspan></text><g class="highcharts-legend" transform="translate(169,360)"><rect fill="none" class="highcharts-legend-box" rx="0" ry="0" x="0" y="0" width="262" height="25" visibility="visible"></rect><g><g><g class="highcharts-legend-item highcharts-bar-series highcharts-color-undefined highcharts-series-0" transform="translate(8,3)"><text x="21" style="color:#333333;font-size:12px;font-weight:bold;cursor:pointer;fill:#333333;" text-anchor="start" y="15"><tspan>Unique Reads</tspan></text><rect x="2" y="4" width="12" height="12" fill="#7cb5ec" rx="6" ry="6" class="highcharts-point"></rect></g><g class="highcharts-legend-item highcharts-bar-series highcharts-color-undefined highcharts-series-1" transform="translate(133.5390625,3)"><text x="21" y="15" style="color:#333333;font-size:12px;font-weight:bold;cursor:pointer;fill:#333333;" text-anchor="start"><tspan>Duplicate Reads</tspan></text><rect x="2" y="4" width="12" height="12" fill="#434348" rx="6" ry="6" class="highcharts-point"></rect></g></g></g></g><g class="highcharts-axis-labels highcharts-xaxis-labels "><text x="195" style="color:#666666;cursor:default;font-size:11px;fill:#666666;width:188px;text-overflow:clip;" text-anchor="end" transform="translate(0,0)" y="62" opacity="1"><tspan>mT5_Kras242_S117_L003_R1_001</tspan></text><text x="195" style="color:#666666;cursor:default;font-size:11px;fill:#666666;width:188px;text-overflow:clip;" text-anchor="end" transform="translate(0,0)" y="84" opacity="1"><tspan>mT5_Kras242_S117_L003_R2_001</tspan></text><text x="195" style="color:#666666;cursor:default;font-size:11px;fill:#666666;width:188px;text-overflow:clip;" text-anchor="end" transform="translate(0,0)" y="106" opacity="1"><tspan>mT5_Kras467_S118_L003_R1_001</tspan></text><text x="195" style="color:#666666;cursor:default;font-size:11px;fill:#666666;width:188px;text-overflow:clip;" text-anchor="end" transform="translate(0,0)" y="128" opacity="1"><tspan>mT5_Kras467_S118_L003_R2_001</tspan></text><text x="195" style="color:#666666;cursor:default;font-size:11px;fill:#666666;width:188px;text-overflow:clip;" text-anchor="end" transform="translate(0,0)" y="149" opacity="1"><tspan>mT5_Rac1_11_S119_L003_R1_001</tspan></text><text x="195" style="color:#666666;cursor:default;font-size:11px;fill:#666666;width:188px;text-overflow:clip;" text-anchor="end" transform="translate(0,0)" y="171" opacity="1"><tspan>mT5_Rac1_11_S119_L003_R2_001</tspan></text><text x="195" style="color:#666666;cursor:default;font-size:11px;fill:#666666;width:188px;text-overflow:clip;" text-anchor="end" transform="translate(0,0)" y="193" opacity="1"><tspan>mT5_Rac1_14_S120_L003_R1_001</tspan></text><text x="195" style="color:#666666;cursor:default;font-size:11px;fill:#666666;width:188px;text-overflow:clip;" text-anchor="end" transform="translate(0,0)" y="215" opacity="1"><tspan>mT5_Rac1_14_S120_L003_R2_001</tspan></text><text x="195" style="color:#666666;cursor:default;font-size:11px;fill:#666666;width:188px;text-overflow:clip;" text-anchor="end" transform="translate(0,0)" y="236" opacity="1"><tspan>mT5_Ren2_S125_L003_R1_001</tspan></text><text x="195" style="color:#666666;cursor:default;font-size:11px;fill:#666666;width:188px;text-overflow:clip;" text-anchor="end" transform="translate(0,0)" y="258" opacity="1"><tspan>mT5_Ren2_S125_L003_R2_001</tspan></text><text x="195" style="color:#666666;cursor:default;font-size:11px;fill:#666666;width:188px;text-overflow:clip;" text-anchor="end" transform="translate(0,0)" y="280" opacity="1"><tspan>mT5_Ren_S116_L003_R1_001</tspan></text><text x="195" style="color:#666666;cursor:default;font-size:11px;fill:#666666;width:188px;text-overflow:clip;" text-anchor="end" transform="translate(0,0)" y="302" opacity="1"><tspan>mT5_Ren_S116_L003_R2_001</tspan></text></g><g class="highcharts-axis-labels highcharts-yaxis-labels "><text x="210" style="color:#666666;cursor:default;font-size:11px;fill:#666666;width:66px;text-overflow:clip;" text-anchor="middle" transform="translate(0,0)" y="327" opacity="1"><tspan>0</tspan></text><text x="286" style="color:#666666;cursor:default;font-size:11px;fill:#666666;width:66px;text-overflow:clip;" text-anchor="middle" transform="translate(0,0)" y="327" opacity="1"><tspan>20M</tspan></text><text x="362" style="color:#666666;cursor:default;font-size:11px;fill:#666666;width:66px;text-overflow:clip;" text-anchor="middle" transform="translate(0,0)" y="327" opacity="1"><tspan>40M</tspan></text><text x="438" style="color:#666666;cursor:default;font-size:11px;fill:#666666;width:66px;text-overflow:clip;" text-anchor="middle" transform="translate(0,0)" y="327" opacity="1"><tspan>60M</tspan></text><text x="514" style="color:#666666;cursor:default;font-size:11px;fill:#666666;width:66px;text-overflow:clip;" text-anchor="middle" transform="translate(0,0)" y="327" opacity="1"><tspan>80M</tspan></text><text x="574.828125" style="color:#666666;cursor:default;font-size:11px;fill:#666666;width:66px;text-overflow:clip;" text-anchor="middle" transform="translate(0,0)" y="327" opacity="1"><tspan>100M</tspan></text></g><text x="590" class="highcharts-credits" text-anchor="end" style="cursor:pointer;color:#999999;font-size:9px;fill:#999999;" y="395"><tspan>Created with MultiQC</tspan></text></svg>