<svg xmlns:xlink="http://www.w3.org/1999/xlink" version="1.1" class="highcharts-root" style="font-family:&quot;lucida grande&quot;, &quot;lucida sans unicode&quot;, arial, helvetica, sans-serif;font-size:12px;" xmlns="http://www.w3.org/2000/svg" width="600" height="400"><desc>Created with Highcharts 5.0.6</desc><defs><clipPath id="highcharts-9g19oj0-211"><rect x="0" y="0" width="513" height="275" fill="none"></rect></clipPath></defs><rect fill="#ffffff" class="highcharts-background" x="0" y="0" width="600" height="400" rx="0" ry="0"></rect><rect fill="none" class="highcharts-plot-background" x="77" y="47" width="513" height="275"></rect><g class="highcharts-grid highcharts-xaxis-grid "><path fill="none" class="highcharts-grid-line" d="M 108.5 47 L 108.5 322" opacity="1"></path><path fill="none" class="highcharts-grid-line" d="M 140.5 47 L 140.5 322" opacity="1"></path><path fill="none" class="highcharts-grid-line" d="M 172.5 47 L 172.5 322" opacity="1"></path><path fill="none" class="highcharts-grid-line" d="M 204.5 47 L 204.5 322" opacity="1"></path><path fill="none" class="highcharts-grid-line" d="M 236.5 47 L 236.5 322" opacity="1"></path><path fill="none" class="highcharts-grid-line" d="M 268.5 47 L 268.5 322" opacity="1"></path><path fill="none" class="highcharts-grid-line" d="M 300.5 47 L 300.5 322" opacity="1"></path><path fill="none" class="highcharts-grid-line" d="M 333.5 47 L 333.5 322" opacity="1"></path><path fill="none" class="highcharts-grid-line" d="M 365.5 47 L 365.5 322" opacity="1"></path><path fill="none" class="highcharts-grid-line" d="M 397.5 47 L 397.5 322" opacity="1"></path><path fill="none" class="highcharts-grid-line" d="M 429.5 47 L 429.5 322" opacity="1"></path><path fill="none" class="highcharts-grid-line" d="M 461.5 47 L 461.5 322" opacity="1"></path><path fill="none" class="highcharts-grid-line" d="M 493.5 47 L 493.5 322" opacity="1"></path><path fill="none" class="highcharts-grid-line" d="M 525.5 47 L 525.5 322" opacity="1"></path><path fill="none" class="highcharts-grid-line" d="M 557.5 47 L 557.5 322" opacity="1"></path><path fill="none" class="highcharts-grid-line" d="M 589.5 47 L 589.5 322" opacity="1"></path><path fill="none" class="highcharts-grid-line" d="M 76.5 47 L 76.5 322" opacity="1"></path></g><g class="highcharts-grid highcharts-yaxis-grid "><path fill="none" stroke="#e6e6e6" stroke-width="1" class="highcharts-grid-line" d="M 77 322.5 L 590 322.5" opacity="1"></path><path fill="none" stroke="#e6e6e6" stroke-width="1" class="highcharts-grid-line" d="M 77 253.5 L 590 253.5" opacity="1"></path><path fill="none" stroke="#e6e6e6" stroke-width="1" class="highcharts-grid-line" d="M 77 185.5 L 590 185.5" opacity="1"></path><path fill="none" stroke="#e6e6e6" stroke-width="1" class="highcharts-grid-line" d="M 77 116.5 L 590 116.5" opacity="1"></path><path fill="none" stroke="#e6e6e6" stroke-width="1" class="highcharts-grid-line" d="M 77 46.5 L 590 46.5" opacity="1"></path></g><rect fill="none" class="highcharts-plot-border" x="77" y="47" width="513" height="275"></rect><g class="highcharts-axis highcharts-xaxis "><path fill="none" class="highcharts-tick" stroke="#ccd6eb" stroke-width="1" d="M 108.5 322 L 108.5 332" opacity="1"></path><path fill="none" class="highcharts-tick" stroke="#ccd6eb" stroke-width="1" d="M 140.5 322 L 140.5 332" opacity="1"></path><path fill="none" class="highcharts-tick" stroke="#ccd6eb" stroke-width="1" d="M 172.5 322 L 172.5 332" opacity="1"></path><path fill="none" class="highcharts-tick" stroke="#ccd6eb" stroke-width="1" d="M 204.5 322 L 204.5 332" opacity="1"></path><path fill="none" class="highcharts-tick" stroke="#ccd6eb" stroke-width="1" d="M 236.5 322 L 236.5 332" opacity="1"></path><path fill="none" class="highcharts-tick" stroke="#ccd6eb" stroke-width="1" d="M 268.5 322 L 268.5 332" opacity="1"></path><path fill="none" class="highcharts-tick" stroke="#ccd6eb" stroke-width="1" d="M 300.5 322 L 300.5 332" opacity="1"></path><path fill="none" class="highcharts-tick" stroke="#ccd6eb" stroke-width="1" d="M 333.5 322 L 333.5 332" opacity="1"></path><path fill="none" class="highcharts-tick" stroke="#ccd6eb" stroke-width="1" d="M 365.5 322 L 365.5 332" opacity="1"></path><path fill="none" class="highcharts-tick" stroke="#ccd6eb" stroke-width="1" d="M 397.5 322 L 397.5 332" opacity="1"></path><path fill="none" class="highcharts-tick" stroke="#ccd6eb" stroke-width="1" d="M 429.5 322 L 429.5 332" opacity="1"></path><path fill="none" class="highcharts-tick" stroke="#ccd6eb" stroke-width="1" d="M 461.5 322 L 461.5 332" opacity="1"></path><path fill="none" class="highcharts-tick" stroke="#ccd6eb" stroke-width="1" d="M 493.5 322 L 493.5 332" opacity="1"></path><path fill="none" class="highcharts-tick" stroke="#ccd6eb" stroke-width="1" d="M 525.5 322 L 525.5 332" opacity="1"></path><path fill="none" class="highcharts-tick" stroke="#ccd6eb" stroke-width="1" d="M 557.5 322 L 557.5 332" opacity="1"></path><path fill="none" class="highcharts-tick" stroke="#ccd6eb" stroke-width="1" d="M 590.5 322 L 590.5 332" opacity="1"></path><path fill="none" class="highcharts-tick" stroke="#ccd6eb" stroke-width="1" d="M 76.5 322 L 76.5 332" opacity="1"></path><text x="333.5" text-anchor="middle" transform="translate(0,0)" class="highcharts-axis-title" style="color:#666666;fill:#666666;" y="382.9464361342255"><tspan>Sequence Duplication Level</tspan></text><path fill="none" class="highcharts-axis-line" stroke="#ccd6eb" stroke-width="1" d="M 77 322.5 L 590 322.5"></path></g><g class="highcharts-axis highcharts-yaxis "><text x="23.7734375" text-anchor="middle" transform="translate(0,0) rotate(270 23.7734375 184.5)" class="highcharts-axis-title" style="color:#666666;fill:#666666;" y="184.5"><tspan>% of Library</tspan></text><path fill="none" class="highcharts-axis-line" d="M 77 47 L 77 322"></path></g><g class="highcharts-series-group"><g class="highcharts-series highcharts-series-0 highcharts-line-series highcharts-color-undefined " transform="translate(77,47) scale(1 1)" width="275" height="513" clip-path="url(#highcharts-9g19oj0-211)"><path fill="none" d="M 16.03125 198.6288715309929 L 48.09375 246.40718487497557 L 80.15625 258.721098307831 L 112.21875 264.29927803982787 L 144.28125 266.98057588995033 L 176.34375 268.9762087102562 L 208.40625 270.1447121056832 L 240.46875 270.69530366795226 L 272.53125 271.6235652495689 L 304.59375 232.72819944247095 L 336.65625 260.5730454794142 L 368.71875 244.0408654698276 L 400.78125 264.9844749962552 L 432.84375 258.7109905328065 L 464.90625 273.07521891324143 L 496.96875 274.4104067889461" class="highcharts-graph" stroke="rgb(228, 26, 28)" stroke-width="2" stroke-linejoin="round" stroke-linecap="round"></path></g><g class="highcharts-markers highcharts-series-0 highcharts-line-series highcharts-color-undefined " transform="translate(77,47) scale(1 1)" width="275" height="513" clip-path="none"></g><g class="highcharts-series highcharts-series-1 highcharts-line-series highcharts-color-undefined " transform="translate(77,47) scale(1 1)" width="275" height="513" clip-path="url(#highcharts-9g19oj0-211)"><path fill="none" d="M 16.03125 190.64009482775202 L 48.09375 247.1111579270902 L 80.15625 259.46040391354336 L 112.21875 264.77105371943554 L 144.28125 267.30558210777895 L 176.34375 269.29829138928176 L 208.40625 270.23003670797027 L 240.46875 270.9584625734461 L 272.53125 271.54307124731264 L 304.59375 234.66126097534308 L 336.65625 260.90635735689517 L 368.71875 246.06184647380752 L 400.78125 265.18491054327853 L 432.84375 259.4561306254978 L 464.90625 273.2517091391692 L 496.96875 274.15963047239796" class="highcharts-graph" stroke="rgb(228, 26, 28)" stroke-width="2" stroke-linejoin="round" stroke-linecap="round"></path></g><g class="highcharts-markers highcharts-series-1 highcharts-line-series highcharts-color-undefined " transform="translate(77,47) scale(1 1)" width="275" height="513" clip-path="none"></g><g class="highcharts-series highcharts-series-2 highcharts-line-series highcharts-color-undefined " transform="translate(77,47) scale(1 1)" width="275" height="513" clip-path="url(#highcharts-9g19oj0-211)"><path fill="none" d="M 16.03125 205.8866711631578 L 48.09375 248.15719663335577 L 80.15625 259.2626949443229 L 112.21875 264.1210650363464 L 144.28125 266.8710061727408 L 176.34375 268.52939911020644 L 208.40625 269.66793260222744 L 240.46875 270.564138785289 L 272.53125 271.19018347394496 L 304.59375 230.35069549555698 L 336.65625 259.9148033235099 L 368.71875 243.8250339675761 L 400.78125 264.64977550938767 L 432.84375 256.21189341564485 L 464.90625 271.726248494331 L 496.96875 274.0712618724025" class="highcharts-graph" stroke="rgb(228, 26, 28)" stroke-width="2" stroke-linejoin="round" stroke-linecap="round"></path></g><g class="highcharts-markers highcharts-series-2 highcharts-line-series highcharts-color-undefined " transform="translate(77,47) scale(1 1)" width="275" height="513" clip-path="none"></g><g class="highcharts-series highcharts-series-3 highcharts-line-series highcharts-color-undefined " transform="translate(77,47) scale(1 1)" width="275" height="513" clip-path="url(#highcharts-9g19oj0-211)"><path fill="none" d="M 16.03125 199.4273976083726 L 48.09375 248.945763654754 L 80.15625 259.6473464733786 L 112.21875 264.31237049829014 L 144.28125 267.2024836301798 L 176.34375 268.6367549754021 L 208.40625 269.8212182727826 L 240.46875 270.8394013980984 L 272.53125 271.4082759323259 L 304.59375 231.82027443806896 L 336.65625 260.70762513141995 L 368.71875 244.73618831143077 L 400.78125 264.9201513884154 L 432.84375 256.66917707476387 L 464.90625 272.0640141565587 L 496.96875 273.8415570557577" class="highcharts-graph" stroke="rgb(228, 26, 28)" stroke-width="2" stroke-linejoin="round" stroke-linecap="round"></path></g><g class="highcharts-markers highcharts-series-3 highcharts-line-series highcharts-color-undefined " transform="translate(77,47) scale(1 1)" width="275" height="513" clip-path="none"></g><g class="highcharts-series highcharts-series-4 highcharts-line-series highcharts-color-undefined " transform="translate(77,47) scale(1 1)" width="275" height="513" clip-path="url(#highcharts-9g19oj0-211)"><path fill="none" d="M 16.03125 201.97520673278086 L 48.09375 244.73901839950736 L 80.15625 257.7728575250346 L 112.21875 263.72348077176736 L 144.28125 266.53441119366545 L 176.34375 268.5492493366727 L 208.40625 269.98307648582175 L 240.46875 270.53864659957435 L 272.53125 271.33096190079175 L 304.59375 232.7258302222308 L 336.65625 260.48417500088215 L 368.71875 243.24468850838346 L 400.78125 265.1359826455432 L 432.84375 260.37428232507574 L 464.90625 273.64055686365793 L 496.96875 274.2475754886107" class="highcharts-graph" stroke="rgb(198, 77, 255)" stroke-width="2" stroke-linejoin="round" stroke-linecap="round"></path></g><g class="highcharts-markers highcharts-series-4 highcharts-line-series highcharts-color-undefined " transform="translate(77,47) scale(1 1)" width="275" height="513" clip-path="none"></g><g class="highcharts-series highcharts-series-5 highcharts-line-series highcharts-color-undefined " transform="translate(77,47) scale(1 1)" width="275" height="513" clip-path="url(#highcharts-9g19oj0-211)"><path fill="none" d="M 16.03125 194.4504428951833 L 48.09375 245.64826164873284 L 80.15625 258.46958711013696 L 112.21875 264.0500992275029 L 144.28125 267.1386898356505 L 176.34375 268.7812114220394 L 208.40625 270.0630187663717 L 240.46875 270.86986670171717 L 272.53125 271.4594642043805 L 304.59375 235.00928072256374 L 336.65625 260.6900979352287 L 368.71875 244.20182156253588 L 400.78125 265.2171044112316 L 432.84375 260.72358898063266 L 464.90625 273.8166489136204 L 496.96875 274.4108156624717" class="highcharts-graph" stroke="rgb(198, 77, 255)" stroke-width="2" stroke-linejoin="round" stroke-linecap="round"></path></g><g class="highcharts-markers highcharts-series-5 highcharts-line-series highcharts-color-undefined " transform="translate(77,47) scale(1 1)" width="275" height="513" clip-path="none"></g><g class="highcharts-series highcharts-series-6 highcharts-line-series highcharts-color-undefined " transform="translate(77,47) scale(1 1)" width="275" height="513" clip-path="url(#highcharts-9g19oj0-211)"><path fill="none" d="M 16.03125 203.7697064983884 L 48.09375 247.3975502418879 L 80.15625 258.55669045403084 L 112.21875 263.62532861882295 L 144.28125 266.3118593701265 L 176.34375 268.075618667686 L 208.40625 269.66511101838455 L 240.46875 270.38697792587624 L 272.53125 271.05424351282073 L 304.59375 229.06775222158296 L 336.65625 260.2243886099457 L 368.71875 245.22101950050637 L 400.78125 265.3071406612879 L 432.84375 259.40247709928457 L 464.90625 272.62873656018894 L 496.96875 274.30539903917867" class="highcharts-graph" stroke="rgb(198, 77, 255)" stroke-width="2" stroke-linejoin="round" stroke-linecap="round"></path></g><g class="highcharts-markers highcharts-series-6 highcharts-line-series highcharts-color-undefined " transform="translate(77,47) scale(1 1)" width="275" height="513" clip-path="none"></g><g class="highcharts-series highcharts-series-7 highcharts-line-series highcharts-color-undefined " transform="translate(77,47) scale(1 1)" width="275" height="513" clip-path="url(#highcharts-9g19oj0-211)"><path fill="none" d="M 16.03125 193.4070934599904 L 48.09375 248.27887544681872 L 80.15625 259.19797293646724 L 112.21875 263.99980555799715 L 144.28125 266.8971324522991 L 176.34375 268.6976153221734 L 208.40625 269.88885315620865 L 240.46875 270.64481518652383 L 272.53125 271.277300707099 L 304.59375 231.94997688522346 L 336.65625 261.31225989429805 L 368.71875 246.5703725558032 L 400.78125 265.560957062062 L 432.84375 260.2272811777868 L 464.90625 272.92549765310224 L 496.96875 274.164190546147" class="highcharts-graph" stroke="rgb(198, 77, 255)" stroke-width="2" stroke-linejoin="round" stroke-linecap="round"></path></g><g class="highcharts-markers highcharts-series-7 highcharts-line-series highcharts-color-undefined " transform="translate(77,47) scale(1 1)" width="275" height="513" clip-path="none"></g><g class="highcharts-series highcharts-series-8 highcharts-line-series highcharts-color-undefined " transform="translate(77,47) scale(1 1)" width="275" height="513" clip-path="url(#highcharts-9g19oj0-211)"><path fill="none" d="M 16.03125 195.83501493499796 L 48.09375 244.4341432036706 L 80.15625 257.4043254368342 L 112.21875 262.7642552823848 L 144.28125 265.9127130148554 L 176.34375 268.1092018288257 L 208.40625 269.1261934001223 L 240.46875 270.26141586604524 L 272.53125 271.04065289557843 L 304.59375 231.01905235798276 L 336.65625 261.47880593069215 L 368.71875 246.77907537924338 L 400.78125 266.684388144767 L 432.84375 265.1532779248598 L 464.90625 274.2710862044369 L 496.96875 274.7263981947041" class="highcharts-graph" stroke="rgb(102, 115, 143)" stroke-width="2" stroke-linejoin="round" stroke-linecap="round"></path></g><g class="highcharts-markers highcharts-series-8 highcharts-line-series highcharts-color-undefined " transform="translate(77,47) scale(1 1)" width="275" height="513" clip-path="none"></g><g class="highcharts-series highcharts-series-9 highcharts-line-series highcharts-color-undefined " transform="translate(77,47) scale(1 1)" width="275" height="513" clip-path="url(#highcharts-9g19oj0-211)"><path fill="none" d="M 16.03125 188.43443472656904 L 48.09375 245.2166090638913 L 80.15625 258.0189653479895 L 112.21875 263.4571876562813 L 144.28125 266.37673048338587 L 176.34375 268.31095754783405 L 208.40625 269.50908231056 L 240.46875 270.4573407750372 L 272.53125 271.1551290591823 L 304.59375 232.76400804289483 L 336.65625 262.02677939613847 L 368.71875 248.1262396337402 L 400.78125 266.8573240273224 L 432.84375 265.422808518363 L 464.90625 274.3287792301881 L 496.96875 274.5376241806225" class="highcharts-graph" stroke="rgb(102, 115, 143)" stroke-width="2" stroke-linejoin="round" stroke-linecap="round"></path></g><g class="highcharts-markers highcharts-series-9 highcharts-line-series highcharts-color-undefined " transform="translate(77,47) scale(1 1)" width="275" height="513" clip-path="none"></g><g class="highcharts-series highcharts-series-10 highcharts-line-series highcharts-color-undefined " transform="translate(77,47) scale(1 1)" width="275" height="513" clip-path="url(#highcharts-9g19oj0-211)"><path fill="none" d="M 16.03125 205.38185405515367 L 48.09375 247.97021351957642 L 80.15625 259.1924996628141 L 112.21875 263.9457072072981 L 144.28125 266.88065874449546 L 176.34375 268.45438723052365 L 208.40625 269.6850182599478 L 240.46875 270.4178748871093 L 272.53125 270.8765841715506 L 304.59375 229.77360677799365 L 336.65625 260.0386576796582 L 368.71875 242.31173228493086 L 400.78125 263.5460892532992 L 432.84375 258.9698463586862 L 464.90625 273.14777983329634 L 496.96875 274.40749007366605" class="highcharts-graph" stroke="rgb(102, 115, 143)" stroke-width="2" stroke-linejoin="round" stroke-linecap="round"></path></g><g class="highcharts-markers highcharts-series-10 highcharts-line-series highcharts-color-undefined " transform="translate(77,47) scale(1 1)" width="275" height="513" clip-path="none"></g><g class="highcharts-series highcharts-series-11 highcharts-line-series highcharts-color-undefined " transform="translate(77,47) scale(1 1)" width="275" height="513" clip-path="url(#highcharts-9g19oj0-211)"><path fill="none" d="M 16.03125 198.2996402796141 L 48.09375 248.28088597037157 L 80.15625 259.54497644530494 L 112.21875 264.18595190130156 L 144.28125 266.8879551557201 L 176.34375 268.6114576836575 L 208.40625 269.8129552979166 L 240.46875 270.78799065853065 L 272.53125 271.25438169993544 L 304.59375 231.51759775506528 L 336.65625 260.8600538894188 L 368.71875 243.1073363304908 L 400.78125 264.1912041837249 L 432.84375 259.9788281617217 L 464.90625 273.37557321512173 L 496.96875 274.3032113721053" class="highcharts-graph" stroke="rgb(102, 115, 143)" stroke-width="2" stroke-linejoin="round" stroke-linecap="round"></path></g><g class="highcharts-markers highcharts-series-11 highcharts-line-series highcharts-color-undefined " transform="translate(77,47) scale(1 1)" width="275" height="513" clip-path="none"></g></g><text x="330" text-anchor="middle" class="highcharts-title" style="color:#333333;font-size:18px;fill:#333333;width:536px;" y="24"><tspan>FastQC: Sequence Duplication Levels</tspan></text><g class="highcharts-axis-labels highcharts-xaxis-labels "><text x="95.62397486435067" style="color:#666666;cursor:default;font-size:11px;fill:#666666;width:400px;text-overflow:ellipsis;" text-anchor="end" transform="translate(0,0) rotate(-45 95.62397486435067 338)" y="338" opacity="1"><tspan>1</tspan></text><text x="127.68647486435069" style="color:#666666;cursor:default;font-size:11px;fill:#666666;width:400px;text-overflow:ellipsis;" text-anchor="end" transform="translate(0,0) rotate(-45 127.68647486435069 338)" y="338" opacity="1"><tspan>2</tspan></text><text x="159.74897486435069" style="color:#666666;cursor:default;font-size:11px;fill:#666666;width:400px;text-overflow:ellipsis;" text-anchor="end" transform="translate(0,0) rotate(-45 159.74897486435069 338)" y="338" opacity="1"><tspan>3</tspan></text><text x="191.81147486435069" style="color:#666666;cursor:default;font-size:11px;fill:#666666;width:400px;text-overflow:ellipsis;" text-anchor="end" transform="translate(0,0) rotate(-45 191.81147486435069 338)" y="338" opacity="1"><tspan>4</tspan></text><text x="223.87397486435069" style="color:#666666;cursor:default;font-size:11px;fill:#666666;width:400px;text-overflow:ellipsis;" text-anchor="end" transform="translate(0,0) rotate(-45 223.87397486435069 338)" y="338" opacity="1"><tspan>5</tspan></text><text x="255.93647486435066" style="color:#666666;cursor:default;font-size:11px;fill:#666666;width:400px;text-overflow:ellipsis;" text-anchor="end" transform="translate(0,0) rotate(-45 255.93647486435066 338)" y="338" opacity="1"><tspan>6</tspan></text><text x="287.99897486435066" style="color:#666666;cursor:default;font-size:11px;fill:#666666;width:400px;text-overflow:ellipsis;" text-anchor="end" transform="translate(0,0) rotate(-45 287.99897486435066 338)" y="338" opacity="1"><tspan>7</tspan></text><text x="320.06147486435066" style="color:#666666;cursor:default;font-size:11px;fill:#666666;width:400px;text-overflow:ellipsis;" text-anchor="end" transform="translate(0,0) rotate(-45 320.06147486435066 338)" y="338" opacity="1"><tspan>8</tspan></text><text x="352.12397486435066" style="color:#666666;cursor:default;font-size:11px;fill:#666666;width:400px;text-overflow:ellipsis;" text-anchor="end" transform="translate(0,0) rotate(-45 352.12397486435066 338)" y="338" opacity="1"><tspan>9</tspan></text><text x="384.18647486435066" style="color:#666666;cursor:default;font-size:11px;fill:#666666;width:400px;text-overflow:ellipsis;" text-anchor="end" transform="translate(0,0) rotate(-45 384.18647486435066 338)" y="338" opacity="1"><tspan>&gt;10</tspan></text><text x="416.24897486435066" style="color:#666666;cursor:default;font-size:11px;fill:#666666;width:400px;text-overflow:ellipsis;" text-anchor="end" transform="translate(0,0) rotate(-45 416.24897486435066 338)" y="338" opacity="1"><tspan>&gt;50</tspan></text><text x="448.31147486435066" style="color:#666666;cursor:default;font-size:11px;fill:#666666;width:400px;text-overflow:ellipsis;" text-anchor="end" transform="translate(0,0) rotate(-45 448.31147486435066 338)" y="338" opacity="1"><tspan>&gt;100</tspan></text><text x="480.37397486435066" style="color:#666666;cursor:default;font-size:11px;fill:#666666;width:400px;text-overflow:ellipsis;" text-anchor="end" transform="translate(0,0) rotate(-45 480.37397486435066 338)" y="338" opacity="1"><tspan>&gt;500</tspan></text><text x="512.4364748643507" style="color:#666666;cursor:default;font-size:11px;fill:#666666;width:400px;text-overflow:ellipsis;" text-anchor="end" transform="translate(0,0) rotate(-45 512.4364748643507 338)" y="338" opacity="1"><tspan>&gt;1k</tspan></text><text x="544.4989748643507" style="color:#666666;cursor:default;font-size:11px;fill:#666666;width:400px;text-overflow:ellipsis;" text-anchor="end" transform="translate(0,0) rotate(-45 544.4989748643507 338)" y="338" opacity="1"><tspan>&gt;5k</tspan></text><text x="576.5614748643507" style="color:#666666;cursor:default;font-size:11px;fill:#666666;width:400px;text-overflow:ellipsis;" text-anchor="end" transform="translate(0,0) rotate(-45 576.5614748643507 338)" y="338" opacity="1"><tspan>&gt;10k+</tspan></text></g><g class="highcharts-axis-labels highcharts-yaxis-labels "><text x="62" style="color:#666666;cursor:default;font-size:11px;fill:#666666;width:188px;text-overflow:clip;" text-anchor="end" transform="translate(0,0)" y="327" opacity="1"><tspan>0%</tspan></text><text x="62" style="color:#666666;cursor:default;font-size:11px;fill:#666666;width:188px;text-overflow:clip;" text-anchor="end" transform="translate(0,0)" y="258" opacity="1"><tspan>25%</tspan></text><text x="62" style="color:#666666;cursor:default;font-size:11px;fill:#666666;width:188px;text-overflow:clip;" text-anchor="end" transform="translate(0,0)" y="189" opacity="1"><tspan>50%</tspan></text><text x="62" style="color:#666666;cursor:default;font-size:11px;fill:#666666;width:188px;text-overflow:clip;" text-anchor="end" transform="translate(0,0)" y="120" opacity="1"><tspan>75%</tspan></text><text x="62" style="color:#666666;cursor:default;font-size:11px;fill:#666666;width:188px;text-overflow:clip;" text-anchor="end" transform="translate(0,0)" y="52" opacity="1"><tspan>100%</tspan></text></g><text x="590" class="highcharts-credits" text-anchor="end" style="cursor:pointer;color:#999999;font-size:9px;fill:#999999;" y="395"><tspan>Created with MultiQC</tspan></text></svg>